<?xml version="1.0" standalone="no"?>
<!DOCTYPE svg PUBLIC "-//W3C//DTD SVG 1.1//EN" "http://www.w3.org/Graphics/SVG/1.1/DTD/svg11.dtd" >
<svg>
<metadata>
Created by FontForge 20090914 at Mon Jul 28 18:49:55 2014
 By www-data
Copyright (c) Jos Buivenga, 2004. All rights reserved.
</metadata>
<defs>
<font id="Fontin-Italic" horiz-adv-x="1124" >
  <font-face 
    font-family="Fontin"
    font-weight="400"
    font-style="italic"
    font-stretch="normal"
    units-per-em="2048"
    panose-1="2 0 5 3 0 0 0 0 0 0"
    ascent="1638"
    descent="-410"
    x-height="1008"
    cap-height="1376"
    bbox="-379 -549 2220 1798"
    underline-thickness="40"
    underline-position="-266"
    slope="-12"
    unicode-range="U+001E-U+FFFD"
  />
<missing-glyph horiz-adv-x="1000" 
 />
    <glyph glyph-name="fi" unicode="fi" horiz-adv-x="1198" 
d="M250 713l-124.998 -661.998l-8 -51h198c0 43.333 1.33301 72 4 86l55 326c36.667 217.333 65.667 375.666 87 474.999c3.33301 0 16.666 -1 39.999 -3s40 -3 50 -3c112.667 0 170.667 49.667 174 149l-5 -4c-2.66699 -2 -6.33398 -4.33301 -11.001 -7
s-12.167 -5.16699 -22.5 -7.5s-22.166 -3.5 -35.499 -3.5h-178c5.33301 11.333 9.33301 27 12 47c5.33301 35.333 10.333 64.666 15 87.999s11.167 49.666 19.5 78.999s17.333 53.333 27 72s22.334 37.834 38.001 57.501s33.5 35.167 53.5 46.5s43.833 20.5 71.5 27.5
s58.834 10.5 93.501 10.5c42.667 0 81.667 -10.833 117 -32.5s53 -47.834 53 -78.501c0 -11.333 -6.33301 -32.333 -19 -63c9.33301 -18 23.166 -32.5 41.499 -43.5s37.5 -16.5 57.5 -16.5c29.333 0 55 10.5 77 31.5s33 47.5 33 79.5c0 48.667 -15.333 91.5 -46 128.5
s-69.334 64.333 -116.001 82s-96.334 26.5 -149.001 26.5c-132 0 -240 -33.833 -324 -101.5s-146 -175.167 -186 -322.5c-21.333 -76 -64.333 -116.667 -129 -122l-20 -62c44.667 -20 67 -65 67 -135c0 -31.333 -3.33301 -62.666 -10 -93.999zM748.002 0.00195312
l2.00195 7.99902c99.333 523.333 149 795.666 149 816.999c0 49.333 -18.333 74 -55 74c-6.66699 0 -12.334 -0.666992 -17.001 -2l-18 33c23.333 27.333 55.666 51.5 96.999 72.5s81.333 31.5 120 31.5c25.333 0 44.333 -8.16699 57 -24.5s19 -38.166 19 -65.499
c0 -10.667 -3 -30.667 -9 -60s-13.167 -61.666 -21.5 -96.999s-13.166 -56 -14.499 -62l-96 -571c-4 -21.333 -6.83301 -49 -8.5 -83s-3.83398 -57.667 -6.50098 -71h-198z" />
    <glyph glyph-name="fl" unicode="fl" horiz-adv-x="1175" 
d="M737 0l198.998 0.00195312v31c0 68.667 25.167 238.167 75.5 508.5s96.833 495.166 139.5 674.499c23.333 63.333 35 124.333 35 183c0 55.333 -9 87.333 -27 96c-70 38 -172.333 57 -307 57c-132 0 -240 -33.833 -324 -101.5s-146 -175.167 -186 -322.5
c-21.333 -76 -64.333 -116.667 -129 -122l-20 -62c44.667 -20 67 -65 67 -135c0 -31.333 -3.33301 -62.666 -10 -93.999l-125 -662l-8 -51h198v33c0 23.333 1.33301 41 4 53l55 326c36.667 217.333 65.667 375.666 87 474.999c3.33301 0 16.666 -1 39.999 -3s40 -3 50 -3
c112.667 0 170.667 49.667 174 149l-5 -4c-2.66699 -2 -6.33398 -4.33301 -11.001 -7s-12.167 -5.16699 -22.5 -7.5s-22.166 -3.5 -35.499 -3.5h-178c5.33301 11.333 9.33301 27 12 47c5.33301 35.333 10.333 64.666 15 87.999s11.167 49.666 19.5 78.999
s17.333 53.333 27 72s22.334 37.834 38.001 57.501s33.5 35.167 53.5 46.5s43.833 20.5 71.5 27.5s58.834 10.5 93.501 10.5s70.834 -8.5 108.501 -25.5s61.5 -38.5 71.5 -64.5c0 -22 -2 -46 -6 -72l-236 -1243z" />
    <glyph glyph-name="ffi" unicode="ffi" horiz-adv-x="1658" 
 />
    <glyph glyph-name=".notdef" unicode="&#xfffd;" horiz-adv-x="1000" 
 />
    <glyph glyph-name=".null" horiz-adv-x="0" 
 />
    <glyph glyph-name=".null" horiz-adv-x="0" 
 />
    <glyph glyph-name="uni001E" horiz-adv-x="1024" 
 />
    <glyph glyph-name="space" unicode=" " horiz-adv-x="552" 
 />
    <glyph glyph-name="exclam" unicode="!" horiz-adv-x="567" 
d="M219 311l-56.999 13.001l121 987c3.33301 36 3.33301 64.667 0 86s-8 36.333 -14 45l-9 12l10 47l21 11c14 8 32.667 15.667 56 23s44.333 11 63 11c35.333 0 63.5 -3.83301 84.5 -11.5s35 -20.167 42 -37.5s10.167 -36 9.5 -56s-5.83398 -46.333 -15.501 -79
s-20.167 -63.834 -31.5 -93.501l-40.5 -111.5c-15.667 -44.667 -28.5 -85.667 -38.5 -123zM254.001 84.001c0 -30.667 -10.667 -56.834 -32 -78.501s-47 -32.5 -77 -32.5c-30.667 0 -56.667 10.833 -78 32.5s-32 47.834 -32 78.501c0 29.333 10.833 54.833 32.5 76.5
s47.5 32.5 77.5 32.5s55.667 -10.833 77 -32.5s32 -47.167 32 -76.5z" />
    <glyph glyph-name="quotedbl" unicode="&#x22;" horiz-adv-x="786" 
d="M285 1554l105.999 0.000976562l-55 -165c-14.667 -44 -34 -85.833 -58 -125.5s-55.833 -74.834 -95.5 -105.501s-81.5 -46 -125.5 -46c-24.667 0 -39 2 -43 6c32 24 59.667 55.667 83 95s41.5 77.833 54.5 115.5l37 109c11.667 35 25.334 63.167 41.001 84.5
s34.167 32 55.5 32zM611.999 1554l107.001 -0.000976562l-55 -165c-10.667 -32 -24.5 -63.333 -41.5 -94s-37 -60.167 -60 -88.5s-50 -51.166 -81 -68.499s-63.167 -26 -96.5 -26c-24.667 0 -39 2 -43 6c32 24 59.667 55.667 83 95s41.5 77.833 54.5 115.5l37 109
c11.667 35 25.167 63.167 40.5 84.5s33.666 32 54.999 32z" />
    <glyph glyph-name="numbersign" unicode="#" horiz-adv-x="1441" 
d="M147 782l38.998 130.998c0 -2.66699 100.333 -5.33398 301 -8.00098c44.667 165.333 70.667 267 78 305c5.33301 26.667 8.33301 52.334 9 77.001s0.333984 41.334 -0.999023 50.001c37.333 26 69.666 39 96.999 39c29.333 0 46 -14.333 50 -43s1 -62 -9 -100
c-10.667 -44.667 -43 -154 -97 -328h271c34 126.667 60 228.334 78 305.001c5.33301 28.667 8 71 8 127c37.333 26 69.333 39 96 39c10.667 0 19.667 -1.66699 27 -5s12.666 -8.66602 15.999 -15.999s5.83301 -14.5 7.5 -21.5s2 -17 1 -30s-2.33301 -24 -4 -33
s-3.83398 -21.5 -6.50098 -37.5c-6 -29.333 -38 -138.666 -96 -327.999h98h102c32 0 60.333 0.333008 85 1s45.834 2.33398 63.501 5.00098s29.834 6.33398 36.501 11.001c-7.33301 -20.667 -16.666 -38.834 -27.999 -54.501s-23.833 -28.334 -37.5 -38.001
s-28.667 -17.834 -45 -24.501s-33.166 -11.5 -50.499 -14.5s-35.5 -5.33301 -54.5 -7s-38 -2.16699 -57 -1.5s-38.167 0.666992 -57.5 0h-94l-35.5 -119c-18.333 -62 -33.166 -110.333 -44.499 -145h104h102.5c32.333 0 61 0.333008 86 1s46.333 2.33398 64 5.00098
s29.834 6.33398 36.501 11.001c-7.33301 -20.667 -16.666 -38.834 -27.999 -54.501s-23.833 -28.334 -37.5 -38.001s-28.834 -17.834 -45.501 -24.501s-33.834 -11.5 -51.501 -14.5s-36 -5.33301 -55 -7s-38 -2.16699 -57 -1.5s-38.167 0.666992 -57.5 0h-98
c-44 -146 -78.667 -272.333 -104 -379l-146 -30c60 186.667 102.333 323 127 409h-274c-41.333 -137.333 -76.333 -263.666 -105 -378.999l-145 -30c63.333 201.333 105.666 338.333 126.999 411h-264c-19.333 0 -31.666 -0.666992 -36.999 -2l41 131
c-0.666992 -1.33301 13.666 -2.5 42.999 -3.5s63 -1.83301 101 -2.5s89.667 -1.33398 155 -2.00098l78 266h-269c-18.667 0 -31 -0.666992 -37 -2zM769.998 517.998l80 264h-272l-82 -264h274z" />
    <glyph glyph-name="dollar" unicode="$" horiz-adv-x="937" 
d="M385 -217l-100 -0.00195312c14 77.333 27 140.666 39 189.999c-82.667 0.666992 -147.167 17.167 -193.5 49.5s-69.5 70.5 -69.5 114.5c0 32.667 13.667 62.667 41 90c2 -30 27 -57.167 75 -81.5s103.667 -36.5 167 -36.5h6c63.333 317.333 95.333 478.333 96 483
l-40.5 31.5l-41 32.5l-39.5 33.5c-12.667 11 -24.667 22.667 -36 35s-22 24.833 -32 37.5s-19.167 26.334 -27.5 41.001s-15.333 29.334 -21 44.001s-10.167 30.667 -13.5 48s-5 35 -5 53c0 60.667 16 121.667 48 183s79.667 115.166 143 161.499s134.333 73.5 213 81.5
c3.33301 19.333 6.83301 45.166 10.5 77.499s6.16699 53.833 7.5 64.5c34.667 6.66699 54.667 10 60 10c27.333 0 41 -14.333 41 -43c0 -14 -7 -49.667 -21 -107c73.333 -4 134 -20.5 182 -49.5s72 -67.833 72 -116.5c0 -32.667 -12.333 -68.667 -37 -108
c0 36.667 -23.5 68.334 -70.5 95.001s-105.167 42 -174.5 46l-97 -450c34.667 -23.333 62 -42.5 82 -57.5s44.5 -35.667 73.5 -62s51.5 -51 67.5 -74s30 -50.667 42 -83s18 -65.833 18 -100.5c0 -107.333 -40.833 -201.666 -122.5 -282.999
s-184.167 -131.666 -307.5 -150.999zM637 304.998c2.66699 16 4.00098 27.668 4.00098 35.001c0 36 -10.333 69.167 -31 99.5s-50.667 62.166 -90 95.499c-12 -58.667 -38 -197.334 -78 -416.001c49.333 12 91.666 33.333 126.999 64s58 71.334 68 122.001zM367.001 1067
c-1.33301 -5.33301 -2 -15.001 -2 -29.001c0 -68 42.333 -132.667 127 -194l39.5 193c20.333 98 33.5 165.333 39.5 202c-53.333 -7.33301 -98.333 -25.166 -135 -53.499s-59.667 -67.833 -69 -118.5z" />
    <glyph glyph-name="percent" unicode="%" horiz-adv-x="1605" 
d="M391 0l-145.003 0.000976562l711.5 1026c123.667 183.333 186.834 291.333 189.501 324c26.667 20 54 30 82 30c40.667 0 61 -13.667 61 -41c0 -21.333 -13.167 -51.833 -39.5 -91.5s-45.166 -65.834 -56.499 -78.501c-1.33301 -2 -63.166 -89.333 -185.499 -262
l-371 -532c-125 -182 -207.167 -307 -246.5 -375zM1247 662.001c-118.667 0 -219.667 -43.168 -303 -129.501s-125 -193.5 -125 -321.5c0 -77.333 19.833 -135.666 59.5 -174.999s92.167 -59 157.5 -59c79.333 0 152.833 21 220.5 63s120.667 97.333 159 166
s57.5 142 57.5 220c0 76 -20.5 134.333 -61.5 175s-95.833 61 -164.5 61zM1102 59c-45.333 0 -79.5 16.5 -102.5 49.5s-34.5 78.833 -34.5 137.5c0 98 21 177.833 63 239.5s93.333 92.5 154 92.5c47.333 0 84 -16.5 110 -49.5s39 -78.833 39 -137.5
c0 -96 -23.333 -175.333 -70 -238s-99.667 -94 -159 -94zM546.997 1378c-119.333 0 -220.497 -43.001 -303.497 -129.001s-124.5 -193 -124.5 -321c0 -77.333 19.833 -135.666 59.5 -174.999s92.167 -59 157.5 -59c79.333 0 152.666 21 219.999 63
s120.166 97.333 158.499 166s57.5 142 57.5 220c0 75.333 -20.333 133.333 -61 174s-95.334 61 -164.001 61zM401 775.999c-45.333 0 -79.5 16.501 -102.5 49.501s-34.5 78.833 -34.5 137.5c0 98 21 177.667 63 239s93.333 92 154 92c48 0 85 -16.333 111 -49
s39 -78.334 39 -137.001c0 -96 -23.5 -175.333 -70.5 -238s-100.167 -94 -159.5 -94z" />
    <glyph glyph-name="ampersand" unicode="&#x26;" horiz-adv-x="1384" 
d="M786 512c15.333 49.333 46.5029 94.502 93.5029 135.502s91.833 61.5 134.5 61.5c26 0 46.167 -7.83301 60.5 -23.5s21.5 -44.167 21.5 -85.5c0 -59.333 -10.5 -115.5 -31.5 -168.5s-48.167 -97.833 -81.5 -134.5s-70.333 -68.5 -111 -95.5
s-81.334 -46.833 -122.001 -59.5s-78.334 -19 -113.001 -19c-102 0 -180 30 -234 90s-81 135 -81 225c0 58.667 10.833 116.667 32.5 174s54.5 110.5 98.5 159.5s95.667 86.167 155 111.5l-4 26c-38 44 -57 109 -57 195c0 55.333 10.5 108.333 31.5 159
s52.833 92.834 95.5 126.501s91 50.5 145 50.5c22 0 42.333 -2 61 -6s37.167 -11 55.5 -21s32.833 -25 43.5 -45s16 -44 16 -72c0 -2.66699 -0.333008 -6.33398 -1 -11.001s-1 -8.33398 -1 -11.001c16.667 -9.33301 36.667 -14 60 -14c32.667 0 62 11.833 88 35.5
s39 53.167 39 88.5s-18 65.833 -54 91.5s-77 43.834 -123 54.501s-91.667 16 -137 16c-85.333 0 -166.666 -16.5 -243.999 -49.5s-141.333 -82 -192 -147s-76 -138.833 -76 -221.5c0 -44.667 11.167 -88.834 33.5 -132.501s52.166 -79.834 89.499 -108.501
c-50.667 -20 -97.5 -45 -140.5 -75s-82.5 -65.833 -118.5 -107.5s-64.333 -90.834 -85 -147.501s-31 -117.334 -31 -182.001c0 -116 39.667 -212 119 -288s177 -114 293 -114c118 0 226.167 26.167 324.5 78.5s178.666 125 240.999 218s100.5 198.5 114.5 316.5
c12.667 102.667 24.334 170 35.001 202c57.333 31.333 102.666 72.833 135.999 124.5s50 110.834 50 177.501c0 8 -1.33301 21.333 -4 40l-30.5 -53c-7.66699 -12.667 -20.5 -29.5 -38.5 -50.5s-36.667 -38.167 -56 -51.5c-34 -23.333 -87.833 -48.166 -161.5 -74.499
s-126.167 -47.833 -157.5 -64.5c-52 -27.333 -96.5 -66 -133.5 -116s-55.5 -101 -55.5 -153c0 -20.667 2.66699 -39 8 -55z" />
    <glyph glyph-name="quotesingle" unicode="'" horiz-adv-x="425" 
d="M287 1554l105.999 0.000976562l-55 -165c-14.667 -44 -34 -85.833 -58 -125.5s-55.833 -74.834 -95.5 -105.501s-81.5 -46 -125.5 -46c-24.667 0 -39 2 -43 6c32 24 59.667 55.667 83 95s41.5 77.833 54.5 115.5l37 109c11.667 35 25.334 63.167 41.001 84.5
s34.167 32 55.5 32z" />
    <glyph glyph-name="parenleft" unicode="(" horiz-adv-x="651" 
d="M834 1380c-70.667 0 -141 -24.498 -211 -73.498s-133.167 -115.167 -189.5 -198.5s-106.5 -176.833 -150.5 -280.5s-78 -213.834 -102 -330.501s-36 -229 -36 -337c0 -125.333 12.333 -239 37 -341s61.5 -184 110.5 -246s105.833 -93 170.5 -93
c-6.66699 0 -17.667 16.167 -33 48.5s-31.5 75 -48.5 128s-32 122.167 -45 207.5s-19.5 173 -19.5 263c0 118.667 11.333 236.167 34 352.5s51.667 218.666 87 306.999s73.833 170.833 115.5 247.5s82 139.667 121 189s72.667 87.833 101 115.5s47.833 41.5 58.5 41.5z" />
    <glyph glyph-name="parenright" unicode=")" horiz-adv-x="651" 
d="M139 1380c71.333 0 133.001 -27.3311 185.001 -81.998s90.5 -127 115.5 -217s37.5 -192.333 37.5 -307c0 -136 -22.333 -281.667 -67 -437s-100.667 -295.5 -168 -420.5s-143.666 -229 -228.999 -312s-166 -124.5 -242 -124.5c5.33301 0 21.666 16.167 48.999 48.5
s61 76.166 101 131.499s82.167 125 126.5 209s85.5 172.667 123.5 266s69.5 199.333 94.5 318s37.5 235.334 37.5 350.001c0 84.667 -6.66699 165.167 -20 241.5s-29.333 137.666 -48 183.999s-36.834 83.166 -54.501 110.499s-31.5 41 -41.5 41z" />
    <glyph glyph-name="asterisk" unicode="*" horiz-adv-x="823" 
d="M524 1274l-13.999 -24.999l-6 -6h61c54 0 93.667 0.166992 119 0.5s51 1.83301 77 4.5s42.667 6.66699 50 12c-4 -24.667 -11.667 -45.834 -23 -63.501s-24.166 -31.334 -38.499 -41.001s-32.5 -17.167 -54.5 -22.5s-42.5 -8.83301 -61.5 -10.5s-41.833 -2.5 -68.5 -2.5
h-59l8 -12l67.5 -114.5c19.667 -33.667 37.167 -61.667 52.5 -84s27.333 -35.5 36 -39.5c-22.667 -8 -43.334 -12 -62.001 -12s-36.667 4 -54 12s-31.666 16.667 -42.999 26s-24.333 24.833 -39 46.5s-25.5 38.334 -32.5 50.001s-18.167 31.834 -33.5 60.501l-9 24l-10 -24
l-48.5 -83.5c-15 -25.667 -27.833 -48.5 -38.5 -68.5s-19 -37.5 -25 -52.5s-9 -26.833 -9 -35.5v-4c-39.333 32 -59 70.333 -59 115c0 20 4.5 42.833 13.5 68.5s18.167 47.167 27.5 64.5s23 41 41 71c-26 1.33301 -63 2 -111 2c-100 0 -158 -6 -174 -18
c3.33301 19.333 9.16602 36.5 17.499 51.5s17.166 27.333 26.499 37s22.166 17.834 38.499 24.501s30.666 11.667 42.999 15s29.333 5.83301 51 7.5s38.834 2.66699 51.501 3s31 0.5 55 0.5h14l-4 6c-82 149.333 -134.667 228.666 -158 237.999c23.333 8 43.333 12 60 12
c21.333 0 41.333 -4.66699 60 -14s36.834 -24.333 54.501 -45s31.5 -38.5 41.5 -53.5s24 -37.5 42 -67.5l9 -22l8 22c84.667 138 127 221.333 127 250v4c39.333 -32 59 -69.667 59 -113c0 -18.667 -4.33301 -40.334 -13 -65.001s-17.167 -45 -25.5 -61
s-20.833 -38.667 -37.5 -68z" />
    <glyph glyph-name="plus" unicode="+" horiz-adv-x="964" 
d="M535 139h-131.998c6 0 9 106 9 318c-32.667 0 -69.334 0.166992 -110.001 0.5s-75.334 0.666016 -104.001 0.999023s-44.667 0.5 -48 0.5c-19.333 0 -31.666 -0.666992 -36.999 -2v131c0 -5.33301 99.667 -8 299 -8v26v102c0 32 -0.333008 60.333 -1 85
s-2.33398 45.334 -5.00098 62.001s-6.33398 28 -11.001 34c31.333 6.66699 53.333 10 66 10c21.333 0 38 -4.5 50 -13.5s19.5 -21 22.5 -36s5 -32.5 6 -52.5s0.833008 -40.667 -0.5 -62c0 -2.66699 -0.333008 -21.834 -1 -57.501s-1 -68.167 -1 -97.5h43h102
c32 0 60.333 0.333008 85 1s45.5 2.33398 62.5 5.00098s28.5 6 34.5 10c-3.33301 -20.667 -9.16602 -38.667 -17.499 -54s-18.333 -27.833 -30 -37.5s-25 -18 -40 -25s-31 -11.833 -48 -14.5s-34.833 -4.83398 -53.5 -6.50098s-37.5 -2.16699 -56.5 -1.5
s-38.167 0.666992 -57.5 0h-26c-2 -66 -3 -159.667 -3 -281c0 -19.333 1 -31.666 3 -36.999z" />
    <glyph glyph-name="comma" unicode="," horiz-adv-x="428" 
d="M90 68c-1.33301 0 -2.00098 6.66602 -2.00098 19.999c0 32.667 12.167 58.334 36.5 77.001s53.833 28 88.5 28c24.667 0 46.834 -10.833 66.501 -32.5s29.5 -48.5 29.5 -80.5c0 -55.333 -28.167 -118 -84.5 -188s-137.833 -135 -244.5 -195l-27 49
c70 61.333 118.167 109.833 144.5 145.5s39.5 75.167 39.5 118.5c0 38.667 -15.667 58 -47 58z" />
    <glyph glyph-name="hyphen" unicode="-" horiz-adv-x="618" 
d="M45 436l26.9961 131c-0.666992 -2.66699 12.166 -4.5 38.499 -5.5s51.833 -1.66699 76.5 -2s59.334 -0.5 104.001 -0.5h102.5c32.333 0 60.833 0.333008 85.5 1s45.667 2.33398 63 5.00098s29.333 6 36 10c-7.33301 -20.667 -16.666 -38.667 -27.999 -54
s-23.666 -27.833 -36.999 -37.5s-28.166 -18 -44.499 -25s-33.333 -11.833 -51 -14.5s-36 -4.83398 -55 -6.50098s-38 -2.16699 -57 -1.5s-38.167 0.666992 -57.5 0c-18 0 -48 0.333008 -90 1s-67.333 1 -76 1c-19.333 0 -31.666 -0.666992 -36.999 -2z" />
    <glyph glyph-name="period" unicode="." horiz-adv-x="432" 
d="M313 84c0 -30.667 -10.667 -56.834 -32 -78.501s-46.666 -32.5 -75.999 -32.5c-30.667 0 -56.834 10.833 -78.501 32.5s-32.5 47.834 -32.5 78.501c0 30 10.833 55.667 32.5 77s47.834 32 78.501 32c29.333 0 54.666 -10.833 75.999 -32.5s32 -47.167 32 -76.5z" />
    <glyph glyph-name="slash" unicode="/" horiz-adv-x="729" 
d="M150 -500h-162c164.667 486 297.667 900.5 399 1243.5s152 542.167 152 597.5c5.33301 9.33301 23.5 20 54.5 32s59.833 18 86.5 18c28.667 0 43 -18 43 -54c0 -16 -3 -34.833 -9 -56.5s-13.5 -44.667 -22.5 -69s-14.167 -38.5 -15.5 -42.5l-290 -891
c-132 -410.667 -210.667 -670 -236 -778z" />
    <glyph glyph-name="zero" unicode="0" horiz-adv-x="1142" 
d="M82 371c0 -134 29.834 -234.167 89.501 -300.5s137.834 -99.5 234.501 -99.5c75.333 0 147.166 15 215.499 45s128.833 71.5 181.5 124.5s98.667 114.5 138 184.5s69.166 146.333 89.499 229s30.5 167 30.5 253c0 130.667 -30.167 229.5 -90.5 296.5
s-141.5 100.5 -243.5 100.5c-120 0 -229.5 -37.5 -328.5 -112.5s-176.5 -176.167 -232.5 -303.5s-84 -266.333 -84 -417zM489.001 78c-69.333 0 -123.169 33.8311 -161.502 101.498s-57.5 158.167 -57.5 271.5c0 108 16 210 48 306s75.833 173.333 131.5 232
s115.5 88 179.5 88c73.333 0 131.5 -33 174.5 -99s64.5 -154.333 64.5 -265c0 -85.333 -11.5 -167.666 -34.5 -246.999s-52.667 -146.666 -89 -201.999s-77.166 -99.833 -122.499 -133.5s-89.666 -51.167 -132.999 -52.5z" />
    <glyph glyph-name="one" unicode="1" horiz-adv-x="634" 
d="M350 0h-196l2 8l168 864c7.33301 35.333 9.83301 65 7.5 89s-8.5 41 -18.5 51l-166 -54l-30 99l368 151h29l35 -86l-37 -157l-147 -811c-10 -46 -15 -97.333 -15 -154z" />
    <glyph glyph-name="two" unicode="2" horiz-adv-x="897" 
d="M14 0l555.004 -0.00292969c38.667 0 71.5 5.16699 98.5 15.5s46.667 24 59 41s21 33.167 26 48.5s7.5 31 7.5 47c0 1.33301 -0.333008 3.33301 -1 6s-1 4.66699 -1 6c-14.667 -12.667 -33.5 -20 -56.5 -22s-84.167 -3 -183.5 -3h-305l27 18l71.5 49.5
c30.333 21 64.5 47 102.5 78l117 100c40 35.667 79 75.334 117 119.001s72 87.334 102 131.001s54.167 90.334 72.5 140.001s27.5 97.5 27.5 143.5c0 36.667 -5.16699 71 -15.5 103s-26.5 62 -48.5 90s-53.333 50.167 -94 66.5s-88.334 24.5 -143.001 24.5
c-92.667 0 -172.834 -18.833 -240.501 -56.5s-101.5 -84.834 -101.5 -141.501c0 -22 7.16699 -38.833 21.5 -50.5s32.5 -17.5 54.5 -17.5c21.333 0 44.333 6.66699 69 20c0 37.333 16.333 71 49 101s70.334 45 113.001 45c47.333 0 81.666 -20.167 102.999 -60.5
s32 -89.166 32 -146.499c0 -60.667 -15.333 -125.167 -46 -193.5s-68.834 -131 -114.501 -188s-95.167 -112.167 -148.5 -165.5s-102.833 -98.5 -148.5 -135.5s-83.834 -66.5 -114.501 -88.5l-46 -34z" />
    <glyph glyph-name="three" unicode="3" horiz-adv-x="880" 
d="M-2 -170c-58.667 0 -88.001 30.001 -88.001 90.001c21.333 -2.66699 38.333 -4 51 -4c47.333 0 94.5 3.83301 141.5 11.5s96 22.167 147 43.5s95.667 48.166 134 80.499s70 75.5 95 129.5s37.5 115.333 37.5 184c0 33.333 -4.33301 62.333 -13 87s-19 44 -31 58
s-28.333 26.167 -49 36.5s-38.834 17.5 -54.501 21.5s-35.5 8 -59.5 12l35 55c76.667 32 137.834 78 183.501 138s68.5 123.333 68.5 190c0 39.333 -10.667 72.333 -32 99s-55.666 40 -102.999 40c-42 0 -78.333 -13 -109 -39s-48.334 -61 -53.001 -105
c-24.667 -14.667 -49.334 -22 -74.001 -22c-20.667 0 -37.667 6.16699 -51 18.5s-20 27.833 -20 46.5c0 56 33.333 103.833 100 143.5s143.667 59.5 231 59.5c55.333 0 103.833 -6.66699 145.5 -20s74 -31.333 97 -54s40 -46.834 51 -72.501s16.5 -53.167 16.5 -82.5
c0 -127.333 -102.667 -238.666 -308 -333.999c86 -13.333 148.167 -43 186.5 -89s57.5 -101.667 57.5 -167c0 -64 -10.833 -123.5 -32.5 -178.5s-51.167 -102.333 -88.5 -142s-80.166 -74.834 -128.499 -105.501s-100.166 -55.167 -155.499 -73.5
s-110.5 -32.166 -165.5 -41.499s-109.167 -14 -162.5 -14z" />
    <glyph glyph-name="four" unicode="4" horiz-adv-x="962" 
d="M41 203l-21.002 30.001c43.333 86 116.833 201.833 220.5 347.5s207.5 280 311.5 403s178 197.833 222 224.5h121l-21 -86l-34 -157l-40 -205c-27.333 -136 -53.666 -275.333 -78.999 -418c72.667 0 122.834 1.33301 150.501 4s47.834 9.66699 60.501 21
c0.666992 -19.333 -0.833008 -36.833 -4.5 -52.5s-11.334 -32.667 -23.001 -51s-31.167 -32.833 -58.5 -43.5s-61.666 -16.334 -102.999 -17.001h-47c-2.66699 -13.333 -8.83398 -46.333 -18.501 -99s-16.5 -92 -20.5 -118c-9.33301 -46.667 -14 -98 -14 -154h-197l3 8
l69 363h-477zM687.998 1004c-50 -47.333 -126.833 -142.832 -230.5 -286.499s-184.5 -268.834 -242.5 -375.501h332l98 506c6 30.667 20.333 82.667 43 156z" />
    <glyph glyph-name="five" unicode="5" horiz-adv-x="897" 
d="M315 1178l301 0.00390625c100 0 161.667 1 185 3s42.333 9 57 21c0 -18.667 -1.83301 -35.834 -5.5 -51.501s-11.167 -32.834 -22.5 -51.501s-30.666 -33.5 -57.999 -44.5s-61.333 -16.5 -102 -16.5h-310l-53 -247c36 0 71.833 -3.66699 107.5 -11
s71.834 -20.333 108.501 -39s69 -41.667 97 -69s50.833 -62.833 68.5 -106.5s26.5 -92.834 26.5 -147.501c0 -80.667 -13.667 -154.667 -41 -222s-63 -123 -107 -167s-95 -81.333 -153 -112s-116.833 -52.834 -176.5 -66.501s-119.167 -20.5 -178.5 -20.5
c-20 0 -36.5 4 -49.5 12s-21.667 18.667 -26 32s-6.83301 22.666 -7.5 27.999s-1 11.333 -1 18c20 -2.66699 36.667 -4 50 -4c44 0 87.333 4.83301 130 14.5s85.167 26.334 127.5 50.001s79.5 53.167 111.5 88.5s58 80.833 78 136.5s30 118.167 30 187.5
c0 45.333 -6.33301 86 -19 122s-28.334 64.667 -47.001 86s-40 39 -64 53s-46.333 23.5 -67 28.5s-40.334 7.5 -59.001 7.5c-17.333 0 -32.333 -1 -45 -3l-19 -3l-12 33l109 434z" />
    <glyph glyph-name="six" unicode="6" horiz-adv-x="1052" 
d="M797 1368c-62 0 -125.829 -13.1689 -191.496 -39.502s-129.834 -66.5 -192.501 -120.5s-118.834 -118 -168.501 -192s-89.5 -162.833 -119.5 -266.5s-45 -214.167 -45 -331.5c0 -144 29.833 -254.167 89.5 -330.5s141.167 -114.5 244.5 -114.5
c62.667 0 121.5 10.833 176.5 32.5s102.5 51.167 142.5 88.5s74.333 80.833 103 130.5s50.167 103 64.5 160s21.5 115.167 21.5 174.5c0 96 -25.667 168.167 -77 216.5s-116 72.5 -194 72.5c-59.333 0 -119.5 -13.667 -180.5 -41s-112.167 -63 -153.5 -107
c39.333 172 105 305.167 197 399.5s189 141.5 291 141.5c44 0 89.167 -10 135.5 -30s78.166 -45.333 95.499 -76c11.333 22.667 17 46.334 17 71.001c0 34.667 -14.833 64.834 -44.5 90.501s-63.334 44 -101.001 55s-74.5 16.5 -110.5 16.5zM457.004 77.998
c-33.333 0 -62.167 8.83203 -86.5 26.499s-42.833 42 -55.5 73s-21.834 64.333 -27.501 100s-8.5 74.834 -8.5 117.501c0 74.667 8 154.667 24 240c82.667 69.333 158.334 104 227.001 104c128.667 0 193 -73.667 193 -221c0 -131.333 -25.833 -237.5 -77.5 -318.5
s-114.5 -121.5 -188.5 -121.5z" />
    <glyph glyph-name="seven" unicode="7" horiz-adv-x="817" 
d="M170 -49l722.998 1192l-27 35h-475h-79c-22 0 -41 0.166992 -57 0.5s-29.333 0.833008 -40 1.5s-19.5 2 -26.5 4s-12.333 4.33301 -16 7s-7.16699 6.33398 -10.5 11.001c-6.66699 -15.333 -11.667 -30.333 -15 -45s-2.83301 -32.334 1.5 -53.001
s14.166 -38.334 29.499 -53.001s41.833 -27.334 79.5 -38.001s84.834 -16 141.501 -16c62.667 0 115 2.16699 157 6.5s68.333 8.83301 79 13.5l16 7l-563 -944c-44.667 -80 -79.167 -134 -103.5 -162s-47.833 -46.333 -70.5 -55
c12.667 -10.667 27.834 -18.834 45.501 -24.501s38.167 -8 61.5 -7s48.333 11.5 75 31.5s51.334 49.333 74.001 88z" />
    <glyph glyph-name="eight" unicode="8" horiz-adv-x="958" 
d="M375 -29c-40 0 -78.6621 5.33203 -115.995 15.999s-72 26.834 -104 48.501s-57.667 51.167 -77 88.5s-29 80 -29 128c0 47.333 8.33301 93.333 25 138s37.667 83.334 63 116.001s53.666 62.667 84.999 90s61.166 49 89.499 65s54.166 27.667 77.499 35
c-48.667 45.333 -87.834 95 -117.501 149s-44.5 107.667 -44.5 161c0 111.333 40.667 199.5 122 264.5s184.666 97.5 309.999 97.5c88 0 157.833 -22.333 209.5 -67s77.5 -101.667 77.5 -171c0 -33.333 -5.66699 -65.666 -17 -96.999s-26 -58.333 -44 -81
s-38.167 -44.667 -60.5 -66s-44.666 -38.833 -66.999 -52.5l-62.5 -39c-19.333 -12.333 -35.333 -21.166 -48 -26.499c47.333 -44 85.666 -82.5 114.999 -115.5s55.833 -72.833 79.5 -119.5s35.5 -92.667 35.5 -138c0 -66.667 -14.5 -127.334 -43.5 -182.001
s-67.333 -99.334 -115 -134.001s-101 -61.334 -160 -80.001s-120.167 -28 -183.5 -28zM446.005 644.999c-17.333 -8 -34.332 -17.167 -50.999 -27.5s-37.334 -26 -62.001 -47s-46 -43.667 -64 -68s-33.5 -55 -46.5 -92s-19.5 -76.167 -19.5 -117.5
c0 -62.667 16.333 -113.5 49 -152.5s79 -58.5 139 -58.5c78.667 0 144.167 26.333 196.5 79s78.5 109.667 78.5 171c0 52.667 -18.5 102.5 -55.5 149.5s-91.833 101.5 -164.5 163.5zM426.006 1096c-1.33301 -7.33301 -2.00195 -17.001 -2.00195 -29.001
c0 -41.333 14.333 -82 43 -122s69.667 -83.333 123 -130l35 21c18.667 11.333 33.667 20.833 45 28.5s25.833 19.834 43.5 36.501s31.667 33.667 42 51s19.5 39.5 27.5 66.5s12 56.167 12 87.5c0 47.333 -13.167 85.833 -39.5 115.5s-67.166 44.5 -122.499 44.5
s-101.166 -14.833 -137.499 -44.5s-59.5 -71.5 -69.5 -125.5z" />
    <glyph glyph-name="nine" unicode="9" horiz-adv-x="1052" 
d="M666 1204c-86 0 -163.502 -16.001 -232.502 -48.001s-125.167 -75.5 -168.5 -130.5s-76.5 -117.167 -99.5 -186.5s-34.5 -143 -34.5 -221c0 -95.333 25.667 -167.166 77 -215.499s115.666 -72.5 192.999 -72.5c59.333 0 119.5 13.5 180.5 40.5s112.167 62.5 153.5 106.5
c-20 -87.333 -47.833 -165.833 -83.5 -235.5s-75.5 -126.334 -119.5 -170.001s-90.333 -77 -139 -100s-97 -34.5 -145 -34.5c-44 0 -89.333 9.83301 -136 29.5s-78.667 45.167 -96 76.5c-10.667 -24 -16 -48 -16 -72c0 -34 14.833 -63.833 44.5 -89.5
s63.334 -44 101.001 -55s74.5 -16.5 110.5 -16.5c62 0 125.833 13.167 191.5 39.5s129.834 66.5 192.501 120.5s118.834 118 168.501 192s89.5 162.833 119.5 266.5s45 214.167 45 331.5c0 58.667 -5.5 113.334 -16.5 164.001s-27.833 97.5 -50.5 140.5s-54.5 77 -95.5 102
s-89.167 37.5 -144.5 37.5zM595.998 1100c61.333 0 106 -27.832 134 -83.499s42 -128.834 42 -219.501v-45c0 -13.333 -0.333008 -27 -1 -41s-1.66699 -28.667 -3 -44s-3.5 -33.166 -6.5 -53.499s-6.83301 -43.833 -11.5 -70.5c-82 -70 -158 -105 -228 -105
c-128 0 -192 73.667 -192 221c0 131.333 25.833 237.666 77.5 318.999s114.5 122 188.5 122z" />
    <glyph glyph-name="colon" unicode=":" horiz-adv-x="528" 
d="M319 84c0 -30.667 -10.667 -56.834 -32 -78.501s-46.666 -32.5 -75.999 -32.5c-30.667 0 -56.834 10.833 -78.501 32.5s-32.5 47.834 -32.5 78.501c0 29.333 10.833 54.833 32.5 76.5s47.834 32.5 78.501 32.5c29.333 0 54.666 -10.833 75.999 -32.5s32 -47.167 32 -76.5
zM436 676c0 -30.667 -10.667 -56.834 -32 -78.501s-46.666 -32.5 -75.999 -32.5c-30.667 0 -56.834 10.833 -78.501 32.5s-32.5 47.834 -32.5 78.501c0 29.333 10.833 54.666 32.5 75.999s47.834 32 78.501 32c29.333 0 54.666 -10.667 75.999 -32s32 -46.666 32 -75.999z
" />
    <glyph glyph-name="semicolon" unicode=";" horiz-adv-x="528" 
d="M436 676c0 -30.667 -10.667 -56.834 -32 -78.501s-46.666 -32.5 -75.999 -32.5c-30.667 0 -56.834 10.833 -78.501 32.5s-32.5 47.834 -32.5 78.501c0 29.333 10.833 54.666 32.5 75.999s47.834 32 78.501 32c29.333 0 54.666 -10.667 75.999 -32s32 -46.666 32 -75.999z
M98 68c-1.33301 0 -2.00098 6.66602 -2.00098 19.999c0 32.667 12.167 58.334 36.5 77.001s53.833 28 88.5 28c24.667 0 46.834 -10.833 66.501 -32.5s29.5 -48.5 29.5 -80.5c0 -55.333 -28.167 -118 -84.5 -188s-137.833 -135 -244.5 -195l-27 49
c70 61.333 118.167 109.833 144.5 145.5s39.5 75.167 39.5 118.5c0 38.667 -15.667 58 -47 58z" />
    <glyph glyph-name="less" unicode="&#x3c;" horiz-adv-x="755" 
d="M268 506l26 21.001c17.333 14 31.333 28 42 42l227 303l15 18c10 12 23 25 39 39s30 23 42 27h-30c-40 0 -83.5 -7.66699 -130.5 -23s-83.5 -37.666 -109.5 -66.999l-268 -319l-41 -41l45 -45l272 -322c24.667 -28.667 59.5 -50.5 104.5 -65.5s87.5 -22.5 127.5 -22.5h30
c-14 6 -28.333 15.167 -43 27.5s-26 23.166 -34 32.499l-11 14l-231 313c-12.667 15.333 -28 30.666 -46 45.999z" />
    <glyph glyph-name="equal" unicode="=" horiz-adv-x="983" 
d="M113 600l-0.000976562 131c0 -5.33301 155.667 -8 467 -8h102c32 0 60.333 0.333008 85 1s45.5 2.33398 62.5 5.00098s28.5 6 34.5 10c-3.33301 -20.667 -9.16602 -38.667 -17.499 -54s-18.333 -27.833 -30 -37.5s-25 -18 -40 -25s-31 -11.833 -48 -14.5
s-34.833 -4.83398 -53.5 -6.50098s-37.5 -2.16699 -56.5 -1.5s-38.167 0.666992 -57.5 0c-18 0 -88.833 0.333008 -212.5 1s-189.834 1 -198.501 1c-19.333 0 -31.666 -0.666992 -36.999 -2zM112.999 293l-0.000976562 131c0 -5.33301 155.667 -8 467 -8h102
c32 0 60.333 0.333008 85 1s45.5 2.33398 62.5 5.00098s28.5 6 34.5 10c-3.33301 -20.667 -9.16602 -38.667 -17.499 -54s-18.333 -27.833 -30 -37.5s-25 -18 -40 -25s-31 -11.833 -48 -14.5s-34.833 -4.83398 -53.5 -6.50098s-37.5 -2.16699 -56.5 -1.5
s-38.167 0.666992 -57.5 0c-18 0 -88.833 0.333008 -212.5 1s-189.834 1 -198.501 1c-19.333 0 -31.666 -0.666992 -36.999 -2z" />
    <glyph glyph-name="greater" unicode="&#x3e;" horiz-adv-x="755" 
d="M473 506l-26.001 21.001c-17.333 14 -31 28 -41 42l-228 303l-15 18c-10 12 -23 25 -39 39s-30 23 -42 27h31c39.333 0 82.5 -7.66699 129.5 -23s83.5 -37.666 109.5 -66.999l271 -319c6.66699 -8.66699 15 -17.667 25 -27l14 -14l-46 -45l-272 -322
c-24 -28.667 -58.667 -50.5 -104 -65.5s-87.666 -22.5 -126.999 -22.5h-31c14 6 28.333 15.167 43 27.5s25.667 23.166 33 32.499l12 14l231 313c12.667 15.333 27.667 30.666 45 45.999z" />
    <glyph glyph-name="question" unicode="?" horiz-adv-x="841" 
d="M272 334l-44.9971 -23c-73.333 38.667 -110 89.334 -110 152.001c0 13.333 0.666992 23.666 2 30.999c8.66699 44 25.334 87.667 50.001 131s53.334 82.666 86.001 117.999s67.667 70.666 105 105.999l109.5 103.5c35.667 33.667 68.167 67.5 97.5 101.5
s52.833 70.833 70.5 110.5s26.5 79.5 26.5 119.5c0 104 -59 156 -177 156c-40.667 0 -79.167 -15.167 -115.5 -45.5s-54.5 -71.833 -54.5 -124.5c0 -4.66699 0.333008 -10.667 1 -18s1 -13 1 -17c-24 -28.667 -56 -43 -96 -43c-30.667 0 -53.334 8.33301 -68.001 25
s-22 36.334 -22 59.001c0 54 19.167 102.167 57.5 144.5s86.166 73.833 143.499 94.5s117.333 31 180 31c101.333 0 179.5 -28.333 234.5 -85s82.5 -130.667 82.5 -222c0 -50.667 -10.833 -100.667 -32.5 -150s-49.834 -94.5 -84.501 -135.5s-73 -81.333 -115 -121
l-125.5 -114c-41.667 -36.333 -79.834 -71.5 -114.501 -105.5s-62.834 -69.167 -84.501 -105.5s-32.5 -71.166 -32.5 -104.499c0 -28 10 -51 30 -69zM291.003 84c0 -30.667 -10.667 -56.834 -32 -78.501s-47 -32.5 -77 -32.5c-30.667 0 -56.667 10.833 -78 32.5
s-32 47.834 -32 78.501c0 29.333 10.667 54.833 32 76.5s47.333 32.5 78 32.5c30 0 55.667 -10.833 77 -32.5s32 -47.167 32 -76.5z" />
    <glyph glyph-name="at" unicode="@" horiz-adv-x="1847" 
d="M1194 -53l2.00488 0.0078125c-81.333 0 -137.833 17.5 -169.5 52.5s-47.5 82.833 -47.5 143.5c0 31.333 5.33301 65.666 16 102.999c-13.333 -29.333 -30 -58.833 -50 -88.5s-43 -58.834 -69 -87.501s-55.333 -52 -88 -70s-64.667 -27 -96 -27
c-47.333 0 -88.333 16.333 -123 49s-60.334 74 -77.001 124s-25 104.333 -25 163c0 100 17.167 195.333 51.5 286s80.666 168.667 138.999 234s128 117.166 209 155.499s166.167 57.5 255.5 57.5c64 0 129 -10 195 -30c-23.333 -62.667 -53.5 -187.834 -90.5 -375.501
s-62.167 -345.834 -75.5 -474.501c0 -41.333 6.33301 -71.5 19 -90.5s37.667 -28.5 75 -28.5c34.667 0 71.667 12.5 111 37.5s77.5 60.833 114.5 107.5s67.667 109.167 92 187.5s36.5 164.833 36.5 259.5c0 108.667 -25.833 208.5 -77.5 299.5
s-123.334 163.167 -215.001 216.5s-193.5 80 -305.5 80c-102 0 -199.5 -22.5 -292.5 -67.5s-173.167 -105.667 -240.5 -182s-120.833 -167.666 -160.5 -273.999s-59.5 -218.5 -59.5 -336.5c0 -169.333 43 -311.5 129 -426.5s202 -185.833 348 -212.5
c9.33301 -2.66699 25.666 -4 48.999 -4c39.333 0 66 4 80 12c-28.667 -80.667 -95 -121 -199 -121c-78.667 0 -153.167 20.833 -223.5 62.5s-129.833 96.5 -178.5 164.5s-87.334 146.167 -116.001 234.5s-43 178.166 -43 269.499c0 133.333 26.167 261.833 78.5 385.5
s121.666 230 207.999 319s187.333 160.167 303 213.5s234.5 80 356.5 80c102 0 196.333 -17 283 -51s159.667 -80.833 219 -140.5s105.666 -130.834 138.999 -213.501s50 -171.667 50 -267s-11.5 -183.833 -34.5 -265.5s-53.167 -150.334 -90.5 -206.001
s-79.666 -103.334 -126.999 -143.001s-95.166 -68.667 -143.499 -87s-95.5 -27.5 -141.5 -27.5zM989.005 317.008l134.999 627.001c-8 1.33301 -19.333 2 -34 2c-120 0 -222.5 -55.333 -307.5 -166s-127.5 -255.334 -127.5 -434.001c0 -150 41.667 -225 125 -225
c32.667 0 68.334 20.667 107.001 62s72.667 86 102 134z" />
    <glyph glyph-name="A" unicode="A" 
d="M35 0l-146.001 0.00292969l678 1221c15.333 31.333 32 57.666 50 78.999s37.333 37.5 58 48.5s38 19 52 24s32.333 9.5 55 13.5s37.667 7 45 9c0 -44.667 5 -102.667 15 -174l151 -1057c4 -52.667 16.333 -107.334 37 -164.001h-231
c0.666992 6.66699 0.5 18.167 -0.5 34.5s-1.5 28.166 -1.5 35.499c-29.333 209.333 -48.666 343 -57.999 401h-456l-238 -444c-2.66699 -5.33301 -6 -14.333 -10 -27zM640.999 1153l-303 -584.001h391c-8 49.333 -23.5 155.333 -46.5 318s-36.833 251.334 -41.5 266.001z
" />
    <glyph glyph-name="B" unicode="B" horiz-adv-x="1075" 
d="M94 0l29 139.003l180 946c9.33301 54 14 96.333 14 127c0 18 -1.33301 33.667 -4 47s-5.83398 23.5 -9.50098 30.5s-7.16699 14.833 -10.5 23.5l20 35l357 10h20c54 0 102 -7.33301 144 -22s75.333 -34.334 100 -59.001s43.167 -51.834 55.5 -81.501
s18.5 -60.834 18.5 -93.501c0 -72 -22.333 -134.333 -67 -187s-107 -101 -187 -145c64 -21.333 116.833 -56.833 158.5 -106.5s62.5 -111.167 62.5 -184.5c0 -75.333 -14.667 -143.5 -44 -204.5s-69.666 -111.333 -120.999 -151s-111 -70.167 -179 -91.5s-141 -32 -219 -32
h-318zM514 698.003l-84 3.99902c-47.333 -234 -84.333 -435.333 -111 -604h130c49.333 0 93.833 7.16699 133.5 21.5s71.834 33 96.501 56s45.167 49.667 61.5 80s27.666 60.333 33.999 90s9.5 59.834 9.5 90.501c0 82 -24.5 145.333 -73.5 190s-114.5 68.667 -196.5 72z
M557 797.002c46 0 89.667 -4.33398 131 -13.001c36 28 68.167 66.167 96.5 114.5s42.5 104.5 42.5 168.5c0 56.667 -17 100.834 -51 132.501s-78.333 46.834 -133 45.501l-98 -2c-32 -136.667 -63.333 -285.334 -94 -446.001h106z" />
    <glyph glyph-name="C" unicode="C" horiz-adv-x="1257" 
d="M1077 311c1.33301 -2.66699 2.00391 -8.66309 2.00391 -17.9961c0 -61.333 -25.667 -116.833 -77 -166.5s-115.833 -87.667 -193.5 -114s-158.834 -39.5 -243.501 -39.5c-76.667 0 -144.5 13.167 -203.5 39.5s-106.5 63 -142.5 110s-63 101.333 -81 163
s-27 129.5 -27 203.5c0 131.333 20.833 252.666 62.5 363.999s98 204.5 169 279.5s154 133.667 249 176s195.5 63.5 301.5 63.5c85.333 0 162.833 -16.667 232.5 -50s111.5 -73.333 125.5 -120c-4.66699 -24 -24.167 -57.5 -58.5 -100.5s-68.5 -71.5 -102.5 -85.5l-29 26
c1.33301 4.66699 2 11 2 19c0 17.333 -4 36.166 -12 56.499s-19.833 40.666 -35.5 60.999s-38.5 37.166 -68.5 50.499s-64.333 20 -103 20c-82 0 -156.333 -21.167 -223 -63.5s-120.334 -97.5 -161.001 -165.5s-71.834 -142.333 -93.501 -223s-32.5 -162 -32.5 -244
c0 -62.667 6.66699 -120 20 -172s33.666 -98.333 60.999 -139s63.5 -72.334 108.5 -95.001s97.167 -34 156.5 -34c65.333 0 136.5 17.333 213.5 52s138.167 83.334 183.5 146.001z" />
    <glyph glyph-name="D" unicode="D" horiz-adv-x="1337" 
d="M510 0h-425.997l11 50c4 18 7.16699 33.333 9.5 46l6 31.5c1.66699 8.33301 2.5 12.166 2.5 11.499l176 930c12 67.333 18 114.333 18 141c0 42.667 -8 77 -24 103l22 35l457 10c69.333 0 134.166 -11 194.499 -33s113.5 -53.833 159.5 -95.5
s82.167 -95.167 108.5 -160.5s39.5 -139 39.5 -221c0 -96.667 -13.333 -189.167 -40 -277.5s-63.834 -166.666 -111.501 -234.999s-102.834 -128 -165.501 -179s-131.5 -89.833 -206.5 -116.5s-151.833 -40 -230.5 -40zM555.003 109c52 0 106.168 16.501 162.501 49.501
s108.166 77.5 155.499 133.5s86.333 126.5 117 211.5s46 174.5 46 268.5c0 137.333 -34.667 250.166 -104 338.499s-159.333 132.5 -270 132.5h-15l-115 -4c-3.33301 -20 -36.333 -186.667 -99 -500s-102.667 -523.333 -120 -630h242z" />
    <glyph glyph-name="E" unicode="E" horiz-adv-x="1003" 
d="M291 1085c10 49.333 15.3281 90.5 15.9951 123.5s-1.83301 55 -7.5 66s-10.5 23.833 -14.5 38.5l18 35h301l346 6c17.333 -27.333 22.5 -68.833 15.5 -124.5s-18.167 -90.167 -33.5 -103.5h-39c0 31.333 -17.667 57.5 -53 78.5s-80.333 32.5 -135 34.5l-170 6
c-35.333 -136 -71.666 -302.667 -108.999 -500h315c18.667 0 34.5 2.16699 47.5 6.5s21.5 8.83301 25.5 13.5l5 7l-2 -41c-4 -22 -11.833 -40.667 -23.5 -56s-23.5 -26.666 -35.5 -33.999s-28.333 -12.833 -49 -16.5s-36.334 -5.66699 -47.001 -6s-26.667 -0.5 -48 -0.5
c-1.33301 0 -17.666 0.333008 -48.999 1s-60.833 1.33398 -88.5 2.00098s-53.5 0.666992 -77.5 0c-36 -194.667 -64 -354.667 -84 -480v-12h381c18.667 0 34.834 2.16699 48.501 6.5s22.834 8.83301 27.501 13.5l6 7l-4 -41c-4 -22 -11.833 -40.667 -23.5 -56
s-23.667 -26.833 -36 -34.5s-28.666 -13.334 -48.999 -17.001s-36.166 -5.83398 -47.499 -6.50098s-27 -1 -47 -1h-487l27 139z" />
    <glyph glyph-name="F" unicode="F" horiz-adv-x="962" 
d="M303 0l-219.001 -0.00292969l27 139l180 946c10 49.333 15.333 90.5 16 123.5s-1.83301 55 -7.5 66s-10.5 23.833 -14.5 38.5l18 35h303l346 6c16.667 -26.667 21.667 -68.167 15 -124.5s-17.667 -90.833 -33 -103.5h-39c0 31.333 -17.667 57.5 -53 78.5
s-80.333 32.5 -135 34.5l-172 6c-35.333 -136 -71.666 -302.667 -108.999 -500h315c18.667 0 34.5 2.16699 47.5 6.5s21.5 8.83301 25.5 13.5l5 7l-2 -41c-4 -22 -11.833 -40.667 -23.5 -56s-23.5 -26.666 -35.5 -33.999s-28.333 -12.833 -49 -16.5
s-36.334 -5.66699 -47.001 -6s-26.667 -0.5 -48 -0.5c-1.33301 0 -17.666 0.333008 -48.999 1s-60.833 1.33398 -88.5 2.00098s-53.5 0.666992 -77.5 0c-36 -194.667 -64 -354.667 -84 -480c-2 -4 -5 -23.167 -9 -57.5s-5 -62.166 -3 -83.499z" />
    <glyph glyph-name="G" unicode="G" horiz-adv-x="1308" 
d="M893 1372l1.99805 0.00390625c85.333 0 162.833 -16.667 232.5 -50s111.5 -73.333 125.5 -120c-4.66699 -24 -24.167 -57.5 -58.5 -100.5s-68.5 -71.5 -102.5 -85.5l-29 26c1.33301 4.66699 2 11 2 19c0 17.333 -4 36.166 -12 56.499s-20 40.666 -36 60.999
s-39 37.166 -69 50.499s-64.667 20 -104 20c-50 0 -99.333 -9.33301 -148 -28s-94.834 -47.167 -138.501 -85.5s-82.167 -84.5 -115.5 -138.5s-59.666 -119.333 -78.999 -196s-29 -159.334 -29 -248.001c0 -142.667 32.833 -253.5 98.5 -332.5s146.167 -118.5 241.5 -118.5
c27.333 0 66 5.33301 116 16l74 15l31 158c9.33301 51.333 14 93 14 125c0 24 -2.66699 45 -8 63s-10 30.333 -14 37l18 35l19 7c12.667 4 31 8.33301 55 13s47.333 7 70 7c40.667 0 77.334 -8.33301 110.001 -25c-13.333 -52.667 -32.166 -132.167 -56.499 -238.5
s-41.5 -196.833 -51.5 -271.5c-26.667 -2 -68.334 -9 -125.001 -21s-119.167 -23.167 -187.5 -33.5s-136.166 -15.5 -203.499 -15.5c-124 0 -225.667 47.833 -305 143.5s-119 222.834 -119 381.501c0 130 20.833 250.167 62.5 360.5s98.167 202.666 169.5 276.999
s154.333 132.333 249 174s195 62.5 301 62.5z" />
    <glyph glyph-name="H" unicode="H" horiz-adv-x="1474" 
d="M1290 541c-56 -277.333 -84 -450.996 -84 -520.996l2 -20h-215c0 19.333 0.333008 33.333 1 42s3.33398 25.5 8.00098 50.5s10.5 52.833 17.5 83.5s18.833 87.667 35.5 171l55 282h-676l-16 -88c-17.333 -88 -35.666 -186.833 -54.999 -296.5s-29 -182.834 -29 -219.501
l2 -25h-221c6 25.333 76.333 387.666 211 1087c9.33301 54 14 96.333 14 127c0 34 -7.66699 67 -23 99l19 35l49 13c32.667 8.66699 64.667 13 96 13c41.333 0 77.666 -8 108.999 -24c-31.333 -130.667 -77 -335.667 -137 -615h677l63 326.5
c14 74.333 21 125.166 21 152.499c0 17.333 -1.33301 32.5 -4 45.5s-5.83398 23 -9.50098 30s-7.16699 14.833 -10.5 23.5l20 35l47 13c31.333 8.66699 63 13 95 13c42 0 78.667 -8 110 -24c-92 -414.667 -149.333 -684.334 -172 -809.001z" />
    <glyph glyph-name="I" unicode="I" horiz-adv-x="618" 
d="M322 0l-222 0.000976562c12.667 50 83.667 413.333 213 1090c10 52 15 94.333 15 127c0 23.333 -3 43.666 -9 60.999s-11.333 29.666 -16 36.999l21 35l48 13c32 8.66699 64.333 13 97 13c41.333 0 77.666 -8 108.999 -24
c-69.333 -295.333 -127.666 -565.666 -174.999 -810.999c-56 -300 -84 -473.667 -84 -521c0 -4 0.5 -8.16699 1.5 -12.5s1.5 -6.83301 1.5 -7.5z" />
    <glyph glyph-name="J" unicode="J" horiz-adv-x="649" 
d="M-223 -170c0 -56 29.333 -84.001 88 -84.001c75.333 0 134.5 30.833 177.5 92.5s76.5 157.834 100.5 288.501c102.667 544 162.334 865 179.001 963c9.33301 66.667 14 109 14 127c0 16.667 -1.33301 31.5 -4 44.5s-5.83398 23 -9.50098 30s-7.5 14.833 -11.5 23.5l23 35
l18 6c12.667 4.66699 30.667 9.16699 54 13.5s46.333 6.5 69 6.5c42.667 0 79.667 -8 111 -24c-70.667 -300 -128.667 -570.333 -174 -811l-40.5 -217c-24.333 -130.667 -36.833 -198.334 -37.5 -203.001c-13.333 -66 -35 -127.167 -65 -183.5
s-64.5 -104.166 -103.5 -143.499s-81.667 -72.833 -128 -100.5s-92.833 -48 -139.5 -61s-92.667 -19.5 -138 -19.5s-79.833 11 -103.5 33s-35.5 48.667 -35.5 80c0 29.333 10.833 55 32.5 77s49.167 33 82.5 33c12 0 25.667 -2 41 -6z" />
    <glyph glyph-name="K" unicode="K" 
d="M297 0l-220.998 0.00195312c22.667 96.667 93.667 460 213 1090c2 8.66699 4.83301 30.5 8.5 65.5s5.5 55.5 5.5 61.5c0 16.667 -1.33301 31.5 -4 44.5s-5.83398 23 -9.50098 30s-7.16699 14.833 -10.5 23.5l20 35l48 13c32 8.66699 63.667 13 95 13
c41.333 0 77.666 -8 108.999 -24c-53.333 -228.667 -100.333 -441.667 -141 -639l503 467c44 39.333 66 76.666 66 111.999c0 4.66699 -1.33301 12.334 -4 23.001l20 35c39.333 14.667 86 22 140 22c60.667 0 96.667 -6.66699 108 -20
c-33.333 -46 -66.166 -85.5 -98.499 -118.5s-91.5 -87 -177.5 -162l-379 -328.5l260.5 -471c99.667 -176.667 154.167 -267.334 163.5 -272.001h-258c-38.667 92 -89.834 200 -153.501 324s-118.5 220 -164.5 288l-33 58l-24 -129c-56 -292 -84 -465.667 -84 -521
c0 -2.66699 0.333008 -6.33398 1 -11.001s1 -7.66699 1 -9z" />
    <glyph glyph-name="L" unicode="L" horiz-adv-x="860" 
d="M741 0l-659 0.00292969c8 33.333 79 396.666 213 1090c5.33301 30.667 9.16602 58 11.499 82s3 43 2 57s-2.66699 26.667 -5 38s-5.16602 20.166 -8.49902 26.499s-6.66602 13.5 -9.99902 21.5l18 35l49 13c33.333 8.66699 65.666 13 96.999 13
c40.667 0 76.667 -8 108 -24c-90.667 -408.667 -148 -679 -172 -811c-35.333 -175.333 -61.333 -318 -78 -428h232c57.333 0 107 10.167 149 30.5s69.333 46.166 82 77.499h37c10.667 -18.667 8.5 -55 -6.5 -109s-34.833 -91.333 -59.5 -112z" />
    <glyph glyph-name="M" unicode="M" horiz-adv-x="1763" 
d="M793 -43l-59.9961 18c-28.667 6.66699 -52.834 20 -72.501 40s-32.834 39.667 -39.501 59s-10.334 38.333 -11.001 57l-174 830c-3.33301 14 -5.83301 37 -7.5 69s-2.5 48.333 -2.5 49c-12 -89.333 -41.833 -247.666 -89.5 -474.999s-83.5 -393.333 -107.5 -498
c-8 -42.667 -12 -75.334 -12 -98.001v-8h-147l10 33l158.5 676.5c55.667 247 94.167 422.833 115.5 527.5c-13.333 44.667 -26.333 70.667 -39 78l21 35c50.667 17.333 95 26 133 26c52.667 0 91.667 -10 117 -30c5.33301 -96 35.833 -281.667 91.5 -557
s99.5 -471.333 131.5 -588l616 1075c10.667 18.667 25.834 33.834 45.501 45.501s41.667 20 66 25s51.666 9.33301 81.999 13s61.5 6.5 93.5 8.5l-72 -336c-50.667 -250.667 -103.667 -554.334 -159 -911.001c-7.33301 -56.667 -11 -92.334 -11 -107.001v-14h-221l27 123
c39.333 190 89.666 467.667 150.999 833c2 10.667 5.16699 31.834 9.5 63.501s7.5 51.5 9.5 59.5l-68 -133l-497 -815z" />
    <glyph glyph-name="N" unicode="N" horiz-adv-x="1474" 
d="M393 948c-6 -31.333 -17.334 -84.1719 -34.001 -158.505s-28.334 -129.166 -35.001 -164.499c-60 -324 -93 -532.333 -99 -625h-143l6 33l139 731l66 330c9.33301 53.333 13.333 96.5 12 129.5s-8.66602 63.5 -21.999 91.5l20 35l20 8c6.66699 2.66699 14 5.16699 22 7.5
s15.833 4.33301 23.5 6s15.834 2.33398 24.501 2.00098s17 -1.5 25 -3.5l614 -948c14 -19.333 25.667 -46 35 -80l14 -51l3 51c2.66699 34 6 60 10 78l127 674c19.333 106.667 15.666 180.334 -11.001 221.001l21 35c25.333 16 60 24 104 24
c40.667 0 69.334 -7.33301 86.001 -22c-88.667 -383.333 -157.667 -703.666 -207 -960.999c-30.667 -169.333 -51.667 -299.666 -63 -390.999h-111l-579 911l-27 52c-18 34.667 -28.333 59.667 -31 75c0 -25.333 -3.33301 -55.333 -10 -90z" />
    <glyph glyph-name="O" unicode="O" horiz-adv-x="1368" 
d="M872 1372c-100.667 0 -197.669 -21.1689 -291.002 -63.502s-175.666 -101 -246.999 -176s-128.5 -168.833 -171.5 -281.5s-64.5 -234.667 -64.5 -366c0 -156.667 37.167 -281.167 111.5 -373.5s166.833 -138.5 277.5 -138.5s215.5 22.833 314.5 68.5
s184.333 107.834 256 186.501s128.334 173.834 170.001 285.501s62.5 230.5 62.5 356.5c0 156.667 -38.333 279.5 -115 368.5s-177.667 133.5 -303 133.5zM607.998 95.998c-86.667 0 -156.002 42.833 -208.002 128.5s-78 192.5 -78 320.5c0 117.333 21.667 230.333 65 339
s100.333 196 171 262s144 99 220 99c84.667 0 153.334 -41.333 206.001 -124s79 -188 79 -316c0 -118.667 -21.667 -233.167 -65 -343.5s-100.166 -198.833 -170.499 -265.5s-143.5 -100 -219.5 -100z" />
    <glyph glyph-name="P" unicode="P" horiz-adv-x="1050" 
d="M299 0l-221.001 -0.00195312l8 33c20.667 82.667 61 286.334 121 611.001s90 514.667 90 570c0 45.333 -6 78.333 -18 99l20 35l363 12c38.667 0 75.834 -3.16699 111.501 -9.5s71.167 -17.333 106.5 -33s66 -35.667 92 -60s47 -56.166 63 -95.499s24 -84 24 -134
c0 -79.333 -15.5 -151.833 -46.5 -217.5s-73 -120 -126 -163s-114 -76.333 -183 -100s-141.833 -35.5 -218.5 -35.5c-34 0 -68.667 4 -104 12c-50.667 -282 -78 -456.667 -82 -524zM523.999 613.998c96.667 0 178.501 35.501 245.501 106.501s100.5 162.5 100.5 274.5
c0 45.333 -7 84.833 -21 118.5s-32.833 59.667 -56.5 78s-48.834 31.833 -75.501 40.5s-54.667 13 -84 13l-109 -4c-12.667 -45.333 -33.5 -138.333 -62.5 -279s-49.167 -250.334 -60.5 -329.001c22.667 -12.667 63.667 -19 123 -19z" />
    <glyph glyph-name="Q" unicode="Q" horiz-adv-x="1366" 
d="M872 1372c125.333 0 226.668 -44.667 304.001 -134s116 -212 116 -368c0 -117.333 -18 -228.333 -54 -333s-85.5 -195.667 -148.5 -273s-138 -141 -225 -191s-180.5 -81 -280.5 -93c32 -20 50.333 -31.667 55 -35c143.333 -112 295 -168 455 -168
c54.667 0 105.5 11.833 152.5 35.5s82.833 52.834 107.5 87.501c5.33301 -25.333 8 -44 8 -56c0 -66.667 -29.5 -121.834 -88.5 -165.501s-132.5 -65.5 -220.5 -65.5c-42 0 -87.5 10.833 -136.5 32.5s-96.667 49 -143 82l-135.5 100.5c-44 34 -88.667 66.333 -134 97
s-84.333 51.667 -117 63c-86.667 25.333 -156.5 81.5 -209.5 168.5s-79.5 196.5 -79.5 328.5c0 131.333 21.5 253.333 64.5 366s100.167 206.5 171.5 281.5s153.666 133.667 246.999 176s190.333 63.5 291 63.5zM608.002 96c76 0 149.169 33.333 219.502 100
s127.166 155.167 170.499 265.5s65 224.833 65 343.5c0 128 -26.333 233.333 -79 316s-121.334 124 -206.001 124c-76 0 -149.333 -33 -220 -99s-127.667 -153.333 -171 -262s-65 -221.667 -65 -339c0 -128 26 -234.833 78 -320.5s121.333 -128.5 208 -128.5z" />
    <glyph glyph-name="R" unicode="R" horiz-adv-x="1155" 
d="M285 0h-218.999l6 33c140.667 719.333 211 1113 211 1181c0 44 -6.33301 77 -19 99l21 35c246.667 6.66699 375 10 385 10c47.333 0 92.166 -5.83301 134.499 -17.5s81.833 -29.834 118.5 -54.501s66 -59.167 88 -103.5s33 -95.833 33 -154.5
c0 -120.667 -34.167 -222.167 -102.5 -304.5s-158.833 -141.833 -271.5 -178.5c16 -8.66699 77.833 -98.5 185.5 -269.5s168.5 -262.833 182.5 -275.5h-258c-9.33301 28.667 -22.333 59.834 -39 93.501s-38 71.167 -64 112.5l-66 102.5l-76.5 111.5l-63.5 92
c-35.333 0 -70 4 -104 12c-50.667 -282 -78 -456.667 -82 -524zM510.001 614c97.333 0 179.334 35.502 246.001 106.502s100 162.5 100 274.5c0 45.333 -7 85 -21 119s-33 60.167 -57 78.5s-49.167 31.666 -75.5 39.999s-54.5 12.5 -84.5 12.5l-108 -4
c-12.667 -43.333 -33.334 -135.333 -62.001 -276s-49 -251.334 -61 -332.001c22.667 -12.667 63.667 -19 123 -19z" />
    <glyph glyph-name="S" unicode="S" horiz-adv-x="925" 
d="M299 -27c-82 0 -151.669 18.832 -209.002 56.499s-86 81.834 -86 132.501c0 26.667 13 55.334 39 86.001c2 -30 32.333 -59.333 91 -88s119 -43 181 -43c33.333 0 65.833 3.5 97.5 10.5s62.834 18.5 93.501 34.5s55.334 39.167 74.001 69.5s28 66.5 28 108.5
c0 30.667 -8.16699 60.834 -24.5 90.501s-37.5 57 -63.5 82s-54.667 50.333 -86 76l-94 80c-31.333 27.667 -60 56.167 -86 85.5s-47.167 62.833 -63.5 100.5s-24.5 77.167 -24.5 118.5c0 111.333 41.333 206.666 124 285.999s190 119 322 119
c81.333 0 151.5 -12.833 210.5 -38.5s88.5 -49.5 88.5 -71.5c0 -34.667 -6.5 -72.334 -19.5 -113.001s-32.167 -71.334 -57.5 -92.001l-35 8c-4.66699 34.667 -15.5 65.334 -32.5 92.001s-37 47.334 -60 62.001s-46 25.5 -69 32.5s-45.167 10.5 -66.5 10.5
c-24 0 -49 -4.33301 -75 -13s-50.833 -21 -74.5 -37s-43.167 -37.667 -58.5 -65s-23 -57.333 -23 -90c0 -30 8.66699 -59.5 26 -88.5s40 -55.833 68 -80.5s58.667 -49.834 92 -75.501l100.5 -81c33.667 -28.333 64.5 -57.833 92.5 -88.5s50.667 -66.5 68 -107.5
s26 -84.167 26 -129.5c0 -86.667 -22.667 -163.5 -68 -230.5s-107 -118.5 -185 -154.5s-165 -54 -261 -54z" />
    <glyph glyph-name="T" unicode="T" horiz-adv-x="993" 
d="M827 1348l-407.001 -0.000976562l-275 12c-34.667 -31.333 -58.167 -74.333 -70.5 -129s-14.5 -89.667 -6.5 -105h38c10.667 31.333 37.334 57.333 80.001 78s93.334 31 152.001 31h151c-2.66699 -53.333 -9.33398 -105.333 -20.001 -156l-66 -357l-133 -689l-6 -33h219
c0 41.333 2 71.333 6 90c14.667 83.333 40.167 218.5 76.5 405.5l99.5 507c30 151 45.333 228.5 46 232.5h153c58.667 0 106 -10.333 142 -31s53 -46.667 51 -78h37c7.33301 8.66699 15 26.334 23 53.001s12 58 12 94s-7.66699 65 -23 87z" />
    <glyph glyph-name="U" unicode="U" horiz-adv-x="1357" 
d="M1149 444c-26.667 -136.667 -94.1699 -249.666 -202.503 -338.999s-241.5 -134 -399.5 -134c-50 0 -95 3.16699 -135 9.5s-77.333 17.166 -112 32.499s-63.667 35.333 -87 60s-41.5 56.167 -54.5 94.5s-19.5 82.833 -19.5 133.5c0 35.333 3.66699 77.666 11 126.999
c33.333 216 71.333 436.667 114 662c10 57.333 15 99.666 15 126.999c0 16.667 -1.16699 31.5 -3.5 44.5s-5.33301 23 -9 30s-7.16699 14.833 -10.5 23.5l20 35l48 13c32 8.66699 64 13 96 13c43.333 0 80 -8 110 -24c-34.667 -149.333 -94.667 -448.333 -180 -897
c-8 -40.667 -12 -77 -12 -109c0 -38.667 5.5 -72.667 16.5 -102s25 -52.333 42 -69s37.333 -30.167 61 -40.5s45.834 -17.166 66.501 -20.499s42.667 -5 66 -5c97.333 0 184.5 26.667 261.5 80s124.833 118 143.5 194l9 35c5.33301 22.667 20 93.167 44 211.5l91 464.5
c9.33301 47.333 14 87.333 14 120c0 42.667 -8.33301 76.334 -25 101.001l23 35c22.667 16 57.334 24 104.001 24c40.667 0 69.334 -7.33301 86.001 -22c-74 -311.333 -138 -614 -192 -908z" />
    <glyph glyph-name="V" unicode="V" horiz-adv-x="1216" 
d="M557 -43l88 174l567 944c64.667 106.667 106.334 197.667 125.001 273c-22.667 18.667 -55.334 28 -98.001 28c-44 0 -87 -8.66699 -129 -26l-20 -35c16 -23.333 24 -49.333 24 -78c0 -44.667 -19.667 -102 -59 -172l-408 -713c-17.333 -30 -34.333 -62.333 -51 -97
s-24.334 -52.667 -23.001 -54c-25.333 100 -59.166 289.333 -101.499 568s-65.166 468.667 -68.499 570c-18 24.667 -52 37 -102 37c-52.667 0 -100.334 -9.33301 -143.001 -28l-21 -35c5.33301 -2 12.333 -9.83301 21 -23.5s20 -44.5 34 -92.5s25.667 -107.667 35 -179
l144 -887c3.33301 -86 42 -138 116 -156z" />
    <glyph glyph-name="W" unicode="W" horiz-adv-x="1785" 
d="M1184 -43l89.9961 174.001l530 944c60.667 105.333 102.334 196.333 125.001 273c-26.667 13.333 -64 20 -112 20c-46 0 -84.333 -6.66699 -115 -20l-21 -35c22.667 -30 29.667 -68.333 21 -115c-6.66699 -37.333 -25 -81.666 -55 -132.999l-371 -713
c-17.333 -28 -34 -60 -50 -96l-24 -55c-22 90.667 -48.833 275.167 -80.5 553.5s-49.167 473.166 -52.5 584.499c-18 24.667 -52.667 37 -104 37c-56 0 -106 -9.33301 -150 -28l-20 -35c3.33301 -1.33301 8.16602 -6.5 14.499 -15.5s14 -23.5 23 -43.5
s18.333 -50.667 28 -92s17.834 -89.333 24.501 -144l14 -121l-283 -545c-16 -28 -32 -60 -48 -96l-23 -55c-22.667 90 -50 274 -82 552s-49.667 473.333 -53 586c-19.333 24.667 -54.333 37 -105 37c-55.333 0 -104.333 -9.33301 -147 -28l-21 -35
c5.33301 -2 12.333 -9.83301 21 -23.5s20 -44.5 34 -92.5s25.667 -107.667 35 -179l113 -887c0.666992 -14 2.66699 -28 6 -42s9 -29 17 -45s20.167 -30.333 36.5 -43s35.5 -21.334 57.5 -26.001l69 -18l88 174l312 561l71 -561
c0.666992 -19.333 3.83398 -38.5 9.50098 -57.5s17.834 -38.5 36.501 -58.5s42.334 -33.333 71.001 -40z" />
    <glyph glyph-name="X" unicode="X" horiz-adv-x="1097" 
d="M12 100l453.002 559l-123 361l-44 133.5c-10.667 33.667 -20.834 60.834 -30.501 81.501s-19.167 36.334 -28.5 47.001s-22 21 -38 31l20 35c45.333 18.667 92.333 28 141 28c53.333 0 89 -12.333 107 -37c12 -45.333 21 -81.5 27 -108.5s19.5 -72.333 40.5 -136
s51.833 -152.167 92.5 -265.5l57 78l137 174c57.333 71.333 89.666 124.666 96.999 159.999c6 30 3 54 -9 72l21 35c36 18.667 75.667 28 119 28c47.333 0 83.333 -9.33301 108 -28c-14 -37.333 -39.167 -82.333 -75.5 -135s-73.833 -101.334 -112.5 -146.001l-301 -354
l207 -592c6.66699 -20.667 15.667 -41.167 27 -61.5s21.333 -35.5 30 -45.5l12 -14h-256l-182 537l-30 -42c-20.667 -28 -36.667 -48.333 -48 -61l-264 -323c-18 -24 -34 -48.333 -48 -73l-20 -38h-176z" />
    <glyph glyph-name="Y" unicode="Y" horiz-adv-x="890" 
d="M451 0h-219.998l7 33c44 222 67 338.667 69 350l43 233c-9.33301 12 -19.666 33.333 -30.999 64l-116 344c-10.667 28 -21.334 58 -32.001 90l-24 71.5c-5.33301 15.667 -11.5 32 -18.5 49s-13.333 29.5 -19 37.5s-12.334 15.667 -20.001 23s-17.167 13.333 -28.5 18
l21 35c43.333 18.667 90.333 28 141 28c42.667 0 74 -12.333 94 -37c16.667 -77.333 45.167 -180.333 85.5 -309s72.166 -220.667 95.499 -276l59 80l225 301c47.333 64.667 59 124 35 178l21 35c44.667 18.667 84 28 118 28c33.333 0 67 -9.33301 101 -28
c-4.66699 -24 -26 -67 -64 -129s-73.333 -112.667 -106 -152l-324 -405c-26 -130 -45.667 -233.333 -59 -310c-31.333 -160.667 -49 -278 -53 -352z" />
    <glyph glyph-name="Z" unicode="Z" horiz-adv-x="1241" 
d="M-51 0l2 41.0029l65 63l865 1057l73 70h-452c-58.667 0 -109.667 -10.333 -153 -31s-70.333 -46.667 -81 -78h-37c-1.33301 2.66699 -2 11.667 -2 27c0 33.333 6.5 71.166 19.5 113.499s33.167 76.166 60.5 101.499l275 -12h684l-2 -43l-64 -66l-856 -1044l-72 -66h506
c58.667 0 109.667 10.333 153 31s70.333 46.667 81 78h39c2.66699 -5.33301 4 -14.333 4 -27c0 -32.667 -7 -70.334 -21 -113.001s-35 -76.667 -63 -102h-1024z" />
    <glyph glyph-name="bracketleft" unicode="[" horiz-adv-x="507" 
d="M551 1499l-21 -100h-190l-311 -1616h190l-22 -102h-316l352 1818h318z" />
    <glyph glyph-name="backslash" unicode="\" horiz-adv-x="729" 
d="M563 -500h162.001c-164.667 486 -297.667 900.5 -399 1243.5s-152 542.167 -152 597.5c-5.33301 9.33301 -23.5 20 -54.5 32s-59.833 18 -86.5 18c-28.667 0 -43 -18 -43 -54c0 -16 3 -34.833 9 -56.5s13.5 -44.667 22.5 -69s14.167 -38.5 15.5 -42.5
c1.33301 -3.33301 20.166 -60.5 56.499 -171.5l122 -375.5l141 -439.5l131.5 -420.5c38.667 -126.667 63.667 -214 75 -262z" />
    <glyph glyph-name="bracketright" unicode="]" horiz-adv-x="509" 
d="M629 1499l-355 -1818h-315l18 102h189l317 1616h-190l18 100h318z" />
    <glyph glyph-name="asciicircum" unicode="^" horiz-adv-x="1277" 
d="M1128 655h-143l-348 629l-348 -629h-144l435 795h114z" />
    <glyph glyph-name="underscore" unicode="_" horiz-adv-x="921" 
d="M983 -154l-61 -122h-922v122h983z" />
    <glyph glyph-name="grave" unicode="`" horiz-adv-x="692" 
d="M305 1483h-119.001l54 -140c48 -124 126.333 -186 235 -186c15.333 0 32.5 4.5 51.5 13.5s29.167 15.5 30.5 19.5c-32.667 10.667 -59.5 28.167 -80.5 52.5s-36.333 49.833 -46 76.5l-28 77.5c-9 25 -21.167 45.667 -36.5 62s-35.666 24.5 -60.999 24.5z" />
    <glyph glyph-name="a" unicode="a" horiz-adv-x="1038" 
d="M827 348c-9.33301 -73.333 -14.002 -124.334 -14.002 -153.001c0 -64.667 26 -97 78 -97c11.333 0 22.333 1.33301 33 4l16 4l14 -36l-32 -24c-21.333 -16 -50 -32.167 -86 -48.5s-68.333 -24.5 -97 -24.5c-29.333 0 -53.166 7.16699 -71.499 21.5s-30.5 32 -36.5 53
s-8.83301 44.833 -8.5 71.5s2.83301 51 7.5 73s10.334 42.667 17.001 62c-43.333 -80 -98.166 -146.833 -164.499 -200.5s-128.833 -80.5 -187.5 -80.5c-58 0 -108 28.333 -150 85s-63 137 -63 241c0 130 24.667 252 74 366s117.333 205.333 204 274s181 103 283 103
c27.333 0 79.166 -6.33301 155.499 -19s128.833 -20 157.5 -22l-51 -256c-10.667 -57.333 -36.667 -189.666 -78 -396.999zM751.998 906.999l-57.999 13.002c-38 8 -72 12 -102 12c-54.667 0 -106.834 -28.167 -156.501 -84.5s-89.667 -131.833 -120 -226.5
s-45.5 -194.334 -45.5 -299.001c0 -68.667 12.333 -119.334 37 -152.001s55.334 -49 92.001 -49c61.333 0 142.666 64 243.999 192c64.667 276 101 474 109 594z" />
    <glyph glyph-name="b" unicode="b" horiz-adv-x="1067" 
d="M322 1274c2.66699 26.667 4.00098 49 4.00098 67c0 76 -21.333 115 -64 117l8 37l22 13c14 8 35.167 16.333 63.5 25s56.5 13 84.5 13c37.333 0 63.833 -8 79.5 -24s23.5 -40.667 23.5 -74c-0.666992 -47.333 -17 -141 -49 -281s-65.667 -271 -101 -393
c52.667 80.667 115.834 145.5 189.501 194.5s143.167 73.5 208.5 73.5c136 0 204 -116.667 204 -350c0 -63.333 -7.5 -127.833 -22.5 -193.5s-38.5 -130 -70.5 -193s-70 -119.167 -114 -168.5s-97.833 -89 -161.5 -119s-131.834 -45 -204.501 -45
c-88.667 0 -161 15.5 -217 46.5s-84 76.5 -84 136.5c0 36.667 32.667 223 98 559s99.666 522.333 102.999 559zM326.001 305c-4.66699 -38.667 -6.99902 -68.666 -6.99902 -89.999c0 -42.667 10.333 -74.834 31 -96.501s59 -32.5 115 -32.5c49.333 0 93.833 12.5 133.5 37.5
s72.167 57.333 97.5 97s46.666 85.5 63.999 137.5s29.5 103.833 36.5 155.5s10.5 103.167 10.5 154.5c0 158 -41 237 -123 237c-38 0 -86 -21 -144 -63s-109 -91.333 -153 -148c-20.667 -115.333 -41 -245 -61 -389z" />
    <glyph glyph-name="c" unicode="c" horiz-adv-x="944" 
d="M274 420c0 -84 19.6631 -153.502 58.9961 -208.502s98.333 -82.5 177 -82.5c56 0 112.333 15.833 169 47.5s109 75.834 157 132.501c2.66699 -58 -16.666 -113.167 -57.999 -165.5s-95.166 -93.833 -161.499 -124.5s-134.5 -46 -204.5 -46
c-93.333 0 -171.666 36.333 -234.999 109s-95 169.667 -95 291c0 108.667 23 214 69 316s110.333 185.667 193 251s172 98 268 98c52 0 100.167 -5.5 144.5 -16.5s81.5 -29.167 111.5 -54.5s45 -55.333 45 -90c0 -44 -19.5 -78.167 -58.5 -102.5
s-78.833 -23.166 -119.5 3.50098c0 44.667 -10.5 80.167 -31.5 106.5s-59.5 39.5 -115.5 39.5c-57.333 0 -110.666 -26.167 -159.999 -78.5s-87.333 -117 -114 -194s-40 -154.167 -40 -231.5z" />
    <glyph glyph-name="d" unicode="d" horiz-adv-x="1062" 
d="M768 -27c-79.333 0 -118.995 55.333 -118.995 166c0 16 1.33301 38 4 66v8c-52.667 -74 -111.167 -132.5 -175.5 -175.5s-126.5 -64.5 -186.5 -64.5c-68.667 0 -122.334 29.5 -161.001 88.5s-58 146.5 -58 262.5c0 62 7.33301 125.667 22 191s37.667 129.333 69 192
s68.666 118.5 111.999 167.5s96.166 88.5 158.499 118.5s129.5 45 201.5 45c26 0 56.833 -3.16699 92.5 -9.5s61.5 -13.166 77.5 -20.499l47 266c3.33301 24 5.66602 49.5 6.99902 76.5s-3.66699 51.5 -15 73.5s-28.333 33.333 -51 34l8 37l21 13
c14.667 8 36.167 16.333 64.5 25s56.5 13 84.5 13c23.333 0 42.5 -3.83301 57.5 -11.5s25.667 -16.667 32 -27s10.166 -24.833 11.499 -43.5s1.16602 -35 -0.500977 -49s-4.5 -32.333 -8.5 -55c-2 -15.333 -19.667 -99.833 -53 -253.5l-56 -258.5
c-69.333 -364.667 -104 -580.334 -104 -647.001c0 -68.667 24 -103 72 -103c12.667 0 30.334 2.66699 53.001 8l14 -36c-32 -24 -68.667 -46.167 -110 -66.5s-78.333 -30.5 -111 -30.5zM727.005 588l59.002 318.999l-16 7c-11.333 4 -31.333 8 -60 12s-60.667 6 -96 6
c-50.667 0 -96.834 -12.833 -138.501 -38.5s-75.5 -58.667 -101.5 -99s-47.833 -87.166 -65.5 -140.499s-30.167 -105.833 -37.5 -157.5s-11 -103.167 -11 -154.5c0 -154 39 -231 117 -231c37.333 0 84.833 19.833 142.5 59.5s108.5 86.5 152.5 140.5
c6.66699 37.333 17.167 90.333 31.5 159s22.166 108 23.499 118z" />
    <glyph glyph-name="e" unicode="e" horiz-adv-x="940" 
d="M406 -27c-94.667 0 -172.502 36.499 -233.502 109.499s-90.5 171.833 -88.5 296.5c2 89.333 18.5 175.333 49.5 258s70.833 152.834 119.5 210.501s103.834 103.834 165.501 138.501s123.5 52 185.5 52c89.333 0 156.666 -19.5 201.999 -58.5s67.333 -91.833 66 -158.5
c-1.33301 -70.667 -28.833 -132.834 -82.5 -186.501s-122 -94 -205 -121s-172.833 -40.5 -269.5 -40.5h-41c-2.66699 -21.333 -4 -39 -4 -53c-0.666992 -47.333 6.5 -92.5 21.5 -135.5s40.167 -79.667 75.5 -110s77.666 -45.5 126.999 -45.5c56 0 114.167 16 174.5 48
s113.833 76 160.5 132c2.66699 -58 -16.666 -113.333 -57.999 -166s-95.166 -94.167 -161.499 -124.5s-134.166 -45.5 -203.499 -45.5zM574.998 923.999c-36 0 -70.999 -11.9971 -104.999 -35.9971s-63.167 -55 -87.5 -93s-45 -78.5 -62 -121.5
s-28.833 -85.167 -35.5 -126.5c40.667 3.33301 76.667 7.5 108 12.5s65.666 13.667 102.999 26s68.333 27.666 93 45.999s45.5 43.166 62.5 74.499s25.833 67.666 26.5 108.999c1.33301 28.667 -6 54 -22 76s-43 33 -81 33z" />
    <glyph glyph-name="f" unicode="f" horiz-adv-x="655" 
d="M250 713l-125.003 -661.997l-8 -51h198c0 42 1.33301 70.667 4 86l55 326c36.667 217.333 65.667 375.666 87 474.999c3.33301 0 27 -0.333008 71 -1s70.667 -1 80 -1c113.333 0 171.333 48.333 174 145l-4 -4l-12 -7c-4.66699 -2.66699 -12 -5.16699 -22 -7.5
s-21.667 -3.5 -35 -3.5h-240c5.33301 11.333 9.33301 27 12 47c20 136 47 230.667 81 284s79.333 80 136 80c28 0 49.833 -7.33301 65.5 -22s23.5 -33.334 23.5 -56.001c18 -8 37 -12 57 -12c25.333 1.33301 46.666 10.166 63.999 26.499s26 38.166 26 65.499
c0 38 -16.167 68.333 -48.5 91s-72.166 34 -119.499 34c-28.667 0 -57.667 -3.83301 -87 -11.5s-60.666 -21.5 -93.999 -41.5s-64.666 -45.333 -93.999 -76s-57.666 -71 -84.999 -121s-50 -106.667 -68 -170c-21.333 -76 -64.333 -116.667 -129 -122l-20 -62
c44.667 -20 67 -65 67 -135c0 -31.333 -3.33301 -62.666 -10 -93.999z" />
    <glyph glyph-name="g" unicode="g" horiz-adv-x="1003" 
d="M84 303c1.33301 78.667 15.167 160.665 41.5 245.998s61.333 164.5 105 237.5s98.5 133.167 164.5 180.5s135.667 71 209 71c28 0 84.5 -5.66699 169.5 -17s140.5 -18 166.5 -20l-51 -256c-0.666992 -4.66699 -8.16699 -41.334 -22.5 -110.001l-57.5 -287
c-9.33301 -73.333 -14 -124.333 -14 -153c2 -40 3.66699 -76 5 -108s2.5 -57.667 3.5 -77l2.5 -49.5c0.666992 -13.667 1.16699 -23.5 1.5 -29.5s0.5 -10.333 0.5 -13l1 -4v0c0 -60.667 -10.167 -115.667 -30.5 -165s-47.333 -90.166 -81 -122.499
s-73.167 -59.666 -118.5 -81.999s-91.833 -38.333 -139.5 -48s-96.5 -14.5 -146.5 -14.5c-103.333 0 -190.333 18.167 -261 54.5s-106 85.833 -106 148.5c0 11.333 1.83301 23.5 5.5 36.5s9.5 27.333 17.5 43s20.5 28.5 37.5 38.5s37.167 15 60.5 15
c16 0 31.333 -3.66699 46 -11s25.334 -18 32.001 -32c-15.333 -32 -23 -58.667 -23 -80c0 -41.333 20.833 -72.5 62.5 -93.5s94.167 -31.5 157.5 -31.5c37.333 0 71.166 3.83301 101.499 11.5s55.5 17.5 75.5 29.5s37.5 27.167 52.5 45.5s26.667 36.666 35 54.999
s15 39.333 20 63s8.16699 44.834 9.5 63.501s2 39.334 2 62.001c0 28 -2.33301 65 -7 111s-7 87.333 -7 124c0 18 1.33301 31 4 39c-30.667 -60 -75.167 -108.5 -133.5 -145.5s-114.833 -55.5 -169.5 -55.5c-51.333 0 -94 15 -128 45s-58 69 -72 117s-21 104 -21 168z
M276.001 331.998c0 -140.667 38.999 -211 116.999 -211c43.333 0 83.833 10.5 121.5 31.5s67.5 43.167 89.5 66.5c24.667 104.667 49.334 228.5 74.001 371.5s39 246.5 43 310.5l-47 13c-32 9.33301 -62.667 14 -92 14c-50.667 0 -100 -33.167 -148 -99.5
s-86 -145.5 -114 -237.5s-42.667 -178.333 -44 -259z" />
    <glyph glyph-name="h" unicode="h" horiz-adv-x="1099" 
d="M438 1546c35.333 0 60.332 -7.33105 74.999 -21.998s22 -38 22 -70c0 -36 -20 -138.667 -60 -308s-67.333 -294.666 -82 -375.999c20 28.667 44.667 57.667 74 87s62.833 58.333 100.5 87s79 52.167 124 70.5s88.167 27.5 129.5 27.5c48 0 89.333 -17.167 124 -51.5
s52 -82.5 52 -144.5c0 -30.667 -11.167 -102.167 -33.5 -214.5l-67 -354.5c-22.333 -124 -33.166 -216.333 -32.499 -277h-194c0 8 4.66699 40.667 14 98l51.5 265c14.333 75.333 24.833 132.666 31.5 171.999s11.667 69.666 15 90.999s5.5 37.833 6.5 49.5
s1.83301 18.5 2.5 20.5c2.66699 30.667 4 52 4 64c0 80.667 -31 121 -93 121c-55.333 0 -113.333 -20.167 -174 -60.5s-110.334 -86.5 -149.001 -138.5c-21.333 -120.667 -43 -254.667 -65 -402s-33.667 -234 -35 -260v-20h-197l4 31c58 292 112.167 578 162.5 858
s75.5 431.333 75.5 454c0 71.333 -22.667 109.666 -68 114.999l10 37l22 13c14 8 35.333 16.333 64 25s57.334 13 86.001 13z" />
    <glyph glyph-name="i" unicode="i" horiz-adv-x="542" 
d="M297 1313c0 28.667 10.667 53.5 32 74.5s47 31.5 77 31.5c28.667 0 53.167 -10.5 73.5 -31.5s30.5 -45.833 30.5 -74.5c-1.33301 -29.333 -12.666 -55.166 -33.999 -77.499s-46.333 -33.5 -75 -33.5c-29.333 0 -54.333 11.167 -75 33.5s-30.334 48.166 -29.001 77.499z
M92 0l2.00098 7.99902c100 523.333 150 795.666 150 816.999c0.666992 24.667 -4.33301 43.167 -15 55.5s-24.334 18.5 -41.001 18.5c-6.66699 0 -12 -0.666992 -16 -2l-18 33c23.333 27.333 55.666 51.5 96.999 72.5s81.333 31.5 120 31.5c26 0 45.333 -9 58 -27
s18.334 -41 17.001 -69c0 -12.667 -3.16699 -33.667 -9.5 -63s-13.5 -60.166 -21.5 -92.499s-12.667 -51.5 -14 -57.5c-6 -31.333 -21.167 -120.166 -45.5 -266.499l-50.5 -304.5c-8 -42.667 -12 -81.667 -12 -117c0 -16.667 -0.666992 -29 -2 -37h-199z" />
    <glyph glyph-name="j" unicode="j" horiz-adv-x="542" 
d="M86 -29c-12.667 -62.667 -35.1719 -126.167 -67.5049 -190.5s-71.166 -119.166 -116.499 -164.499s-89 -68.333 -131 -69c23.333 -38 54 -57 92 -57c28.667 0 63.334 13 104.001 39s80.834 59.833 120.501 101.5s75.834 92.667 108.501 153s54.667 120.833 66 181.5
l139 737c4.66699 22.667 11.334 53.167 20.001 91.5s15 68.5 19 90.5s6 41.333 6 58c0 32.667 -6.5 56.167 -19.5 70.5s-37.167 21.5 -72.5 21.5c-32 0 -68.833 -12 -110.5 -36s-71.5 -46.667 -89.5 -68l18 -33c4 1.33301 9.33301 2 16 2c36 0 54 -22.667 54 -68
c2 -10.667 -50 -297.334 -156 -860.001zM302.995 1313c0 28.667 10.666 53.501 31.999 74.501s47 31.5 77 31.5c28.667 0 53.167 -10.5 73.5 -31.5s30.5 -45.833 30.5 -74.5s-11.167 -54.334 -33.5 -77.001s-47.166 -34 -74.499 -34c-30 0 -55 11 -75 33s-30 48 -30 78z" />
    <glyph glyph-name="k" unicode="k" horiz-adv-x="1003" 
d="M330 1348c0 67.333 -22.6699 103.999 -68.0029 109.999l8 37l22 13c14 8 35.167 16.333 63.5 25s56.5 13 84.5 13c37.333 0 63.833 -8 79.5 -24s23.5 -41.333 23.5 -76c0 -14.667 -28 -155.5 -84 -422.5s-85.333 -408.833 -88 -425.5
c130.667 30.667 230.5 69.834 299.5 117.501s103.5 91.834 103.5 132.501c0 34 -26.667 51 -80 51c-6.66699 0 -12 -0.666992 -16 -2l-19 33c22 26.667 54 50.667 96 72s82.667 32 122 32c48.667 0 73 -24.333 73 -73c0 -164.667 -136.333 -287.667 -409 -369
c16 -8 33.167 -30.833 51.5 -68.5s36.833 -79.667 55.5 -126s39.5 -92.5 62.5 -138.5s51.667 -84.333 86 -115s71.833 -46 112.5 -46c18.667 0 39.334 2.66699 62.001 8l14 -36c-24 -20.667 -58.667 -42 -104 -64s-85 -33 -119 -33c-40 0 -77.167 16.333 -111.5 49
s-63.666 74.5 -87.999 125.5s-46.666 102.833 -66.999 155.5s-41.833 104 -64.5 154s-44 85.333 -64 106c-25.333 -125.333 -46 -244.833 -62 -358.5s-24 -181.834 -24 -204.501h-199l6 31l234 1243c5.33301 26 8 50.667 8 74z" />
    <glyph glyph-name="l" unicode="l" horiz-adv-x="520" 
d="M281 0h-199.001l4 31l236 1243c10 56.667 9.5 100.5 -1.5 131.5s-31.167 48.5 -60.5 52.5l10 37l22 13c14 8 35.167 16.333 63.5 25s56.5 13 84.5 13c19.333 0 35.5 -2.5 48.5 -7.5s23.5 -11.333 31.5 -19s13.5 -19.334 16.5 -35.001s4.5 -31 4.5 -46
s-2.5 -35.833 -7.5 -62.5s-10.167 -51.167 -15.5 -73.5l-22 -88.5c-32.667 -139.333 -71.667 -331.166 -117 -575.499s-76.666 -428.5 -93.999 -552.5c-2.66699 -15.333 -4 -44 -4 -86z" />
    <glyph glyph-name="m" unicode="m" horiz-adv-x="1697" 
d="M403 770c20 28.667 44.6689 57.6689 74.002 87.002s62.666 58.333 99.999 87s78.333 52.167 123 70.5s87.667 27.5 129 27.5c50.667 0 93.667 -19.5 129 -58.5s50.666 -93.167 45.999 -162.5c-2 -7.33301 -4.33301 -23 -7 -47c20.667 28.667 45.5 57.5 74.5 86.5
s61.833 57.667 98.5 86s77 51.333 121 69s86.667 26.5 128 26.5c50.667 0 93.667 -19.5 129 -58.5s50.333 -93.167 45 -162.5c-2 -24.667 -14 -93 -36 -205s-43.333 -228.333 -64 -349s-31 -209.667 -31 -267h-194c0 8 4.66699 40.667 14 98
c48 251.333 83.667 450.666 107 597.999c7.33301 62 4.66602 108.333 -8.00098 139s-38.667 46 -78 46c-54.667 0 -112 -19.333 -172 -58s-110 -83.667 -150 -135c-18.667 -86.667 -41.5 -207 -68.5 -361s-40.5 -263 -40.5 -327h-194c0 8 4.66699 40.667 14 98
c60.667 311.333 96.334 510.666 107.001 597.999c7.33301 62.667 4.66602 109.167 -8.00098 139.5s-38.667 45.5 -78 45.5c-56 0 -114.667 -20.167 -176 -60.5s-111.333 -86.5 -150 -138.5c-3.33301 -21.333 -16.333 -94.5 -39 -219.5l-55 -308.5
c-6 -42.667 -10 -81.667 -12 -117v-37h-199v8l147 770c6 28.667 4.33301 56 -5 82s-24.666 39 -45.999 39c-6.66699 0 -12 -0.666992 -16 -2l-19 33c22 26.667 54 50.667 96 72s82.333 32 121 32c50.667 0 76 -32 76 -96c0 -42 -11 -98 -33 -168z" />
    <glyph glyph-name="n" unicode="n" horiz-adv-x="1107" 
d="M403 770c20 28.667 44.668 57.668 74.001 87.001s62.666 58.333 99.999 87s78.333 52.167 123 70.5s87.667 27.5 129 27.5c50.667 0 93.667 -19.5 129 -58.5s50.666 -93.167 45.999 -162.5c-2 -24 -14.167 -92.167 -36.5 -204.5s-43.833 -228.833 -64.5 -349.5
s-31 -209.667 -31 -267h-194c0 8 4.66699 40.667 14 98c60.667 311.333 96.334 510.666 107.001 597.999c7.33301 62.667 4.66602 109.167 -8.00098 139.5s-38.667 45.5 -78 45.5c-56 0 -114.667 -20.167 -176 -60.5s-111.333 -86.5 -150 -138.5
c-3.33301 -21.333 -16.333 -94.5 -39 -219.5l-55 -308.5c-6 -42.667 -10 -81.667 -12 -117v-37h-199v8l147 770c6 28.667 4.33301 56 -5 82s-24.666 39 -45.999 39c-6.66699 0 -12 -0.666992 -16 -2l-19 33c22 26.667 54 50.667 96 72s82.333 32 121 32
c50.667 0 76 -32 76 -96c0 -42 -11 -98 -33 -168z" />
    <glyph glyph-name="o" unicode="o" horiz-adv-x="1030" 
d="M641 1038c-74.667 0 -145.832 -16.8311 -213.499 -50.498s-126.5 -79.834 -176.5 -138.501s-90 -129.667 -120 -213s-45.667 -172.333 -47 -267c-0.666992 -35.333 1 -69 5 -101s12.5 -66.667 25.5 -104s30.167 -69.5 51.5 -96.5s51.166 -49.5 89.499 -67.5
s82.833 -27 133.5 -27c78 0 151.667 18.833 221 56.5s128.166 87.667 176.499 150s86.833 134.166 115.5 215.499s43.334 165.333 44.001 252c2 122.667 -25.167 218.5 -81.5 287.5s-130.833 103.5 -223.5 103.5zM555.002 934.002c62.667 0 111 -29.666 145 -88.999
s50 -139 48 -239c-1.33301 -149.333 -31.5 -275.333 -90.5 -378s-125.833 -154 -200.5 -154c-58.667 0 -103.334 30.167 -134.001 90.5s-44.667 139.833 -42 238.5c0.666992 29.333 3.33398 63.5 8.00098 102.5s13.5 84.333 26.5 136s29 98.667 48 141
s45.167 78.166 78.5 107.499s71 44 113 44z" />
    <glyph glyph-name="p" unicode="p" horiz-adv-x="1087" 
d="M184 -492l-196.001 0.00195312c48.667 242.667 78 395 88 457l155 826c1.33301 6.66699 2 16 2 28c0 24.667 -5.83301 44.167 -17.5 58.5s-25.5 21.5 -41.5 21.5c-5.33301 0 -10 -0.666992 -14 -2l-19 33l27 26c18.667 17.333 45 34.666 79 51.999s66.333 26 97 26
c27.333 0 47.5 -8.5 60.5 -25.5s19.5 -38.5 19.5 -64.5c0 -10 -2.33301 -26.5 -7 -49.5s-10.167 -47.333 -16.5 -73s-10.166 -41.5 -11.499 -47.5c46.667 68 106.5 129.667 179.5 185s143.5 83 211.5 83c142 0 213 -117.333 213 -352
c0 -63.333 -7.33301 -127.833 -22 -193.5s-37.5 -129.834 -68.5 -192.501s-68.167 -118.5 -111.5 -167.5s-96 -88.5 -158 -118.5s-129 -45 -201 -45c-44.667 0 -102 11 -172 33l-33.5 -206.5l-32 -199c-7 -45.667 -10.5 -76.5 -10.5 -92.5zM454.999 86.002
c55.333 0 104.998 15.666 148.998 46.999s78 69 102 113s44 92.5 60 145.5s26.5 97.833 31.5 134.5s7.5 66.667 7.5 90c0 31.333 -0.5 58.5 -1.5 81.5s-3 46.167 -6 69.5s-7.5 42.833 -13.5 58.5s-13.667 29.834 -23 42.501s-21.166 22 -35.499 28s-30.833 9 -49.5 9
c-40 0 -89.167 -23.667 -147.5 -71s-106.166 -93.333 -143.499 -138l-33.5 -190.5l-50.5 -280.5l-20 -110h2c50 -19.333 107.333 -29 172 -29z" />
    <glyph glyph-name="q" unicode="q" horiz-adv-x="1071" 
d="M733 -498l-198 -0.000976562c7.33301 36 24.666 127.333 51.999 274s48 254.667 62 324c4.66699 24.667 16.334 72 35.001 142c-53.333 -82 -114.5 -147.333 -183.5 -196s-135.5 -73 -199.5 -73c-68.667 0 -122.334 29.5 -161.001 88.5s-58 146.5 -58 262.5
c0 63.333 7.5 127.833 22.5 193.5s38.5 129.834 70.5 192.501s70 118.667 114 168s97.833 89 161.5 119s131.834 45 204.501 45c66.667 0 139 -7 217 -21s119.667 -21.333 125 -22c-174.667 -867.333 -262.667 -1366.33 -264 -1497zM795 906.999l-19.0029 5.00195
c-13.333 4 -35.166 8 -65.499 12s-63.166 6 -98.499 6c-50 0 -95 -12.833 -135 -38.5s-72.667 -58.5 -98 -98.5s-46.5 -86.5 -63.5 -139.5s-28.833 -105.333 -35.5 -157s-10 -103.167 -10 -154.5c0 -154 39 -231 117 -231c38.667 0 88 21.167 148 63.5
s111.667 91.5 155 147.5l34 173l28.5 140c6.33301 31.333 13.333 70.666 21 117.999s14.834 98.666 21.501 153.999z" />
    <glyph glyph-name="r" unicode="r" horiz-adv-x="802" 
d="M281 0l-199 0.000976562l139 698c8 40 12 79.667 12 119c0 54.667 -18.333 82 -55 82c-2.66699 0 -5.66699 -0.333008 -9 -1l-5 -1l-19 33c18.667 24.667 49.334 48.167 92.001 70.5s79.667 33.5 111 33.5c60 0 90 -29.333 90 -88c0 -24 -5.33301 -54 -16 -90l-22 -58
c-14.667 -39.333 -24.334 -75.333 -29.001 -108c7.33301 18.667 18 41.167 32 67.5s33.333 56.5 58 90.5s51.167 65.167 79.5 93.5s61.333 52.166 99 71.499s75.167 29 112.5 29c40 0 69 -9 87 -27s27 -40.333 27 -67c0 -35.333 -12.833 -65.166 -38.5 -89.499
s-56.5 -41.5 -92.5 -51.5c-6 24 -17 42 -33 54s-34.333 18 -55 18c-36 0 -70.833 -14.333 -104.5 -43s-62 -63.334 -85 -104.001s-44.167 -87.167 -63.5 -139.5s-34.333 -98.333 -45 -138s-19 -76.5 -25 -110.5c-28.667 -145.333 -43 -260 -43 -344z" />
    <glyph glyph-name="s" unicode="s" horiz-adv-x="808" 
d="M139 711c0 89.333 35.9941 166.162 107.994 230.495s158.333 96.5 259 96.5c76.667 0 139.5 -14.833 188.5 -44.5s73.5 -68.5 73.5 -116.5c0 -30 -10.167 -56.667 -30.5 -80s-44.833 -35 -73.5 -35c-17.333 0 -36 7.33301 -56 22c4 18.667 6 36.667 6 54
c0 30.667 -9.83301 55.334 -29.5 74.001s-55.5 28 -107.5 28c-50 0 -92.167 -15.5 -126.5 -46.5s-51.5 -69.5 -51.5 -115.5c0 -24.667 7.33301 -47.5 22 -68.5s33.834 -39.5 57.501 -55.5s49.834 -32 78.501 -48s57.167 -33.167 85.5 -51.5s54.333 -38.166 78 -59.499
s42.834 -47.5 57.501 -78.5s22 -64.833 22 -101.5c0 -55.333 -11.333 -105.166 -34 -149.499s-53 -80.166 -91 -107.499s-80.167 -48.333 -126.5 -63s-94.833 -22 -145.5 -22c-45.333 0 -88 8.66699 -128 26s-71.167 39.5 -93.5 66.5s-35.166 57.333 -38.499 91
s9.66699 66.834 39 99.501c0.666992 -38.667 27.334 -75.667 80.001 -111s107.334 -53 164.001 -53c24.667 0 47.667 2.83301 69 8.5s41.166 14.667 59.499 27s32.833 29.666 43.5 51.999s16 48.5 16 78.5c0 21.333 -6.83301 41.5 -20.5 60.5s-31.667 36.167 -54 51.5
s-46.833 30.833 -73.5 46.5s-53.167 32.834 -79.5 51.501s-50.666 38.834 -72.999 60.501s-40.333 48.167 -54 79.5s-20.5 65.666 -20.5 102.999z" />
    <glyph glyph-name="t" unicode="t" horiz-adv-x="763" 
d="M512 1178l-54.9961 -170.003h241c18 0 33.167 2 45.5 6s20.166 8 23.499 12l5 6c0 -1.33301 0.333008 -3.66602 1 -6.99902s1 -5.66602 1 -6.99902c0 -41.333 -17.5 -74.166 -52.5 -98.499s-76.833 -36.5 -125.5 -36.5c-12 0 -34 0.666992 -66 2s-54.333 2 -67 2
c-15.333 0 -25 -0.666992 -29 -2c-0.666992 -24 -19 -119.5 -55 -286.5s-54.333 -279.167 -55 -336.5c-1.33301 -40.667 7.5 -71.334 26.5 -92.001s52.5 -31 100.5 -31c36 0 76.167 12.167 120.5 36.5s75.166 45.833 92.499 64.5v-19
c-0.666992 -46.667 -17.334 -89.5 -50.001 -128.5s-73 -68.667 -121 -89s-96.333 -30.5 -145 -30.5c-62.667 0 -114.334 17.333 -155.001 52s-60.667 85 -60 151c0.666992 54.667 20.667 164.834 60 330.501s59.666 274.834 60.999 327.501c0 20 -2 34.333 -6 43
c-4.66699 10 -10.167 19.167 -16.5 27.5s-12.333 14.833 -18 19.5s-11.167 8.66699 -16.5 12s-10.166 5.66602 -14.499 6.99902s-7.5 2.33301 -9.5 3h-3l23 62c6.66699 0 14 1 22 3s22.167 7.33301 42.5 16s44.333 26 72 52s56.5 59 86.5 99h96z" />
    <glyph glyph-name="u" unicode="u" horiz-adv-x="1128" 
d="M750 897l-19.001 33.001c22 27.333 53.833 51.5 95.5 72.5s82.167 31.5 121.5 31.5c50.667 0 76 -32 76 -96c0 -20 -3.33301 -48.167 -10 -84.5s-13 -64.166 -19 -83.499l-100 -539c-2.66699 -21.333 -4 -36.333 -4 -45c0 -31.333 7.83301 -53.833 23.5 -67.5
s34.5 -20.5 56.5 -20.5c16.667 0 31.667 2.66699 45 8l14 -36c-28.667 -25.333 -66 -47.833 -112 -67.5s-84.333 -29.5 -115 -29.5c-75.333 0 -113 40.333 -113 121c0 43.333 9.66699 92 29 146c-20 -28.667 -44.667 -57.834 -74 -87.501s-62.666 -58.834 -99.999 -87.501
s-78.333 -52.167 -123 -70.5s-87.667 -27.5 -129 -27.5c-47.333 0 -88.166 17.667 -122.499 53s-51.5 84 -51.5 146c0 26.667 15.5 118.5 46.5 275.5s50.833 269.167 59.5 336.5c1.33301 5.33301 2 14.333 2 27c0 26.667 -4.33301 49 -13 67s-22 27 -40 27
c-6.66699 0 -12 -0.666992 -16 -2l-19 33c22 27.333 53.833 51.5 95.5 72.5s82.167 31.5 121.5 31.5c50.667 0 76 -32 76 -96c0 -36 -8.66699 -92 -26 -168c-9.33301 -45.333 -24 -109.833 -44 -193.5s-34.5 -149.5 -43.5 -197.5s-13.5 -89 -13.5 -123
c0 -42 8.16699 -73.667 24.5 -95s43.166 -32 80.499 -32c55.333 0 114 20.167 176 60.5s111.667 86.5 149 138.5c2 12.667 8 46.167 18 100.5l32 176.5l32 181v19c0 62.667 -17 94 -51 94c-6.66699 0 -12 -0.666992 -16 -2z" />
    <glyph glyph-name="v" unicode="v" horiz-adv-x="901" 
d="M176 698c-2.66699 22.667 -6.16895 43.667 -10.502 63s-8.83301 35.666 -13.5 48.999s-9.66699 25.166 -15 35.499s-10.5 18.666 -15.5 24.999s-10.333 11.833 -16 16.5s-10.667 7.83398 -15 9.50098s-8.66602 2.83398 -12.999 3.50098s-7.83301 0.833984 -10.5 0.500977
s-5 -0.5 -7 -0.5l-3 -1l-20 35c28.667 27.333 61 50.833 97 70.5s69 29.5 99 29.5c34 0 58.333 -9.33301 73 -28s22 -51 22 -97c0 -49.333 27.333 -249.333 82 -600c10.667 -61.333 21.334 -107 32.001 -137c80.667 108 154.834 229.833 222.501 365.5
s101.5 237.167 101.5 304.5c0 32.667 -7.66699 62.334 -23 89.001s-37.666 43.334 -66.999 50.001c17.333 30 51.333 45 102 45c82 0 123 -43 123 -129c0 -60 -17.333 -132 -52 -216s-71.334 -159.333 -110.001 -226c-50.667 -88.667 -129.667 -209.667 -237 -363l-80 -147
l-57 18c-26.667 5.33301 -48.5 17.666 -65.5 36.999s-28.333 38.166 -34 56.499s-8.83398 36.5 -9.50098 54.5z" />
    <glyph glyph-name="w" unicode="w" horiz-adv-x="1513" 
d="M176 698c-2.66699 22.667 -6.16895 43.6699 -10.502 63.0029s-8.83301 35.666 -13.5 48.999s-9.66699 25.166 -15 35.499s-10.5 18.666 -15.5 24.999s-10.333 11.833 -16 16.5s-10.667 7.83398 -15 9.50098s-8.66602 2.83398 -12.999 3.50098
s-7.83301 0.833984 -10.5 0.500977s-5 -0.5 -7 -0.5l-3 -1l-20 35c28.667 27.333 61 50.833 97 70.5s69 29.5 99 29.5c34 0 58.333 -9.33301 73 -28s22 -51 22 -97c0 -49.333 27.333 -249.333 82 -600c10.667 -61.333 21.334 -107 32.001 -137
c74.667 100 144.5 213.333 209.5 340s102.5 227 112.5 301c-4.66699 12.667 -9.66699 24 -15 34s-10.5 18.167 -15.5 24.5s-10.167 11.666 -15.5 15.999s-10.166 7.33301 -14.499 9s-8.66602 2.83398 -12.999 3.50098s-7.83301 0.833984 -10.5 0.500977s-5 -0.5 -7 -0.5
l-3 -1l-21 35c28.667 27.333 61 50.833 97 70.5s69.333 29.5 100 29.5c34 0 58.167 -9.5 72.5 -28.5s21.5 -51.167 21.5 -96.5c0 -43.333 27.333 -243.333 82 -600c10.667 -62.667 21.667 -108.334 33 -137.001c80.667 108.667 154.667 230.667 222 366
s101 236.666 101 303.999c0 32.667 -7.5 62.334 -22.5 89.001s-37.5 43.334 -67.5 50.001c18 30 52.333 45 103 45c81.333 0 122 -43 122 -129c0 -60 -17.167 -131.667 -51.5 -215s-70.833 -159 -109.5 -227c-52 -89.333 -131.333 -210.333 -238 -363l-80 -147l-57 18
c-26.667 5.33301 -48.5 17.666 -65.5 36.999s-28.333 38.166 -34 56.499s-8.83398 36.5 -9.50098 54.5l-63 469c-25.333 -52 -47.333 -93.667 -66 -125c-50.667 -88.667 -129.667 -209.667 -237 -363l-80 -147l-57 18c-26.667 5.33301 -48.5 17.666 -65.5 36.999
s-28.333 38.166 -34 56.499s-8.83398 36.5 -9.50098 54.5z" />
    <glyph glyph-name="x" unicode="x" horiz-adv-x="960" 
d="M432 850l82.001 -197.002l16 -49c156 132.667 234 236.334 234 311.001c0 38.667 -14.333 69.667 -43 93c13.333 9.33301 29.666 14 48.999 14c44 0 76.5 -12 97.5 -36s31.5 -50.333 31.5 -79c0 -16.667 -3.83301 -34.834 -11.5 -54.501s-18.167 -38.834 -31.5 -57.501
s-29 -38 -47 -58s-37 -39.167 -57 -57.5l-62 -56c-21.333 -19 -42.166 -36.5 -62.499 -52.5l-58.5 -47l183 -409l65 -115h-229l-23 76l-137 321l-10 -15c-6 -9.33301 -13.667 -18.666 -23 -27.999l-254 -272l-61 -82h-156l465 481l-90 207
c-14 28.667 -27.333 58.167 -40 88.5l-26.5 64c-5 12.333 -11.333 24.333 -19 36s-15.334 19 -23.001 22s-18.5 4.5 -32.5 4.5c-11.333 0 -20.333 -0.666992 -27 -2l-20 33c16 13.333 31.167 27.5 45.5 42.5s33.5 28.333 57.5 40s48.333 17.5 73 17.5
c28.667 0 50.667 -6.16699 66 -18.5s28 -32.166 38 -59.499s23.667 -62.666 41 -105.999z" />
    <glyph glyph-name="y" unicode="y" horiz-adv-x="921" 
d="M465 168c80.667 128.667 152.665 257.165 215.998 385.498s95 224.5 95 288.5c0 32.667 -7.5 62.334 -22.5 89.001s-37.5 43.334 -67.5 50.001c18 30 52 45 102 45c82 0 123 -43 123 -129c0 -60 -17.167 -131.667 -51.5 -215s-70.833 -159 -109.5 -227l-119 -200.5
l-138.5 -218c-52.333 -80.333 -103.666 -153.5 -153.999 -219.5s-100.833 -127.5 -151.5 -184.5s-99.5 -101.5 -146.5 -133.5s-88.5 -48 -124.5 -48c-47.333 0 -85.166 12 -113.499 36s-42.5 55.667 -42.5 95c0 31.333 5 60.666 15 87.999c2.66699 -16.667 17 -30 43 -40
s54 -15 84 -15c122 0 266 119.333 432 358c-18.667 8 -33.334 21 -44.001 39s-16.5 35.333 -17.5 52s-3.16699 32.334 -6.5 47.001l-86 587c-5.33301 42.667 -12.666 78.667 -21.999 108s-19.5 50.333 -30.5 63s-20.667 21.167 -29 25.5s-16.5 6.5 -24.5 6.5l-13 -2l-20 35
c28 26.667 61 50 99 70s72.667 30 104 30c34 0 58.167 -9.5 72.5 -28.5s21.5 -51.167 21.5 -96.5c-2 -50.667 25.333 -250.667 82 -600c4 -33.333 19 -80.333 45 -141z" />
    <glyph glyph-name="z" unicode="z" horiz-adv-x="966" 
d="M594 823l-550.998 -722.998c-12 -14 -26.333 -27.667 -43 -41l-25 -20v-39h693c48.667 0 90.667 8 126 24s60.166 35.833 74.499 59.5s20.333 49 18 76s-13.833 51.5 -34.5 73.5c-0.666992 -7.33301 -7.5 -17 -20.5 -29s-30.167 -24.5 -51.5 -37.5
s-49.333 -24.167 -84 -33.5s-70.667 -14 -108 -14h-322l21 17c14 11.333 27 24.666 39 39.999l553 731c10 14.667 23.333 28.667 40 42l25 20l2 39h-639c-32.667 0 -61.834 -7.83301 -87.501 -23.5s-43.5 -34.5 -53.5 -56.5s-15.167 -43.667 -15.5 -65s8 -38.833 25 -52.5
s39.833 -18.834 68.5 -15.501c0 12 12.5 30.667 37.5 56s59.5 38 103.5 38h277c-24 -16 -46.667 -38 -68 -66z" />
    <glyph glyph-name="braceleft" unicode="{" horiz-adv-x="681" 
d="M104 623c22 0 43.835 10 65.502 30s44.167 52 67.5 96s47 106.167 71 186.5s47 176.166 69 287.499c11.333 56.667 30.5 107 57.5 151s58 78.333 93 103s70.5 43 106.5 55s71.667 18 107 18c47.333 0 85.666 -15.667 114.999 -47
c-78 -0.666992 -146.833 -31.167 -206.5 -91.5s-97.167 -136.166 -112.5 -227.499c-15.333 -92.667 -36 -178.334 -62 -257.001s-52.5 -141.667 -79.5 -189s-52.833 -84.333 -77.5 -111s-46 -41 -64 -43c40.667 -53.333 61 -144.333 61 -273
c0 -78 -9.16699 -184.833 -27.5 -320.5s-27.5 -217.167 -27.5 -244.5c0 -114.667 60.667 -172 182 -172c10.667 0 28.667 1.33301 54 4c-56.667 -53.333 -120.334 -80 -191.001 -80c-61.333 0 -111.5 26.833 -150.5 80.5s-58.5 117.834 -58.5 192.501
c0 26 1.33301 45.667 4 59c49.333 254.667 74 441.667 74 561c0 46 -3.66699 83 -11 111s-16.333 46.833 -27 56.5s-24 16.167 -40 19.5z" />
    <glyph glyph-name="bar" unicode="|" horiz-adv-x="163" 
d="M164 1548v-2068h-164v2068h164z" />
    <glyph glyph-name="braceright" unicode="}" horiz-adv-x="681" 
d="M664 623c-63.333 0 -95.002 63.332 -95.002 189.999c0 22.667 7.5 91 22.5 205s22.5 200 22.5 258c0 85.333 -21.333 152.333 -64 201s-94.334 73 -155.001 73c-48.667 0 -93.667 -15.667 -135 -47c62.667 -0.666992 110.167 -19.167 142.5 -55.5
s48.5 -88.166 48.5 -155.499c0 -46 -6.16699 -118.5 -18.5 -217.5s-18.5 -164.833 -18.5 -197.5c0 -88 8.16699 -157.167 24.5 -207.5s36.166 -78.833 59.499 -85.5l-14 -8c-9.33301 -5.33301 -21.666 -15.166 -36.999 -29.499s-33.5 -38.333 -54.5 -72
s-42.333 -74.334 -64 -122.001s-44.5 -112.5 -68.5 -194.5s-45.667 -173.667 -65 -275c-6 -30.667 -10.667 -53.167 -14 -67.5s-8.66602 -34.666 -15.999 -60.999s-14.666 -46.333 -21.999 -60s-17.5 -29.5 -30.5 -47.5s-27.167 -31.333 -42.5 -40
s-34.166 -16.334 -56.499 -23.001s-47.166 -10 -74.499 -10c-8 0 -24.667 1.33301 -50 4c35.333 -53.333 87.333 -80 156 -80c67.333 0 131.166 30.667 191.499 92s98.833 141.333 115.5 240c22 124 44.5 232 67.5 324s44.333 163.5 64 214.5s40.5 92.5 62.5 124.5
s40.833 53.167 56.5 63.5s33.167 17.5 52.5 21.5z" />
    <glyph glyph-name="asciitilde" unicode="~" horiz-adv-x="1079" 
d="M184 535c16.667 12 29 20.4971 37 25.4971s21.167 10.833 39.5 17.5s35.833 9.33398 52.5 8.00098c22.667 -1.33301 64.5 -12.666 125.5 -33.999s114.167 -33.333 159.5 -36c66 -4 124.833 7.83301 176.5 35.5s83.5 70.5 95.5 128.5
c-54 -39.333 -104.333 -57.666 -151 -54.999c-24 2.66699 -67.5 14 -130.5 34s-111.833 31 -146.5 33c-63.333 4.66699 -119.5 -6 -168.5 -32s-78.833 -67.667 -89.5 -125z" />
    <glyph glyph-name="uni007F" horiz-adv-x="1024" 
 />
    <glyph glyph-name="nbspace" unicode="&#xa0;" horiz-adv-x="460" 
 />
    <glyph glyph-name="exclamdown" unicode="&#xa1;" horiz-adv-x="540" 
d="M311 1028l57.999 -12.001l-121 -987c-4 -36.667 -4.33301 -65.667 -1 -87s8 -36 14 -44l9 -13l-10 -47l-21 -11c-14 -7.33301 -32.5 -14.833 -55.5 -22.5s-43.833 -11.5 -62.5 -11.5c-35.333 0 -63.5 3.83301 -84.5 11.5s-35 20.167 -42 37.5s-10.167 36 -9.5 56
s5.83398 46.333 15.501 79s20.167 63.834 31.5 93.501l40.5 111.5c15.667 44.667 28.5 85.667 38.5 123zM275.999 1255c0 30.667 10.667 56.834 32 78.501s47 32.5 77 32.5c30.667 0 56.834 -10.833 78.501 -32.5s32.5 -47.834 32.5 -78.501
c0 -29.333 -10.833 -54.666 -32.5 -75.999s-47.834 -32 -78.501 -32c-29.333 0 -54.833 10.667 -76.5 32s-32.5 46.666 -32.5 75.999z" />
    <glyph glyph-name="cent" unicode="&#xa2;" horiz-adv-x="958" 
d="M485 -223h-99.999c16 82 29.667 147.333 41 196h-4c-96.667 0 -177.5 35.167 -242.5 105.5s-97.5 167.166 -97.5 290.499c0 93.333 15 180.666 45 261.999s70.333 150.333 121 207s109.334 102.334 176.001 137.001s136.334 55 209.001 61c4 24 8.83301 57.333 14.5 100
l11.5 87c31.333 6.66699 51.333 10 60 10c27.333 0 41 -13.667 41 -41c0 -9.33301 -1.16699 -20.166 -3.5 -32.499s-6 -28 -11 -47s-8.5 -33.5 -10.5 -43.5l-6 -33c71.333 -6 127.333 -23.667 168 -53s61 -67 61 -113c0 -16.667 -4.66699 -39 -14 -67
c-16.667 26 -47.834 48.333 -93.501 67s-95.834 29 -150.501 31l-129 -637l-26 -135c56 3.33301 114.5 21.166 175.5 53.499s113.833 74.5 158.5 126.5c1.33301 0 2 -6 2 -18c0 -46.667 -18 -92 -54 -136s-81.333 -80.667 -136 -110s-112.334 -49.666 -173.001 -60.999z
M293.001 528c-6.66699 -30 -10 -66.667 -10 -110c0 -72 14.333 -133.5 43 -184.5s72.334 -83.833 131.001 -98.5c90 442 141 696 153 762c-82.667 -11.333 -151.334 -50.833 -206.001 -118.5s-91.667 -151.167 -111 -250.5z" />
    <glyph glyph-name="sterling" unicode="&#xa3;" 
d="M74 551l11.9971 133.003c0 2.66699 45.667 4 137 4c0.666992 64.667 1.16699 119.167 1.5 163.5s2.5 86.666 6.5 126.999s11 80.833 21 121.5c7.33301 31.333 16.833 62 28.5 92s27.334 62.5 47.001 97.5s44 67 73 96s62.167 55.667 99.5 80s82 43.5 134 57.5
s108.333 21 169 21c41.333 0 83 -6.66699 125 -20s78.667 -34.5 110 -63.5s47 -62.5 47 -100.5c0 -44.667 -12.5 -78.667 -37.5 -102s-52.5 -35 -82.5 -35c-31.333 0 -58 10 -80 30c1.33301 0 3 4.5 5 13.5s3 18.833 3 29.5c0 32 -17 61.833 -51 89.5s-79 41.5 -135 41.5
c-74 0 -138 -32.333 -192 -97s-85 -141.334 -93 -230.001c-3.33301 -34 -6 -67.667 -8 -101s-3.33301 -61.833 -4 -85.5l-3 -105c-1.33301 -46.333 -2.66602 -87.833 -3.99902 -124.5c88 -2.66699 139.333 -4 154 -4h102c32 0 60.5 0.333008 85.5 1s46 2.33398 63 5.00098
s28.5 6 34.5 10c-3.33301 -20.667 -9.16602 -38.667 -17.499 -54s-18.333 -27.833 -30 -37.5s-25 -18 -40 -25s-31 -11.833 -48 -14.5s-34.833 -4.83398 -53.5 -6.50098s-37.5 -2.16699 -56.5 -1.5s-38.167 0.666992 -57.5 0h-142
c-3.33301 -109.333 -18.833 -236.5 -46.5 -381.5s-55.834 -238.167 -84.501 -279.5c158.667 -30.667 293.334 -46 404.001 -46c116 0 220.667 10.5 314 31.5s158.666 51.5 195.999 91.5c4 -18 6 -35.667 6 -53c0 -146 -136.667 -219 -410 -219
c-72 0 -171.5 9.16699 -298.5 27.5s-260.167 39.166 -399.5 62.499c39.333 86 71.333 200.5 96 343.5s40.334 284.5 47.001 424.5h-90c-16.667 0 -35.667 -2.66699 -57 -8z" />
    <glyph glyph-name="currency" unicode="&#xa4;" horiz-adv-x="1200" 
d="M35 731l42.9951 130.999c28 -4 71.667 -6 131 -6c68 156.667 168.5 281.834 301.5 375.501s280.167 140.5 441.5 140.5c80 0 148.167 -14.667 204.5 -44s84.5 -59.666 84.5 -90.999c0 -38 -19 -70.667 -57 -98c-3.33301 26.667 -29.5 51.667 -78.5 75
s-116.5 35 -202.5 35c-115.333 0 -221.333 -37.5 -318 -112.5s-168 -169.167 -214 -282.5h385h102c32 0 60.167 0.333008 84.5 1s45.166 2.33398 62.499 5.00098s29 6 35 10c-7.33301 -20.667 -16.666 -38.667 -27.999 -54s-23.666 -27.833 -36.999 -37.5
s-28 -17.834 -44 -24.501s-32.667 -11.5 -50 -14.5s-35.5 -5.33301 -54.5 -7s-37.833 -2.16699 -56.5 -1.5s-37.667 0.666992 -57 0h-379c-13.333 -60 -21 -114.667 -23 -164h267h102.5c32.333 0 61.166 0.333008 86.499 1s46.833 2.33398 64.5 5.00098
s29.834 6.33398 36.501 11.001c-7.33301 -20.667 -16.666 -38.834 -27.999 -54.501s-24 -28.334 -38 -38.001s-29.167 -17.834 -45.5 -24.501s-33.333 -11.5 -51 -14.5s-36.167 -5.33301 -55.5 -7s-38.5 -2.16699 -57.5 -1.5s-38.167 0.666992 -57.5 0h-222
c22.667 -236 153.334 -354 392.001 -354c36 0 84.833 9.33301 146.5 28s117.167 49 166.5 91c-16 -79.333 -59 -138.833 -129 -178.5s-160.333 -59.5 -271 -59.5c-154.667 0 -273.667 43.833 -357 131.5s-126.666 202.167 -129.999 343.5h-111
c-17.333 0 -28.666 -0.666992 -33.999 -2l43 131c18.667 -2.66699 54 -4 106 -4c3.33301 42.667 13.666 96.667 30.999 162h-94c-19.333 0 -31.666 -0.666992 -36.999 -2z" />
    <glyph glyph-name="yen" unicode="&#xa5;" horiz-adv-x="1030" 
d="M221 715c0 -1.33301 62.9912 -3.33398 188.991 -6.00098l-107 315l-37.5 105l-27 79.5c-5 15 -11.667 31.167 -20 48.5s-16.666 29.5 -24.999 36.5s-18.833 13.5 -31.5 19.5l20 35c43.333 18.667 90.666 28 141.999 28c42 0 73.333 -12.333 94 -37
c16.667 -78 45 -181.167 85 -309.5s71.667 -220.166 95 -275.499l59 80l226 301c46.667 64 58.334 123.333 35.001 178l20 35c44.667 18.667 84.334 28 119.001 28c32.667 0 66 -9.33301 100 -28c-4.66699 -24.667 -26 -67.834 -64 -129.501s-73.333 -112.167 -106 -151.5
l-289 -360h97c30.667 0 58 0.333008 82 1s44.667 2.33398 62 5.00098s29.333 6 36 10c-6 -16 -13.167 -30.333 -21.5 -43s-17.5 -23.667 -27.5 -33s-21.167 -17.5 -33.5 -24.5s-25 -12.667 -38 -17s-26.667 -8 -41 -11s-28.833 -5.16699 -43.5 -6.5s-29.667 -2.33301 -45 -3
s-30.5 -1 -45.5 -1h-44.5c-24.667 -73.333 -41.667 -135 -51 -185h14h107c35.333 0 67.166 0.333008 95.499 1s52.833 2.33398 73.5 5.00098s34.334 6.33398 41.001 11.001c-7.33301 -20.667 -17.166 -38.834 -29.499 -54.501s-26.166 -28.334 -41.499 -38.001
s-32.166 -18 -50.499 -25s-37.166 -11.667 -56.499 -14s-39.166 -4.5 -59.499 -6.5s-40.333 -2.66699 -60 -2s-39.167 0.666992 -58.5 0c-22.667 -112.667 -35 -204.667 -37 -276h-192l6 33c1.33301 8.66699 17.666 89.667 48.999 243c-65.333 2 -135.666 3 -210.999 3
c-19.333 0 -31.666 -1 -36.999 -3l25 132c0 -6 82.667 -9 248 -9l34 185c-65.333 1.33301 -135.666 2 -210.999 2c-18.667 0 -30.667 -0.666992 -36 -2z" />
    <glyph glyph-name="section" unicode="&#xa7;" horiz-adv-x="972" 
d="M315 -496c-52.667 0 -99.332 6.49902 -139.999 19.499s-71.667 29.5 -93 49.5s-37 40 -47 60s-14 38.667 -12 56l8 37c34 -34 75.5 -61.5 124.5 -82.5s96.167 -31.167 141.5 -30.5h18c16.667 70.667 27.5 141.167 32.5 211.5s3.16699 165 -5.5 284
s-26.334 263.833 -53.001 434.5c-38 244.667 -49 435 -33 571c14.667 116.667 60.167 214.834 136.5 294.501s164.5 119.5 264.5 119.5c52.667 0 99.667 -6.5 141 -19.5s72.833 -29.333 94.5 -49s37.334 -39.667 47.001 -60s13.167 -39.166 10.5 -56.499l-8 -36
c-34.667 34 -76.334 61.333 -125.001 82s-95.667 30.667 -141 30h-21c-16 -71.333 -26.333 -142 -31 -212s-2.5 -164.833 6.5 -284.5s26.833 -264.167 53.5 -433.5c38 -244 49 -434.333 33 -571c-14.667 -116.667 -60.167 -214.834 -136.5 -294.501
s-164.833 -119.5 -265.5 -119.5zM420.002 509.999c14.667 -110 25 -195.168 31 -255.501s10.333 -132.666 13 -216.999s-1.83301 -159 -13.5 -224s-30.167 -125.833 -55.5 -182.5c119.333 41.333 188.333 148 207 320c5.33301 50.667 4.66602 111.667 -2.00098 183
s-22.334 200.666 -47.001 387.999c-11.333 86.667 -19.833 154.334 -25.5 203.001s-10.834 109.5 -15.501 182.5s-5.66699 134 -3 183s9.33398 101.5 20.001 157.5s26 107 46 153c-117.333 -42 -185.333 -148.667 -204 -320c-2 -16 -3.16699 -32.5 -3.5 -49.5
s-0.166016 -35.167 0.500977 -54.5s1.83398 -40.5 3.50098 -63.5s4 -48.167 7 -75.5s6.5 -57.5 10.5 -90.5s8.66699 -69.167 14 -108.5z" />
    <glyph glyph-name="dieresis" unicode="&#xa8;" horiz-adv-x="786" 
d="M311 1313c0 -31.333 -9.99902 -58 -29.999 -80s-44 -33 -72 -33s-52.167 11 -72.5 33s-30.5 48.667 -30.5 80c0 30.667 10.333 57 31 79s44.667 33 72 33s51.166 -11 71.499 -33s30.5 -48.333 30.5 -79zM688.001 1313c0 -31.333 -9.99902 -58 -29.999 -80
s-44 -33 -72 -33s-52.167 10.833 -72.5 32.5s-30.5 48.5 -30.5 80.5c0 30.667 10.167 57 30.5 79s44.5 33 72.5 33c27.333 0 51.166 -11 71.499 -33s30.5 -48.333 30.5 -79z" />
    <glyph glyph-name="copyright" unicode="&#xa9;" horiz-adv-x="1617" 
d="M1505 727c0 -142 -29.833 -269.332 -89.5 -381.999s-145.167 -201.334 -256.5 -266.001s-239 -97 -383 -97c-194 0 -353 60.333 -477 181s-186 275.334 -186 464.001c0 105.333 18 203.666 54 294.999s86.333 169.833 151 235.5s143.667 117.167 237 154.5s195 56 305 56
c124 0 235.167 -27.167 333.5 -81.5s174.833 -130.333 229.5 -228s82 -208.167 82 -331.5zM1378 680.001c0 170 -52.501 309.833 -157.501 419.5s-239.5 164.5 -403.5 164.5c-104 0 -199.5 -25.167 -286.5 -75.5s-156.5 -121 -208.5 -212s-78 -192.5 -78 -304.5
c0 -82 14.667 -159 44 -231s69.5 -133.667 120.5 -185s112.333 -91.833 184 -121.5s147.834 -44.5 228.501 -44.5c74.667 0 146 14.833 214 44.5s127.167 70.167 177.5 121.5s90.5 114 120.5 188s45 152.667 45 236zM1079 879.001l-14.002 11.001
c-9.33301 8 -22.333 16.5 -39 25.5s-40.667 17.333 -72 25s-65.333 11.5 -102 11.5c-27.333 0 -54.666 -6 -81.999 -18s-50 -27 -68 -45c-47.333 -47.333 -71 -113 -71 -197c0 -69.333 19.167 -129 57.5 -179s92.833 -75 163.5 -75c44 0 88.167 11.667 132.5 35
s81.5 56 111.5 98l6 -22c4 -14.667 6 -26.334 6 -35.001c0 -54.667 -32.167 -102.167 -96.5 -142.5s-134.5 -60.5 -210.5 -60.5c-44 0 -85.167 6.66699 -123.5 20s-73 33.333 -104 60s-55.5 62.167 -73.5 106.5s-27 95.5 -27 153.5c0 115.333 33.333 213.833 100 295.5
s152.667 122.5 258 122.5c81.333 0 145.833 -18.5 193.5 -55.5s65.834 -81.833 54.501 -134.5z" />
    <glyph glyph-name="ordfeminine" unicode="&#xaa;" horiz-adv-x="858" 
 />
    <glyph glyph-name="guillemotleft" unicode="&#xab;" horiz-adv-x="1302" 
d="M127 506l47 41.001l332 319c82.667 80.667 153 121 211 121c32.667 0 58 -10.333 76 -31c-12.667 -4 -28.5 -13 -47.5 -27s-34.833 -27 -47.5 -39l-18 -18l-285 -303c-14 -14.667 -30.333 -28.834 -49 -42.501s-29 -20.5 -31 -20.5c2 0 9.66699 -7 23 -21
s23.666 -28.333 30.999 -43l170 -303l11 -17c8 -12 18.5 -25 31.5 -39s25.167 -23.333 36.5 -28c-29.333 -18.667 -58.666 -28 -87.999 -28c-55.333 -2 -110.333 37.333 -165 118l-205 320zM582 506.001l47.002 41.001l332 319c82.667 80.667 152.667 121 210 121
c33.333 0 58.666 -10.333 75.999 -31c-12.667 -4 -28.334 -13 -47.001 -27s-34 -27 -46 -39l-19 -18l-285 -303c-14 -14.667 -30.333 -28.834 -49 -42.501s-29 -20.5 -31 -20.5c2 0 9.66699 -7 23 -21s23.333 -28.333 30 -43l170 -303l11 -17c8 -12 18.667 -25 32 -39
s25.666 -23.333 36.999 -28c-29.333 -18.667 -58.666 -28 -87.999 -28c-54.667 -2 -110 37.333 -166 118l-205 320z" />
    <glyph glyph-name="logicalnot" unicode="&#xac;" horiz-adv-x="1095" 
 />
    <glyph glyph-name="registered" unicode="&#xae;" horiz-adv-x="1617" 
d="M842 293l-209 0.00292969c0 22 0.666992 92.5 2 211.5s2 217.167 2 294.5c0 37.333 -3 68.5 -9 93.5s-13.833 42 -23.5 51s-17.334 14.833 -23.001 17.5s-11.167 4 -16.5 4v43c52.667 27.333 100 41 142 41c31.333 0 52.333 -7.83301 63 -23.5s16 -38.834 16 -69.501
c0 -18 -2 -37 -6 -57c23.333 40 53 76.333 89 109s76 49 120 49c37.333 0 64.833 -9.33301 82.5 -28s26.5 -40 26.5 -64c0 -47.333 -31.333 -80.333 -94 -99c-6 17.333 -15.5 30.666 -28.5 39.999s-26.167 14 -39.5 14c-37.333 0 -68.166 -15 -92.499 -45
s-41.333 -66.833 -51 -110.5s-14.5 -93.167 -14.5 -148.5c0 -65.333 6.16699 -128.833 18.5 -190.5s27.5 -105.834 45.5 -132.501zM1505 727.003c0 -142 -29.833 -269.332 -89.5 -381.999s-145.167 -201.334 -256.5 -266.001s-239 -97 -383 -97c-194 0 -353 60.333 -477 181
s-186 275.334 -186 464.001c0 105.333 18 203.666 54 294.999s86.333 169.833 151 235.5s143.667 117.167 237 154.5s195 56 305 56c124 0 235.167 -27.167 333.5 -81.5s174.833 -130.333 229.5 -228s82 -208.167 82 -331.5zM1378 680.004
c0 170 -52.501 309.833 -157.501 419.5s-239.5 164.5 -403.5 164.5c-104 0 -199.5 -25.167 -286.5 -75.5s-156.5 -121 -208.5 -212s-78 -192.5 -78 -304.5c0 -82 14.667 -159 44 -231s69.5 -133.667 120.5 -185s112.333 -91.833 184 -121.5s147.834 -44.5 228.501 -44.5
c74.667 0 146 14.833 214 44.5s127.167 70.167 177.5 121.5s90.5 114 120.5 188s45 152.667 45 236z" />
    <glyph glyph-name="macron" unicode="&#xaf;" horiz-adv-x="686" 
d="M86 1225l26.998 131c-0.666992 -2.66699 12.166 -4.5 38.499 -5.5s51.833 -1.66699 76.5 -2s59.334 -0.5 104.001 -0.5h102c32 0 60.5 0.333008 85.5 1s46.167 2.33398 63.5 5.00098s29 6 35 10c-7.33301 -20.667 -16.5 -38.667 -27.5 -54s-23.333 -27.833 -37 -37.5
s-28.667 -18 -45 -25s-33.166 -11.833 -50.499 -14.5s-35.5 -4.83398 -54.5 -6.50098s-38 -2.16699 -57 -1.5s-38.167 0.666992 -57.5 0c-18 0 -48 0.333008 -90 1s-67.333 1 -76 1c-19.333 0 -31.666 -0.666992 -36.999 -2z" />
    <glyph glyph-name="degree" unicode="&#xb0;" horiz-adv-x="817" 
d="M739 1176c0 -95.333 -33 -176.666 -99 -243.999s-146.333 -101 -241 -101c-95.333 0 -176.5 33.667 -243.5 101s-100.5 148.666 -100.5 243.999c0 94 33.5 174.167 100.5 240.5s148.167 99.5 243.5 99.5c94.667 0 175 -33.167 241 -99.5s99 -146.5 99 -240.5zM623 1176
c0 64.667 -21.499 118.333 -64.499 161s-96.833 64 -161.5 64c-62 0 -115 -21.5 -159 -64.5s-66 -96.5 -66 -160.5c0 -61.333 22.167 -114.333 66.5 -159s97.166 -67 158.499 -67c64 0 117.667 22.167 161 66.5s65 97.5 65 159.5z" />
    <glyph glyph-name="plusminus" unicode="&#xb1;" horiz-adv-x="915" 
 />
    <glyph glyph-name="acute" unicode="&#xb4;" horiz-adv-x="692" 
d="M479 1483l123 -0.000976562l-106 -140c-96 -124 -200.667 -186 -314 -186c-14.667 0 -29.834 4.33301 -45.501 13s-23.5 15.334 -23.5 20.001c36.667 10.667 70.5 28.167 101.5 52.5s56.333 49.833 76 76.5l57.5 77.5c18.667 25 38.834 45.667 60.501 62
s45.167 24.5 70.5 24.5z" />
    <glyph glyph-name="paragraph" unicode="&#xb6;" horiz-adv-x="1288" 
d="M973 1352l102.503 -0.00390625c32.333 0 60.833 0.333008 85.5 1s46 2.33398 64 5.00098s30.333 6 37 10c-28 -77.333 -86.333 -121.666 -175 -132.999c-4 -15.333 -8.66699 -37.333 -14 -66c-191.333 -941.333 -298.333 -1496.33 -321 -1665h-101l240 1195
c44 224.667 75.333 401.334 94 530.001h-90c-4 -14 -8.66699 -34 -14 -60c-26.667 -124 -82.334 -397.667 -167.001 -821s-136.334 -704.666 -155.001 -843.999h-100l119 594c8.66699 41.333 16 70 22 86c-49.333 -14.667 -94.333 -22 -135 -22
c-73.333 0 -139 21.667 -197 65s-102.167 100.5 -132.5 171.5s-45.5 148.5 -45.5 232.5c0 93.333 19 184.5 57 273.5s87.5 166 148.5 231s131.667 117.333 212 157s161.166 59.5 242.499 59.5h223z" />
    <glyph glyph-name="periodcentered" unicode="&#xb7;" horiz-adv-x="528" 
d="M365 502c0 -30.667 -10.667 -56.834 -32 -78.501s-47 -32.5 -77 -32.5c-30.667 0 -56.834 10.833 -78.501 32.5s-32.5 47.834 -32.5 78.501c0 29.333 10.833 54.666 32.5 75.999s47.834 32 78.501 32c29.333 0 54.833 -10.667 76.5 -32s32.5 -46.666 32.5 -75.999z" />
    <glyph glyph-name="cedilla" unicode="&#xb8;" horiz-adv-x="823" 
d="M365 -14l42.9971 2.00195c-4 -5.33301 -7.33301 -10.833 -10 -16.5s-4.83398 -10.667 -6.50098 -15s-3.16699 -8.5 -4.5 -12.5s-2.16602 -7.33301 -2.49902 -10s-0.666016 -5 -0.999023 -7s-0.5 -3.33301 -0.5 -4v-1c0 -10.667 8.83301 -19.834 26.5 -27.501
s36.834 -14.167 57.501 -19.5s39.834 -16.666 57.501 -33.999s26.5 -39.333 26.5 -66c0 -66 -30 -125.167 -90 -177.5s-123.667 -78.5 -191 -78.5c-44 0 -78.5 7.66699 -103.5 23s-37.5 36.333 -37.5 63c0 23.333 6 44.333 18 63c11.333 -13.333 29.833 -23.833 55.5 -31.5
s53.167 -11.5 82.5 -11.5c34 0 65.667 9.5 95 28.5s44 40.833 44 65.5c0 12 -5.33301 22.667 -16 32s-23.5 17.166 -38.5 23.499s-30 13.166 -45 20.499s-27.833 16.833 -38.5 28.5s-16 25.5 -16 41.5c0 48.667 31.667 89 95 121z" />
    <glyph glyph-name="onesuperior" unicode="&#xb9;" horiz-adv-x="526" 
 />
    <glyph glyph-name="ordmasculine" unicode="&#xba;" horiz-adv-x="843" 
 />
    <glyph glyph-name="guillemotright" unicode="&#xbb;" horiz-adv-x="1316" 
d="M1163 506l-34.999 41l-204 319c-50.667 80.667 -106 121 -166 121c-32 0 -61.333 -10.333 -88 -31c11.333 -4 23.666 -13 36.999 -27s23.666 -27 30.999 -39l12 -18l170 -303c6.66699 -14 17.334 -28 32.001 -42l23 -21l-31 -21c-20 -14 -37 -28.333 -51 -43l-285 -303
l-42 -37c-28.667 -25.333 -52 -41 -70 -47c21.333 -18.667 46.333 -28 75 -28c56 -2 126.333 37.333 211 118l332 320zM709.001 506l-12.9971 14c-8.66699 9.33301 -16 18.333 -22 27l-205 319c-50 80.667 -105.333 121 -166 121c-30.667 0 -60 -10.333 -88 -31
c11.333 -4 23.666 -13 36.999 -27s24 -27 32 -39l11 -18l170 -303c6.66699 -14 17.667 -28 33 -42l22 -21l-30 -21c-20.667 -14 -38 -28.333 -52 -43l-284 -303l-43 -37c-28.667 -25.333 -52 -41 -70 -47c21.333 -18.667 46.666 -28 75.999 -28
c55.333 -2 125.666 37.333 210.999 118l331 320z" />
    <glyph glyph-name="onequarter" unicode="&#xbc;" horiz-adv-x="1267" 
 />
    <glyph glyph-name="onehalf" unicode="&#xbd;" horiz-adv-x="1267" 
 />
    <glyph glyph-name="questiondown" unicode="&#xbf;" horiz-adv-x="849" 
d="M592 1006l44.999 22c74 -39.333 111 -89.666 111 -150.999c0 -14 -1 -24.333 -3 -31c-8.66699 -44.667 -25.334 -88.667 -50.001 -132s-53.167 -82.666 -85.5 -117.999s-67.333 -70.666 -105 -105.999l-109.5 -103.5c-35.333 -33.667 -67.666 -67.5 -96.999 -101.5
s-52.833 -70.833 -70.5 -110.5s-26.5 -79.5 -26.5 -119.5c0 -103.333 58.667 -155 176 -155c41.333 0 80 15.167 116 45.5s54 71.833 54 124.5c0 4 -0.333008 9.66699 -1 17s-1 13 -1 17c24 28.667 56 43 96 43c31.333 0 54.166 -8.33301 68.499 -25
s21.5 -36.334 21.5 -59.001c0 -54 -19.167 -102 -57.5 -144s-86 -73.5 -143 -94.5s-117.167 -31.5 -180.5 -31.5c-101.333 0 -179.5 28.333 -234.5 85s-82.5 130.667 -82.5 222c0 50.667 10.833 100.667 32.5 150s49.834 94.5 84.501 135.5s73 81.333 115 121l126 114
c42 36.333 80.333 71.5 115 105.5s62.834 69.167 84.501 105.5s32.5 71.166 32.5 104.499c0 27.333 -10.333 50.666 -31 69.999zM572.999 1255c0 30.667 10.667 56.834 32 78.501s47 32.5 77 32.5c30.667 0 56.834 -10.833 78.501 -32.5s32.5 -47.834 32.5 -78.501
c0 -29.333 -10.833 -54.666 -32.5 -75.999s-47.834 -32 -78.501 -32c-29.333 0 -54.833 10.667 -76.5 32s-32.5 46.666 -32.5 75.999z" />
    <glyph glyph-name="Agrave" unicode="&#xc0;" 
d="M571 1737l-150.998 -0.000976562l59 -99c32.667 -53.333 69.167 -93.166 109.5 -119.499s93.5 -39.5 159.5 -39.5c38 0 69.333 12.333 94 37c-32.667 10.667 -60.334 25.667 -83.001 45s-39.667 38.833 -51 58.5l-33 56.5c-10.667 18 -24.334 32.667 -41.001 44
s-37.667 17 -63 17zM35.002 -0.000976562l-146.001 0.00292969l678 1221c15.333 31.333 32 57.666 50 78.999s37.333 37.5 58 48.5s38 19 52 24s32.333 9.5 55 13.5s37.667 7 45 9c0 -44.667 5 -102.667 15 -174l151 -1057c4 -52.667 16.333 -107.334 37 -164.001h-231
c0.666992 6.66699 0.5 18.167 -0.5 34.5s-1.5 28.166 -1.5 35.499c-29.333 209.333 -48.666 343 -57.999 401h-456l-238 -444c-2.66699 -5.33301 -6 -14.333 -10 -27zM641.001 1153l-303 -584.001h391c-8 49.333 -23.5 155.333 -46.5 318s-36.833 251.334 -41.5 266.001z
" />
    <glyph glyph-name="Aacute" unicode="&#xc1;" 
d="M1004 1737h151.002l-100 -99c-54.667 -54 -106.834 -94 -156.501 -120s-107.5 -39 -173.5 -39c-36 0 -62 12.333 -78 37c36.667 10.667 70 25.667 100 45s54.5 38.833 73.5 58.5l55 56.5c17.667 18 37.167 32.667 58.5 44s44.666 17 69.999 17zM35.002 0
l-146.001 0.00292969l678 1221c15.333 31.333 32 57.666 50 78.999s37.333 37.5 58 48.5s38 19 52 24s32.333 9.5 55 13.5s37.667 7 45 9c0 -44.667 5 -102.667 15 -174l151 -1057c4 -52.667 16.333 -107.334 37 -164.001h-231c0.666992 6.66699 0.5 18.167 -0.5 34.5
s-1.5 28.166 -1.5 35.499c-29.333 209.333 -48.666 343 -57.999 401h-456l-238 -444c-2.66699 -5.33301 -6 -14.333 -10 -27zM641.001 1153l-303 -584.001h391c-8 49.333 -23.5 155.333 -46.5 318s-36.833 251.334 -41.5 266.001z" />
    <glyph glyph-name="Acircumflex" unicode="&#xc2;" 
d="M786 1729h18.998c18 0 36.167 -7.5 54.5 -22.5s36 -33.667 53 -56l51.5 -67.5c17.333 -22.667 37.5 -43 60.5 -61s46.167 -29 69.5 -33c0 -3.33301 -10.667 -8.66602 -32 -15.999s-40.666 -11 -57.999 -11c-66 0 -119.5 16.667 -160.5 50s-68.167 80.333 -81.5 141
c-27.333 -41.333 -53.166 -74.5 -77.499 -99.5s-57 -46.5 -98 -64.5s-87.833 -27 -140.5 -27c-17.333 0 -35.166 3.5 -53.499 10.5s-27.5 12.5 -27.5 16.5c31.333 4.66699 67.166 20.167 107.499 46.5s76 53.666 107 81.999s62.5 54 94.5 77s56.667 34.5 74 34.5h38z
M34.998 0l-146.001 0.00292969l678 1221c15.333 31.333 32 57.666 50 78.999s37.333 37.5 58 48.5s38 19 52 24s32.333 9.5 55 13.5s37.667 7 45 9c0 -44.667 5 -102.667 15 -174l151 -1057c4 -52.667 16.333 -107.334 37 -164.001h-231
c0.666992 6.66699 0.5 18.167 -0.5 34.5s-1.5 28.166 -1.5 35.499c-29.333 209.333 -48.666 343 -57.999 401h-456l-238 -444c-2.66699 -5.33301 -6 -14.333 -10 -27zM640.997 1153l-303 -584.001h391c-8 49.333 -23.5 155.333 -46.5 318s-36.833 251.334 -41.5 266.001z
" />
    <glyph glyph-name="Atilde" unicode="&#xc3;" 
d="M336 1522l26.501 14.501c9 5 19.167 10 30.5 15s22.666 9.5 33.999 13.5s23.5 7.33301 36.5 10s25.833 4 38.5 4c28 0 58.5 -6.5 91.5 -19.5s71 -26 114 -39s91.167 -19.5 144.5 -19.5c76.667 0 147 15.167 211 45.5s109.667 75.166 137 134.499
c-77.333 -39.333 -140.666 -59 -189.999 -59c-36.667 0 -91.334 11 -164.001 33s-132.667 33 -180 33c-78 0 -146.5 -13 -205.5 -39s-100.5 -68.333 -124.5 -127zM35.001 0.000976562l-146.001 0.00292969l678 1221c15.333 31.333 32 57.666 50 78.999s37.333 37.5 58 48.5
s38 19 52 24s32.333 9.5 55 13.5s37.667 7 45 9c0 -44.667 5 -102.667 15 -174l151 -1057c4 -52.667 16.333 -107.334 37 -164.001h-231c0.666992 6.66699 0.5 18.167 -0.5 34.5s-1.5 28.166 -1.5 35.499c-29.333 209.333 -48.666 343 -57.999 401h-456l-238 -444
c-2.66699 -5.33301 -6 -14.333 -10 -27zM641 1153l-303 -584.001h391c-8 49.333 -23.5 155.333 -46.5 318s-36.833 251.334 -41.5 266.001z" />
    <glyph glyph-name="Adieresis" unicode="&#xc4;" 
d="M637 1599c0 -31.333 -9.99902 -57.833 -29.999 -79.5s-44 -32.5 -72 -32.5s-52.167 10.833 -72.5 32.5s-30.5 48.167 -30.5 79.5c0 30.667 10.167 57.167 30.5 79.5s44.5 33.5 72.5 33.5c27.333 0 51.166 -11.167 71.499 -33.5s30.5 -48.833 30.5 -79.5zM1116 1599
c0 -31.333 -9.99902 -57.833 -29.999 -79.5s-44 -32.5 -72 -32.5s-52.167 10.833 -72.5 32.5s-30.5 48.167 -30.5 79.5c0 30.667 10.167 57.167 30.5 79.5s44.5 33.5 72.5 33.5c27.333 0 51.166 -11.167 71.499 -33.5s30.5 -48.833 30.5 -79.5zM35.002 0
l-146.001 0.00292969l678 1221c15.333 31.333 32 57.666 50 78.999s37.333 37.5 58 48.5s38 19 52 24s32.333 9.5 55 13.5s37.667 7 45 9c0 -44.667 5 -102.667 15 -174l151 -1057c4 -52.667 16.333 -107.334 37 -164.001h-231c0.666992 6.66699 0.5 18.167 -0.5 34.5
s-1.5 28.166 -1.5 35.499c-29.333 209.333 -48.666 343 -57.999 401h-456l-238 -444c-2.66699 -5.33301 -6 -14.333 -10 -27zM641.001 1153l-303 -584.001h391c-8 49.333 -23.5 155.333 -46.5 318s-36.833 251.334 -41.5 266.001z" />
    <glyph glyph-name="Aring" unicode="&#xc5;" 
d="M35 0l-146.001 0.00292969l678 1221c15.333 31.333 32 57.666 50 78.999s37.333 37.5 58 48.5s38 19 52 24s32.333 9.5 55 13.5s37.667 7 45 9c0 -44.667 5 -102.667 15 -174l151 -1057c4 -52.667 16.333 -107.334 37 -164.001h-231
c0.666992 6.66699 0.5 18.167 -0.5 34.5s-1.5 28.166 -1.5 35.499c-29.333 209.333 -48.666 343 -57.999 401h-456l-238 -444c-2.66699 -5.33301 -6 -14.333 -10 -27zM640.999 1153l-303 -584.001h391c-8 49.333 -23.5 155.333 -46.5 318s-36.833 251.334 -41.5 266.001z
M853.999 1794c-9.33301 2.66699 -23.667 4.00098 -43 4.00098c-54 0 -99.167 -17 -135.5 -51s-54.5 -80.333 -54.5 -139c0 -51.333 16.833 -90.5 50.5 -117.5s73.5 -40.5 119.5 -40.5c53.333 0 98.833 17.667 136.5 53s56.5 80 56.5 134c0 40.667 -12.333 75.167 -37 103.5
s-55.667 46.166 -93 53.499zM782.998 1506c-22.667 4 -41.334 16 -56.001 36s-22 45.333 -22 76c0 43.333 9.33301 75.333 28 96s40.667 31 66 31c28.667 0 52.167 -9.83301 70.5 -29.5s27.5 -47.5 27.5 -83.5c0 -44 -9.66699 -76.5 -29 -97.5s-41.666 -31.5 -66.999 -31.5
c-2 0 -5 0.5 -9 1.5s-7 1.5 -9 1.5z" />
    <glyph glyph-name="AE" unicode="&#xc6;" horiz-adv-x="1527" 
d="M731 1352l396.997 0.00195312l347 6c17.333 -27.333 22.333 -68.833 15 -124.5s-18.666 -90.167 -33.999 -103.5h-39c0 31.333 -17.667 57.5 -53 78.5s-80.333 32.5 -135 34.5l-170 6c0 -1.33301 -1.33301 -8.66602 -4 -21.999l-41.5 -208l-63.5 -312h310
c18.667 0 34.667 2.16699 48 6.5s22 8.5 26 12.5l7 7l-4 -41c-9.33301 -46 -29.5 -76.167 -60.5 -90.5s-77.5 -21.5 -139.5 -21.5h-211c-27.333 -130 -54 -275 -80 -435v-16h379c18.667 0 34.667 2.16699 48 6.5s22 8.83301 26 13.5l6 7l-1 -13
c0 -8.66699 -1.33301 -18 -4 -28c-3.33301 -18.667 -9 -34.834 -17 -48.501s-18.333 -24.5 -31 -32.5s-24.667 -14.5 -36 -19.5s-25.666 -8.5 -42.999 -10.5s-30.666 -3.16699 -39.999 -3.5s-22.333 -0.5 -39 -0.5h-486c14.667 52 23 84 25 96l72 375h-353l-282 -430
c-3.33301 -4.66699 -7.5 -12.334 -12.5 -23.001s-7.83301 -16.667 -8.5 -18h-160l811 1202c12 19.333 19 36.333 21 51c4 15.333 0 36.666 -12 63.999zM796.997 1143l-379 -574h305l100 521c3.33301 14.667 8.83301 41.167 16.5 79.5l16.5 81.5z" />
    <glyph glyph-name="Ccedilla" unicode="&#xc7;" horiz-adv-x="1277" 
d="M1077 311c1.33301 -2.66699 2.00488 -8.66309 2.00488 -17.9961c0 -76 -36.833 -141.667 -110.5 -197s-163.834 -92 -270.501 -110c-10.667 -19.333 -16 -40.666 -16 -63.999c0 -8.66699 5.83301 -16 17.5 -22s25.667 -11.667 42 -17s32.666 -11.5 48.999 -18.5
s30.333 -18.167 42 -33.5s17.5 -34 17.5 -56c0 -66 -30 -125.167 -90 -177.5s-123.667 -78.5 -191 -78.5c-44 0 -78.5 7.66699 -103.5 23s-37.5 36.333 -37.5 63c0 23.333 6 44.333 18 63c11.333 -13.333 29.833 -23.833 55.5 -31.5s53.167 -11.5 82.5 -11.5
c34 0 65.667 9.5 95 28.5s44 40.833 44 65.5c0 12 -5.33301 22.667 -16 32s-23.5 17.166 -38.5 23.499s-30 13.166 -45 20.499s-27.833 16.833 -38.5 28.5s-16 25.5 -16 41.5c0 44.667 24 81.334 72 110.001c0 1.33301 0.666992 2 2 2c-36 -2.66699 -62 -4 -78 -4
c-76.667 0 -144.5 13.167 -203.5 39.5s-106.5 63 -142.5 110s-63 101.333 -81 163s-27 129.5 -27 203.5c0 131.333 20.833 252.666 62.5 363.999s98 204.5 169 279.5s154 133.667 249 176s195.5 63.5 301.5 63.5c85.333 0 162.833 -16.667 232.5 -50
s111.5 -73.333 125.5 -120c-4.66699 -24 -24.167 -57.5 -58.5 -100.5s-68.5 -71.5 -102.5 -85.5l-29 26c1.33301 4.66699 2 11 2 19c0 17.333 -4 36.166 -12 56.499s-19.833 40.666 -35.5 60.999s-38.5 37.166 -68.5 50.499s-64.333 20 -103 20
c-82 0 -156.333 -21.167 -223 -63.5s-120.334 -97.5 -161.001 -165.5s-71.834 -142.333 -93.501 -223s-32.5 -162 -32.5 -244c0 -62.667 6.66699 -120 20 -172s33.666 -98.333 60.999 -139s63.5 -72.334 108.5 -95.001s97.167 -34 156.5 -34c65.333 0 136.5 17.333 213.5 52
s138.167 83.334 183.5 146.001z" />
    <glyph glyph-name="Egrave" unicode="&#xc8;" horiz-adv-x="1003" 
d="M510 1737l-151.999 -0.000976562l60 -99c32 -53.333 68.333 -93.166 109 -119.499s93.667 -39.5 159 -39.5c39.333 0 70.666 12.333 93.999 37c-32.667 10.667 -60.334 25.667 -83.001 45s-39.667 38.833 -51 58.5l-33 56.5c-10.667 18 -24.167 32.667 -40.5 44
s-37.166 17 -62.499 17zM291.001 1085c10 49.333 15.3281 90.5 15.9951 123.5s-1.83301 55 -7.5 66s-10.5 23.833 -14.5 38.5l18 35h301l346 6c17.333 -27.333 22.5 -68.833 15.5 -124.5s-18.167 -90.167 -33.5 -103.5h-39c0 31.333 -17.667 57.5 -53 78.5
s-80.333 32.5 -135 34.5l-170 6c-35.333 -136 -71.666 -302.667 -108.999 -500h315c18.667 0 34.5 2.16699 47.5 6.5s21.5 8.83301 25.5 13.5l5 7l-2 -41c-4 -22 -11.833 -40.667 -23.5 -56s-23.5 -26.666 -35.5 -33.999s-28.333 -12.833 -49 -16.5
s-36.334 -5.66699 -47.001 -6s-26.667 -0.5 -48 -0.5c-1.33301 0 -17.666 0.333008 -48.999 1s-60.833 1.33398 -88.5 2.00098s-53.5 0.666992 -77.5 0c-36 -194.667 -64 -354.667 -84 -480v-12h381c18.667 0 34.834 2.16699 48.501 6.5s22.834 8.83301 27.501 13.5l6 7
l-4 -41c-4 -22 -11.833 -40.667 -23.5 -56s-23.667 -26.833 -36 -34.5s-28.666 -13.334 -48.999 -17.001s-36.166 -5.83398 -47.499 -6.50098s-27 -1 -47 -1h-487l27 139z" />
    <glyph glyph-name="Eacute" unicode="&#xc9;" horiz-adv-x="1003" 
d="M793 1737h151.002l-100 -99c-56 -54 -108.333 -94 -157 -120s-106.334 -39 -173.001 -39c-36 0 -62 12.333 -78 37c36.667 10.667 70 25.667 100 45s54.5 38.833 73.5 58.5l55 56.5c17.667 18 37.167 32.667 58.5 44s44.666 17 69.999 17zM291.002 1085
c10 49.333 15.3281 90.5 15.9951 123.5s-1.83301 55 -7.5 66s-10.5 23.833 -14.5 38.5l18 35h301l346 6c17.333 -27.333 22.5 -68.833 15.5 -124.5s-18.167 -90.167 -33.5 -103.5h-39c0 31.333 -17.667 57.5 -53 78.5s-80.333 32.5 -135 34.5l-170 6
c-35.333 -136 -71.666 -302.667 -108.999 -500h315c18.667 0 34.5 2.16699 47.5 6.5s21.5 8.83301 25.5 13.5l5 7l-2 -41c-4 -22 -11.833 -40.667 -23.5 -56s-23.5 -26.666 -35.5 -33.999s-28.333 -12.833 -49 -16.5s-36.334 -5.66699 -47.001 -6s-26.667 -0.5 -48 -0.5
c-1.33301 0 -17.666 0.333008 -48.999 1s-60.833 1.33398 -88.5 2.00098s-53.5 0.666992 -77.5 0c-36 -194.667 -64 -354.667 -84 -480v-12h381c18.667 0 34.834 2.16699 48.501 6.5s22.834 8.83301 27.501 13.5l6 7l-4 -41c-4 -22 -11.833 -40.667 -23.5 -56
s-23.667 -26.833 -36 -34.5s-28.666 -13.334 -48.999 -17.001s-36.166 -5.83398 -47.499 -6.50098s-27 -1 -47 -1h-487l27 139z" />
    <glyph glyph-name="Ecircumflex" unicode="&#xca;" horiz-adv-x="1003" 
d="M698 1729h18.999c18 0 36.167 -7.5 54.5 -22.5s36 -33.667 53 -56l51.5 -67.5c17.333 -22.667 37.5 -43 60.5 -61s46.167 -29 69.5 -33c0 -3.33301 -10.667 -8.66602 -32 -15.999s-41 -11 -59 -11c-65.333 0 -118.5 16.667 -159.5 50s-68.167 80.333 -81.5 141
c-27.333 -41.333 -53.166 -74.5 -77.499 -99.5s-57 -46.5 -98 -64.5s-87.833 -27 -140.5 -27c-17.333 0 -35.333 3.5 -54 10.5s-28 12.5 -28 16.5c32 4.66699 68.167 20.167 108.5 46.5s76 53.666 107 81.999s62.333 54 94 77s56.167 34.5 73.5 34.5h39zM290.999 1085
c10 49.333 15.3281 90.5 15.9951 123.5s-1.83301 55 -7.5 66s-10.5 23.833 -14.5 38.5l18 35h301l346 6c17.333 -27.333 22.5 -68.833 15.5 -124.5s-18.167 -90.167 -33.5 -103.5h-39c0 31.333 -17.667 57.5 -53 78.5s-80.333 32.5 -135 34.5l-170 6
c-35.333 -136 -71.666 -302.667 -108.999 -500h315c18.667 0 34.5 2.16699 47.5 6.5s21.5 8.83301 25.5 13.5l5 7l-2 -41c-4 -22 -11.833 -40.667 -23.5 -56s-23.5 -26.666 -35.5 -33.999s-28.333 -12.833 -49 -16.5s-36.334 -5.66699 -47.001 -6s-26.667 -0.5 -48 -0.5
c-1.33301 0 -17.666 0.333008 -48.999 1s-60.833 1.33398 -88.5 2.00098s-53.5 0.666992 -77.5 0c-36 -194.667 -64 -354.667 -84 -480v-12h381c18.667 0 34.834 2.16699 48.501 6.5s22.834 8.83301 27.501 13.5l6 7l-4 -41c-4 -22 -11.833 -40.667 -23.5 -56
s-23.667 -26.833 -36 -34.5s-28.666 -13.334 -48.999 -17.001s-36.166 -5.83398 -47.499 -6.50098s-27 -1 -47 -1h-487l27 139z" />
    <glyph glyph-name="Edieresis" unicode="&#xcb;" horiz-adv-x="1003" 
d="M526 1599c0 -31.333 -9.99805 -57.833 -29.998 -79.5s-44 -32.5 -72 -32.5s-52 10.833 -72 32.5s-30 48.167 -30 79.5c0 30.667 10.167 57.167 30.5 79.5s44.166 33.5 71.499 33.5s51.166 -11.167 71.499 -33.5s30.5 -48.833 30.5 -79.5zM1006 1599
c0 -31.333 -10.166 -57.833 -30.499 -79.5s-44.5 -32.5 -72.5 -32.5s-52 10.833 -72 32.5s-30 48.167 -30 79.5c0 30.667 10.167 57.167 30.5 79.5s44.166 33.5 71.499 33.5c28 0 52.167 -11.167 72.5 -33.5s30.5 -48.833 30.5 -79.5zM291.003 1085
c10 49.333 15.3281 90.5 15.9951 123.5s-1.83301 55 -7.5 66s-10.5 23.833 -14.5 38.5l18 35h301l346 6c17.333 -27.333 22.5 -68.833 15.5 -124.5s-18.167 -90.167 -33.5 -103.5h-39c0 31.333 -17.667 57.5 -53 78.5s-80.333 32.5 -135 34.5l-170 6
c-35.333 -136 -71.666 -302.667 -108.999 -500h315c18.667 0 34.5 2.16699 47.5 6.5s21.5 8.83301 25.5 13.5l5 7l-2 -41c-4 -22 -11.833 -40.667 -23.5 -56s-23.5 -26.666 -35.5 -33.999s-28.333 -12.833 -49 -16.5s-36.334 -5.66699 -47.001 -6s-26.667 -0.5 -48 -0.5
c-1.33301 0 -17.666 0.333008 -48.999 1s-60.833 1.33398 -88.5 2.00098s-53.5 0.666992 -77.5 0c-36 -194.667 -64 -354.667 -84 -480v-12h381c18.667 0 34.834 2.16699 48.501 6.5s22.834 8.83301 27.501 13.5l6 7l-4 -41c-4 -22 -11.833 -40.667 -23.5 -56
s-23.667 -26.833 -36 -34.5s-28.666 -13.334 -48.999 -17.001s-36.166 -5.83398 -47.499 -6.50098s-27 -1 -47 -1h-487l27 139z" />
    <glyph glyph-name="Igrave" unicode="&#xcc;" horiz-adv-x="618" 
d="M328 1737l-152 -0.000976562l60 -99c32 -53.333 68.333 -93.166 109 -119.499s93.667 -39.5 159 -39.5c38 0 69.333 12.333 94 37c-32.667 10.667 -60.334 25.667 -83.001 45s-39.667 38.833 -51 58.5l-33 56.5c-10.667 18 -24.167 32.667 -40.5 44
s-37.166 17 -62.499 17zM322 -0.000976562l-222 0.000976562c12.667 50 83.667 413.333 213 1090c10 52 15 94.333 15 127c0 23.333 -3 43.666 -9 60.999s-11.333 29.666 -16 36.999l21 35l48 13c32 8.66699 64.333 13 97 13c41.333 0 77.666 -8 108.999 -24
c-69.333 -295.333 -127.666 -565.666 -174.999 -810.999c-56 -300 -84 -473.667 -84 -521c0 -4 0.5 -8.16699 1.5 -12.5s1.5 -6.83301 1.5 -7.5z" />
    <glyph glyph-name="Iacute" unicode="&#xcd;" horiz-adv-x="618" 
d="M657 1737h152.001l-100 -99c-54.667 -54 -106.834 -94 -156.501 -120s-107.5 -39 -173.5 -39c-36.667 0 -62.667 12.333 -78 37c36.667 10.667 70 25.667 100 45s54.5 38.833 73.5 58.5l55 56.5c17.667 18 37 32.667 58 44s44.167 17 69.5 17zM322.001 0
l-222 0.000976562c12.667 50 83.667 413.333 213 1090c10 52 15 94.333 15 127c0 23.333 -3 43.666 -9 60.999s-11.333 29.666 -16 36.999l21 35l48 13c32 8.66699 64.333 13 97 13c41.333 0 77.666 -8 108.999 -24c-69.333 -295.333 -127.666 -565.666 -174.999 -810.999
c-56 -300 -84 -473.667 -84 -521c0 -4 0.5 -8.16699 1.5 -12.5s1.5 -6.83301 1.5 -7.5z" />
    <glyph glyph-name="Icircumflex" unicode="&#xce;" horiz-adv-x="618" 
d="M510 1729l17.999 0.00195312c18 0 36.333 -7.5 55 -22.5s36.334 -33.667 53.001 -56l51.5 -67.5c17.667 -22.667 37.834 -43 60.501 -61s45.667 -29 69 -33c0 -3.33301 -10.5 -8.66602 -31.5 -15.999s-40.5 -11 -58.5 -11c-65.333 0 -118.5 16.667 -159.5 50
s-68.5 80.333 -82.5 141c-20 -30.667 -39 -56.334 -57 -77.001s-39.333 -40.334 -64 -59.001s-53.167 -32.5 -85.5 -41.5s-68.5 -13.5 -108.5 -13.5c-17.333 0 -35.333 3.5 -54 10.5s-28 12.5 -28 16.5c31.333 4.66699 67.166 20.167 107.499 46.5s76 53.666 107 81.999
s62.5 54 94.5 77s56.667 34.5 74 34.5h39zM321.999 0.00195312l-222 0.000976562c12.667 50 83.667 413.333 213 1090c10 52 15 94.333 15 127c0 23.333 -3 43.666 -9 60.999s-11.333 29.666 -16 36.999l21 35l48 13c32 8.66699 64.333 13 97 13
c41.333 0 77.666 -8 108.999 -24c-69.333 -295.333 -127.666 -565.666 -174.999 -810.999c-56 -300 -84 -473.667 -84 -521c0 -4 0.5 -8.16699 1.5 -12.5s1.5 -6.83301 1.5 -7.5z" />
    <glyph glyph-name="Idieresis" unicode="&#xcf;" horiz-adv-x="618" 
d="M367 1599c0 -31.333 -10.166 -57.833 -30.499 -79.5s-44.5 -32.5 -72.5 -32.5s-52 10.833 -72 32.5s-30 48.167 -30 79.5c0 30.667 10.167 57.167 30.5 79.5s44.166 33.5 71.499 33.5c28 0 52.167 -11.167 72.5 -33.5s30.5 -48.833 30.5 -79.5zM743.001 1599
c0 -31.333 -9.99805 -57.833 -29.998 -79.5s-44 -32.5 -72 -32.5s-52 10.833 -72 32.5s-30 48.167 -30 79.5c0 30.667 10.167 57.167 30.5 79.5s44.166 33.5 71.499 33.5s51.166 -11.167 71.499 -33.5s30.5 -48.833 30.5 -79.5zM322.003 0l-222 0.000976562
c12.667 50 83.667 413.333 213 1090c10 52 15 94.333 15 127c0 23.333 -3 43.666 -9 60.999s-11.333 29.666 -16 36.999l21 35l48 13c32 8.66699 64.333 13 97 13c41.333 0 77.666 -8 108.999 -24c-69.333 -295.333 -127.666 -565.666 -174.999 -810.999
c-56 -300 -84 -473.667 -84 -521c0 -4 0.5 -8.16699 1.5 -12.5s1.5 -6.83301 1.5 -7.5z" />
    <glyph glyph-name="Ntilde" unicode="&#xd1;" horiz-adv-x="1474" 
d="M465 1522l26.501 14.501c9 5 19.167 10 30.5 15s22.666 9.5 33.999 13.5s23.5 7.33301 36.5 10s25.833 4 38.5 4c28 0 58.5 -6.5 91.5 -19.5s71 -26 114 -39s91.167 -19.5 144.5 -19.5c76.667 0 147 15.167 211 45.5s109.667 75.166 137 134.499
c-77.333 -39.333 -140.666 -59 -189.999 -59c-36.667 0 -91.334 11 -164.001 33s-132.667 33 -180 33c-78 0 -146.5 -13 -205.5 -39s-100.5 -68.333 -124.5 -127zM393.001 948.001c-6 -31.333 -17.334 -84.1719 -34.001 -158.505s-28.334 -129.166 -35.001 -164.499
c-60 -324 -93 -532.333 -99 -625h-143l6 33l139 731l66 330c9.33301 53.333 13.333 96.5 12 129.5s-8.66602 63.5 -21.999 91.5l20 35l20 8c6.66699 2.66699 14 5.16699 22 7.5s15.833 4.33301 23.5 6s15.834 2.33398 24.501 2.00098s17 -1.5 25 -3.5l614 -948
c14 -19.333 25.667 -46 35 -80l14 -51l3 51c2.66699 34 6 60 10 78l127 674c19.333 106.667 15.666 180.334 -11.001 221.001l21 35c25.333 16 60 24 104 24c40.667 0 69.334 -7.33301 86.001 -22c-88.667 -383.333 -157.667 -703.666 -207 -960.999
c-30.667 -169.333 -51.667 -299.666 -63 -390.999h-111l-579 911l-27 52c-18 34.667 -28.333 59.667 -31 75c0 -25.333 -3.33301 -55.333 -10 -90z" />
    <glyph glyph-name="Ograve" unicode="&#xd2;" horiz-adv-x="1368" 
d="M721 1737l-151.999 -0.000976562l60 -99c32 -53.333 68.333 -93.166 109 -119.499s93.667 -39.5 159 -39.5c39.333 0 70.666 12.333 93.999 37c-32.667 10.667 -60.334 25.667 -83.001 45s-39.667 38.833 -51 58.5l-33 56.5c-10.667 18 -24.167 32.667 -40.5 44
s-37.166 17 -62.499 17zM872.001 1372c-100.667 0 -197.669 -21.1689 -291.002 -63.502s-175.666 -101 -246.999 -176s-128.5 -168.833 -171.5 -281.5s-64.5 -234.667 -64.5 -366c0 -156.667 37.167 -281.167 111.5 -373.5s166.833 -138.5 277.5 -138.5
s215.5 22.833 314.5 68.5s184.333 107.834 256 186.501s128.334 173.834 170.001 285.501s62.5 230.5 62.5 356.5c0 156.667 -38.333 279.5 -115 368.5s-177.667 133.5 -303 133.5zM607.999 95.9971c-86.667 0 -156.002 42.833 -208.002 128.5s-78 192.5 -78 320.5
c0 117.333 21.667 230.333 65 339s100.333 196 171 262s144 99 220 99c84.667 0 153.334 -41.333 206.001 -124s79 -188 79 -316c0 -118.667 -21.667 -233.167 -65 -343.5s-100.166 -198.833 -170.499 -265.5s-143.5 -100 -219.5 -100z" />
    <glyph glyph-name="Oacute" unicode="&#xd3;" horiz-adv-x="1368" 
d="M1065 1737h152.001l-101 -99c-54 -54 -105.833 -94 -155.5 -120s-107.834 -39 -174.501 -39c-36 0 -61.667 12.333 -77 37c36.667 10.667 70 25.667 100 45s54.5 38.833 73.5 58.5l55 56.5c17.667 18 37 32.667 58 44s44.167 17 69.5 17zM872.001 1372
c-100.667 0 -197.669 -21.1689 -291.002 -63.502s-175.666 -101 -246.999 -176s-128.5 -168.833 -171.5 -281.5s-64.5 -234.667 -64.5 -366c0 -156.667 37.167 -281.167 111.5 -373.5s166.833 -138.5 277.5 -138.5s215.5 22.833 314.5 68.5s184.333 107.834 256 186.501
s128.334 173.834 170.001 285.501s62.5 230.5 62.5 356.5c0 156.667 -38.333 279.5 -115 368.5s-177.667 133.5 -303 133.5zM607.999 95.998c-86.667 0 -156.002 42.833 -208.002 128.5s-78 192.5 -78 320.5c0 117.333 21.667 230.333 65 339s100.333 196 171 262
s144 99 220 99c84.667 0 153.334 -41.333 206.001 -124s79 -188 79 -316c0 -118.667 -21.667 -233.167 -65 -343.5s-100.166 -198.833 -170.499 -265.5s-143.5 -100 -219.5 -100z" />
    <glyph glyph-name="Ocircumflex" unicode="&#xd4;" horiz-adv-x="1368" 
d="M909 1729h18.998c18 0 36.167 -7.5 54.5 -22.5s35.833 -33.667 52.5 -56l51.5 -67.5c17.667 -22.667 37.834 -43 60.501 -61s46 -29 70 -33c0 -3.33301 -10.667 -8.66602 -32 -15.999s-41 -11 -59 -11c-65.333 0 -118.5 16.667 -159.5 50s-68.167 80.333 -81.5 141
c-27.333 -41.333 -53.166 -74.5 -77.499 -99.5s-57 -46.5 -98 -64.5s-87.833 -27 -140.5 -27c-17.333 0 -35.333 3.5 -54 10.5s-28 12.5 -28 16.5c32 4.66699 68.167 20.167 108.5 46.5s76 53.666 107 81.999s62.333 54 94 77s56.167 34.5 73.5 34.5h39zM871.998 1372
c-100.667 0 -197.669 -21.1689 -291.002 -63.502s-175.666 -101 -246.999 -176s-128.5 -168.833 -171.5 -281.5s-64.5 -234.667 -64.5 -366c0 -156.667 37.167 -281.167 111.5 -373.5s166.833 -138.5 277.5 -138.5s215.5 22.833 314.5 68.5s184.333 107.834 256 186.501
s128.334 173.834 170.001 285.501s62.5 230.5 62.5 356.5c0 156.667 -38.333 279.5 -115 368.5s-177.667 133.5 -303 133.5zM607.996 95.998c-86.667 0 -156.002 42.833 -208.002 128.5s-78 192.5 -78 320.5c0 117.333 21.667 230.333 65 339s100.333 196 171 262
s144 99 220 99c84.667 0 153.334 -41.333 206.001 -124s79 -188 79 -316c0 -118.667 -21.667 -233.167 -65 -343.5s-100.166 -198.833 -170.499 -265.5s-143.5 -100 -219.5 -100z" />
    <glyph glyph-name="Otilde" unicode="&#xd5;" horiz-adv-x="1368" 
d="M422 1522l26.501 14.501c9 5 19.167 10 30.5 15s22.666 9.5 33.999 13.5s23.5 7.33301 36.5 10s25.833 4 38.5 4c28 0 58.5 -6.5 91.5 -19.5s71 -26 114 -39s91.167 -19.5 144.5 -19.5c76.667 0 147 15.167 211 45.5s109.667 75.166 137 134.499
c-77.333 -39.333 -140.666 -59 -189.999 -59c-36.667 0 -91.334 11 -164.001 33s-132.667 33 -180 33c-78 0 -146.5 -13 -205.5 -39s-100.5 -68.333 -124.5 -127zM872.001 1372c-100.667 0 -197.669 -21.1689 -291.002 -63.502s-175.666 -101 -246.999 -176
s-128.5 -168.833 -171.5 -281.5s-64.5 -234.667 -64.5 -366c0 -156.667 37.167 -281.167 111.5 -373.5s166.833 -138.5 277.5 -138.5s215.5 22.833 314.5 68.5s184.333 107.834 256 186.501s128.334 173.834 170.001 285.501s62.5 230.5 62.5 356.5
c0 156.667 -38.333 279.5 -115 368.5s-177.667 133.5 -303 133.5zM607.999 95.999c-86.667 0 -156.002 42.833 -208.002 128.5s-78 192.5 -78 320.5c0 117.333 21.667 230.333 65 339s100.333 196 171 262s144 99 220 99c84.667 0 153.334 -41.333 206.001 -124
s79 -188 79 -316c0 -118.667 -21.667 -233.167 -65 -343.5s-100.166 -198.833 -170.499 -265.5s-143.5 -100 -219.5 -100z" />
    <glyph glyph-name="Odieresis" unicode="&#xd6;" horiz-adv-x="1368" 
d="M721 1599c0 -31.333 -10.166 -57.833 -30.499 -79.5s-44.5 -32.5 -72.5 -32.5s-52 10.833 -72 32.5s-30 48.167 -30 79.5c0 30.667 10.167 57.167 30.5 79.5s44.166 33.5 71.499 33.5c28 0 52.167 -11.167 72.5 -33.5s30.5 -48.833 30.5 -79.5zM1200 1599
c0 -31.333 -9.99902 -57.833 -29.999 -79.5s-44 -32.5 -72 -32.5s-52.167 10.833 -72.5 32.5s-30.5 48.167 -30.5 79.5c0 30.667 10.167 57.167 30.5 79.5s44.5 33.5 72.5 33.5c27.333 0 51.166 -11.167 71.499 -33.5s30.5 -48.833 30.5 -79.5zM872.002 1372
c-100.667 0 -197.669 -21.1689 -291.002 -63.502s-175.666 -101 -246.999 -176s-128.5 -168.833 -171.5 -281.5s-64.5 -234.667 -64.5 -366c0 -156.667 37.167 -281.167 111.5 -373.5s166.833 -138.5 277.5 -138.5s215.5 22.833 314.5 68.5s184.333 107.834 256 186.501
s128.334 173.834 170.001 285.501s62.5 230.5 62.5 356.5c0 156.667 -38.333 279.5 -115 368.5s-177.667 133.5 -303 133.5zM608 95.998c-86.667 0 -156.002 42.833 -208.002 128.5s-78 192.5 -78 320.5c0 117.333 21.667 230.333 65 339s100.333 196 171 262s144 99 220 99
c84.667 0 153.334 -41.333 206.001 -124s79 -188 79 -316c0 -118.667 -21.667 -233.167 -65 -343.5s-100.166 -198.833 -170.499 -265.5s-143.5 -100 -219.5 -100z" />
    <glyph glyph-name="Oslash" unicode="&#xd8;" horiz-adv-x="1368" 
d="M852 1372c-104 0 -202.169 -21.5039 -294.502 -64.5039s-172.166 -102.333 -239.499 -178s-120.5 -168.5 -159.5 -278.5s-58.5 -229 -58.5 -357c0 -114.667 20 -211 60 -289l-133 -131l69 -72c0 0.666992 13.333 14.5 40 41.5l77 79.5
c39.333 -49.333 86.166 -86.333 140.499 -111s111.166 -37 170.499 -37c92.667 0 180 16.833 262 50.5s152.833 79.167 212.5 136.5s111.334 123.333 155.001 198s76.334 153.834 98.001 237.501s32.5 167.834 32.5 252.501c0 112 -19.667 208.333 -59 289l72.5 65.5
c21.667 19 39.5 37.333 53.5 55s21 32.834 21 45.501c0 12 -4.66699 22.833 -14 32.5s-25.666 21.167 -48.999 34.5c-7.33301 -8 -26.333 -30 -57 -66s-56.667 -65 -78 -87c-40 50.667 -88 88.834 -144 114.501s-115.333 38.5 -178 38.5zM593.998 97.9961
c-52 0 -97.832 16.0029 -137.499 48.0029s-71.167 77 -94.5 135l689 688c12 -48.667 18 -103.334 18 -164.001c0 -77.333 -9.66699 -152.833 -29 -226.5s-45.333 -138.834 -78 -195.501s-69.334 -106.834 -110.001 -150.501s-83.5 -77 -128.5 -100
s-88.167 -34.5 -129.5 -34.5zM1018 1063l-682.002 -683.998c-9.33301 42 -14 92.333 -14 151c0 76.667 8.33301 151.667 25 225s39.834 139.166 69.501 197.499s63.334 109.666 101.001 153.999s78.667 78.5 123 102.5s88.833 36 133.5 36c52.667 0 100 -16 142 -48
s76 -76.667 102 -134z" />
    <glyph glyph-name="Ugrave" unicode="&#xd9;" horiz-adv-x="1357" 
d="M723 1737l-151.999 -0.000976562l60 -99c32 -53.333 68.333 -93.166 109 -119.499s93.667 -39.5 159 -39.5c39.333 0 70.666 12.333 93.999 37c-32.667 10.667 -60.334 25.667 -83.001 45s-39.667 38.833 -51 58.5l-33 56.5c-10.667 18 -24.167 32.667 -40.5 44
s-37.166 17 -62.499 17zM1149 443.999c-26.667 -136.667 -94.1699 -249.666 -202.503 -338.999s-241.5 -134 -399.5 -134c-50 0 -95 3.16699 -135 9.5s-77.333 17.166 -112 32.499s-63.667 35.333 -87 60s-41.5 56.167 -54.5 94.5s-19.5 82.833 -19.5 133.5
c0 35.333 3.66699 77.666 11 126.999c33.333 216 71.333 436.667 114 662c10 57.333 15 99.666 15 126.999c0 16.667 -1.16699 31.5 -3.5 44.5s-5.33301 23 -9 30s-7.16699 14.833 -10.5 23.5l20 35l48 13c32 8.66699 64 13 96 13c43.333 0 80 -8 110 -24
c-34.667 -149.333 -94.667 -448.333 -180 -897c-8 -40.667 -12 -77 -12 -109c0 -38.667 5.5 -72.667 16.5 -102s25 -52.333 42 -69s37.333 -30.167 61 -40.5s45.834 -17.166 66.501 -20.499s42.667 -5 66 -5c97.333 0 184.5 26.667 261.5 80s124.833 118 143.5 194l9 35
c5.33301 22.667 20 93.167 44 211.5l91 464.5c9.33301 47.333 14 87.333 14 120c0 42.667 -8.33301 76.334 -25 101.001l23 35c22.667 16 57.334 24 104.001 24c40.667 0 69.334 -7.33301 86.001 -22c-74 -311.333 -138 -614 -192 -908z" />
    <glyph glyph-name="Uacute" unicode="&#xda;" horiz-adv-x="1357" 
d="M1030 1737h152l-101 -99c-54 -54 -105.833 -94 -155.5 -120s-107.5 -39 -173.5 -39c-36.667 0 -62.667 12.333 -78 37c36.667 10.667 70 25.667 100 45s54.5 38.833 73.5 58.5l55 56.5c17.667 18 37 32.667 58 44s44.167 17 69.5 17zM1149 444
c-26.667 -136.667 -94.1699 -249.666 -202.503 -338.999s-241.5 -134 -399.5 -134c-50 0 -95 3.16699 -135 9.5s-77.333 17.166 -112 32.499s-63.667 35.333 -87 60s-41.5 56.167 -54.5 94.5s-19.5 82.833 -19.5 133.5c0 35.333 3.66699 77.666 11 126.999
c33.333 216 71.333 436.667 114 662c10 57.333 15 99.666 15 126.999c0 16.667 -1.16699 31.5 -3.5 44.5s-5.33301 23 -9 30s-7.16699 14.833 -10.5 23.5l20 35l48 13c32 8.66699 64 13 96 13c43.333 0 80 -8 110 -24c-34.667 -149.333 -94.667 -448.333 -180 -897
c-8 -40.667 -12 -77 -12 -109c0 -38.667 5.5 -72.667 16.5 -102s25 -52.333 42 -69s37.333 -30.167 61 -40.5s45.834 -17.166 66.501 -20.499s42.667 -5 66 -5c97.333 0 184.5 26.667 261.5 80s124.833 118 143.5 194l9 35c5.33301 22.667 20 93.167 44 211.5l91 464.5
c9.33301 47.333 14 87.333 14 120c0 42.667 -8.33301 76.334 -25 101.001l23 35c22.667 16 57.334 24 104.001 24c40.667 0 69.334 -7.33301 86.001 -22c-74 -311.333 -138 -614 -192 -908z" />
    <glyph glyph-name="Ucircumflex" unicode="&#xdb;" horiz-adv-x="1357" 
d="M893 1729l17.999 0.00195312c18 0 36.333 -7.5 55 -22.5s36.334 -33.667 53.001 -56l51.5 -67.5c17.667 -22.667 37.834 -43 60.501 -61s45.667 -29 69 -33c0 -3.33301 -10.5 -8.66602 -31.5 -15.999s-40.5 -11 -58.5 -11c-65.333 0 -118.5 16.667 -159.5 50
s-68.5 80.333 -82.5 141c-20 -30.667 -39 -56.334 -57 -77.001s-39.333 -40.334 -64 -59.001s-53.167 -32.5 -85.5 -41.5s-68.5 -13.5 -108.5 -13.5c-17.333 0 -35.333 3.5 -54 10.5s-28 12.5 -28 16.5c31.333 4.66699 67.166 20.167 107.499 46.5s76 53.666 107 81.999
s62.5 54 94.5 77s56.667 34.5 74 34.5h39zM1149 444.002c-26.667 -136.667 -94.1699 -249.666 -202.503 -338.999s-241.5 -134 -399.5 -134c-50 0 -95 3.16699 -135 9.5s-77.333 17.166 -112 32.499s-63.667 35.333 -87 60s-41.5 56.167 -54.5 94.5
s-19.5 82.833 -19.5 133.5c0 35.333 3.66699 77.666 11 126.999c33.333 216 71.333 436.667 114 662c10 57.333 15 99.666 15 126.999c0 16.667 -1.16699 31.5 -3.5 44.5s-5.33301 23 -9 30s-7.16699 14.833 -10.5 23.5l20 35l48 13c32 8.66699 64 13 96 13
c43.333 0 80 -8 110 -24c-34.667 -149.333 -94.667 -448.333 -180 -897c-8 -40.667 -12 -77 -12 -109c0 -38.667 5.5 -72.667 16.5 -102s25 -52.333 42 -69s37.333 -30.167 61 -40.5s45.834 -17.166 66.501 -20.499s42.667 -5 66 -5c97.333 0 184.5 26.667 261.5 80
s124.833 118 143.5 194l9 35c5.33301 22.667 20 93.167 44 211.5l91 464.5c9.33301 47.333 14 87.333 14 120c0 42.667 -8.33301 76.334 -25 101.001l23 35c22.667 16 57.334 24 104.001 24c40.667 0 69.334 -7.33301 86.001 -22c-74 -311.333 -138 -614 -192 -908z" />
    <glyph glyph-name="Udieresis" unicode="&#xdc;" horiz-adv-x="1357" 
d="M700 1599c0 -31.333 -9.99805 -57.833 -29.998 -79.5s-44 -32.5 -72 -32.5s-52 10.833 -72 32.5s-30 48.167 -30 79.5c0 30.667 10.167 57.167 30.5 79.5s44.166 33.5 71.499 33.5s51.166 -11.167 71.499 -33.5s30.5 -48.833 30.5 -79.5zM1180 1599
c0 -31.333 -10.166 -57.833 -30.499 -79.5s-44.5 -32.5 -72.5 -32.5s-52 10.833 -72 32.5s-30 48.167 -30 79.5c0 30.667 10.167 57.167 30.5 79.5s44.166 33.5 71.499 33.5c28 0 52.167 -11.167 72.5 -33.5s30.5 -48.833 30.5 -79.5zM1149 444
c-26.667 -136.667 -94.1699 -249.666 -202.503 -338.999s-241.5 -134 -399.5 -134c-50 0 -95 3.16699 -135 9.5s-77.333 17.166 -112 32.499s-63.667 35.333 -87 60s-41.5 56.167 -54.5 94.5s-19.5 82.833 -19.5 133.5c0 35.333 3.66699 77.666 11 126.999
c33.333 216 71.333 436.667 114 662c10 57.333 15 99.666 15 126.999c0 16.667 -1.16699 31.5 -3.5 44.5s-5.33301 23 -9 30s-7.16699 14.833 -10.5 23.5l20 35l48 13c32 8.66699 64 13 96 13c43.333 0 80 -8 110 -24c-34.667 -149.333 -94.667 -448.333 -180 -897
c-8 -40.667 -12 -77 -12 -109c0 -38.667 5.5 -72.667 16.5 -102s25 -52.333 42 -69s37.333 -30.167 61 -40.5s45.834 -17.166 66.501 -20.499s42.667 -5 66 -5c97.333 0 184.5 26.667 261.5 80s124.833 118 143.5 194l9 35c5.33301 22.667 20 93.167 44 211.5l91 464.5
c9.33301 47.333 14 87.333 14 120c0 42.667 -8.33301 76.334 -25 101.001l23 35c22.667 16 57.334 24 104.001 24c40.667 0 69.334 -7.33301 86.001 -22c-74 -311.333 -138 -614 -192 -908z" />
    <glyph glyph-name="germandbls" unicode="&#xdf;" horiz-adv-x="1171" 
d="M459 1167c20.667 78.667 56.999 141.665 108.999 188.998s112.667 71 182 71c113.333 0 170 -42.333 170 -127c0 -18.667 -1.66699 -33 -5 -43c-8 -40 -22.333 -80 -43 -120s-43.5 -75.167 -68.5 -105.5l-78.5 -95.5l-74.5 -93
c-22.333 -28.667 -40.833 -60.667 -55.5 -96s-22 -70.666 -22 -105.999c0 -30.667 7 -59.5 21 -86.5s31.5 -49.833 52.5 -68.5s43.667 -37.667 68 -57l68 -52.5c21 -15.667 38.5 -33.667 52.5 -54s21 -41.166 21 -62.499c0 -48.667 -20.5 -89.834 -61.5 -123.501
s-89.5 -50.5 -145.5 -50.5c-88 0 -152 14.167 -192 42.5s-60 59.166 -60 92.499c-24.667 -31.333 -37 -63.333 -37 -96c0 -46.667 25.667 -83.667 77 -111s111 -41 179 -41c72.667 0 141.167 15 205.5 45s117.5 74.833 159.5 134.5s63 128.167 63 205.5
c0 36 -7.5 69.5 -22.5 100.5s-33.5 56.833 -55.5 77.5s-46.167 41.167 -72.5 61.5s-50.5 38 -72.5 53s-40.5 31.833 -55.5 50.5s-22.5 37 -22.5 55c0 26 12.333 56.833 37 92.5s54.667 72.334 90 110.001l106.5 118c35.667 41 65.834 86.167 90.501 135.5s37 97.333 37 144
c0 61.333 -26.333 108 -79 140s-118.667 48 -198 48c-68.667 0 -131.834 -9.33301 -189.501 -28s-105.5 -42 -143.5 -70s-71.667 -61.5 -101 -100.5s-51.833 -76 -67.5 -111s-28.5 -71.167 -38.5 -108.5c-21.333 -76 -64.333 -116.667 -129 -122l-21 -62
c45.333 -20.667 68 -65.667 68 -135c0 -31.333 -3.33301 -62.666 -10 -93.999l-125 -662l-9 -51h199c0 42 1.33301 70.667 4 86l34 218c23.333 144.667 51.333 307.167 84 487.5s58.334 305.5 77.001 375.5z" />
    <glyph glyph-name="agrave" unicode="&#xe0;" horiz-adv-x="1038" 
d="M827 348c-9.33301 -73.333 -14.002 -124.334 -14.002 -153.001c0 -64.667 26 -97 78 -97c11.333 0 22.333 1.33301 33 4l16 4l14 -36l-32 -24c-21.333 -16 -50 -32.167 -86 -48.5s-68.333 -24.5 -97 -24.5c-29.333 0 -53.166 7.16699 -71.499 21.5s-30.5 32 -36.5 53
s-8.83301 44.833 -8.5 71.5s2.83301 51 7.5 73s10.334 42.667 17.001 62c-43.333 -80 -98.166 -146.833 -164.499 -200.5s-128.833 -80.5 -187.5 -80.5c-58 0 -108 28.333 -150 85s-63 137 -63 241c0 130 24.667 252 74 366s117.333 205.333 204 274s181 103 283 103
c27.333 0 79.166 -6.33301 155.499 -19s128.833 -20 157.5 -22l-51 -256c-10.667 -57.333 -36.667 -189.666 -78 -396.999zM751.998 906.999l-57.999 13.002c-38 8 -72 12 -102 12c-54.667 0 -106.834 -28.167 -156.501 -84.5s-89.667 -131.833 -120 -226.5
s-45.5 -194.334 -45.5 -299.001c0 -68.667 12.333 -119.334 37 -152.001s55.334 -49 92.001 -49c61.333 0 142.666 64 243.999 192c64.667 276 101 474 109 594zM550.999 1483h-119.001l54 -140c48 -124 126.333 -186 235 -186c15.333 0 32.5 4.5 51.5 13.5
s29.167 15.5 30.5 19.5c-32.667 10.667 -59.5 28.167 -80.5 52.5s-36.333 49.833 -46 76.5l-28 77.5c-9 25 -21.167 45.667 -36.5 62s-35.666 24.5 -60.999 24.5z" />
    <glyph glyph-name="aacute" unicode="&#xe1;" horiz-adv-x="1038" 
d="M827 348c-9.33301 -73.333 -14.002 -124.334 -14.002 -153.001c0 -64.667 26 -97 78 -97c11.333 0 22.333 1.33301 33 4l16 4l14 -36l-32 -24c-21.333 -16 -50 -32.167 -86 -48.5s-68.333 -24.5 -97 -24.5c-29.333 0 -53.166 7.16699 -71.499 21.5s-30.5 32 -36.5 53
s-8.83301 44.833 -8.5 71.5s2.83301 51 7.5 73s10.334 42.667 17.001 62c-43.333 -80 -98.166 -146.833 -164.499 -200.5s-128.833 -80.5 -187.5 -80.5c-58 0 -108 28.333 -150 85s-63 137 -63 241c0 130 24.667 252 74 366s117.333 205.333 204 274s181 103 283 103
c27.333 0 79.166 -6.33301 155.499 -19s128.833 -20 157.5 -22l-51 -256c-10.667 -57.333 -36.667 -189.666 -78 -396.999zM751.998 906.999l-57.999 13.002c-38 8 -72 12 -102 12c-54.667 0 -106.834 -28.167 -156.501 -84.5s-89.667 -131.833 -120 -226.5
s-45.5 -194.334 -45.5 -299.001c0 -68.667 12.333 -119.334 37 -152.001s55.334 -49 92.001 -49c61.333 0 142.666 64 243.999 192c64.667 276 101 474 109 594zM916.999 1483l123 -0.000976562l-106 -140c-96 -124 -200.667 -186 -314 -186
c-14.667 0 -29.834 4.33301 -45.501 13s-23.5 15.334 -23.5 20.001c36.667 10.667 70.5 28.167 101.5 52.5s56.333 49.833 76 76.5l57.5 77.5c18.667 25 38.834 45.667 60.501 62s45.167 24.5 70.5 24.5z" />
    <glyph glyph-name="acircumflex" unicode="&#xe2;" horiz-adv-x="1038" 
d="M827 348c-9.33301 -73.333 -14.002 -124.334 -14.002 -153.001c0 -64.667 26 -97 78 -97c11.333 0 22.333 1.33301 33 4l16 4l14 -36l-32 -24c-21.333 -16 -50 -32.167 -86 -48.5s-68.333 -24.5 -97 -24.5c-29.333 0 -53.166 7.16699 -71.499 21.5s-30.5 32 -36.5 53
s-8.83301 44.833 -8.5 71.5s2.83301 51 7.5 73s10.334 42.667 17.001 62c-43.333 -80 -98.166 -146.833 -164.499 -200.5s-128.833 -80.5 -187.5 -80.5c-58 0 -108 28.333 -150 85s-63 137 -63 241c0 130 24.667 252 74 366s117.333 205.333 204 274s181 103 283 103
c27.333 0 79.166 -6.33301 155.499 -19s128.833 -20 157.5 -22l-51 -256c-10.667 -57.333 -36.667 -189.666 -78 -396.999zM751.998 906.999l-57.999 13.002c-38 8 -72 12 -102 12c-54.667 0 -106.834 -28.167 -156.501 -84.5s-89.667 -131.833 -120 -226.5
s-45.5 -194.334 -45.5 -299.001c0 -68.667 12.333 -119.334 37 -152.001s55.334 -49 92.001 -49c61.333 0 142.666 64 243.999 192c64.667 276 101 474 109 594zM724.999 1483l16.001 -0.000976562c16 0 31.667 -9.16699 47 -27.5s29.833 -41 43.5 -68l41 -82
c13.667 -27.667 30 -52.667 49 -75s38.833 -35.833 59.5 -40.5c-2 -4 -12.5 -10.5 -31.5 -19.5s-35.833 -13.5 -50.5 -13.5c-60 0 -107.5 21.833 -142.5 65.5s-54.5 99.834 -58.5 168.501c-8 -19.333 -14.833 -34.833 -20.5 -46.5s-17.5 -30.834 -35.5 -57.501
s-36.5 -48.167 -55.5 -64.5s-44.5 -31.333 -76.5 -45s-66.333 -20.5 -103 -20.5c-14.667 0 -30 4.33301 -46 13s-24 15.334 -24 20.001c28 6 60.667 25 98 57s70.666 65.333 99.999 100s58.833 66 88.5 94s52.5 42 68.5 42h33z" />
    <glyph glyph-name="atilde" unicode="&#xe3;" horiz-adv-x="1038" 
d="M827 348c-9.33301 -73.333 -14.002 -124.334 -14.002 -153.001c0 -64.667 26 -97 78 -97c11.333 0 22.333 1.33301 33 4l16 4l14 -36l-32 -24c-21.333 -16 -50 -32.167 -86 -48.5s-68.333 -24.5 -97 -24.5c-29.333 0 -53.166 7.16699 -71.499 21.5s-30.5 32 -36.5 53
s-8.83301 44.833 -8.5 71.5s2.83301 51 7.5 73s10.334 42.667 17.001 62c-43.333 -80 -98.166 -146.833 -164.499 -200.5s-128.833 -80.5 -187.5 -80.5c-58 0 -108 28.333 -150 85s-63 137 -63 241c0 130 24.667 252 74 366s117.333 205.333 204 274s181 103 283 103
c27.333 0 79.166 -6.33301 155.499 -19s128.833 -20 157.5 -22l-51 -256c-10.667 -57.333 -36.667 -189.666 -78 -396.999zM751.998 906.999l-57.999 13.002c-38 8 -72 12 -102 12c-54.667 0 -106.834 -28.167 -156.501 -84.5s-89.667 -131.833 -120 -226.5
s-45.5 -194.334 -45.5 -299.001c0 -68.667 12.333 -119.334 37 -152.001s55.334 -49 92.001 -49c61.333 0 142.666 64 243.999 192c64.667 276 101 474 109 594zM315.999 1241c53.333 34 96.333 51 129 51c24 0 67.833 -11.5 131.5 -34.5s122.167 -34.5 175.5 -34.5
c61.333 0 117.666 13.667 168.999 41s88 68 110 122c-65.333 -36.667 -116.666 -55 -153.999 -55c-27.333 0 -74.5 11.667 -141.5 35s-119.5 35 -157.5 35c-57.333 0 -110.333 -13.333 -159 -40s-83 -66.667 -103 -120z" />
    <glyph glyph-name="adieresis" unicode="&#xe4;" horiz-adv-x="1038" 
d="M827 348c-9.33301 -73.333 -14.002 -124.334 -14.002 -153.001c0 -64.667 26 -97 78 -97c11.333 0 22.333 1.33301 33 4l16 4l14 -36l-32 -24c-21.333 -16 -50 -32.167 -86 -48.5s-68.333 -24.5 -97 -24.5c-29.333 0 -53.166 7.16699 -71.499 21.5s-30.5 32 -36.5 53
s-8.83301 44.833 -8.5 71.5s2.83301 51 7.5 73s10.334 42.667 17.001 62c-43.333 -80 -98.166 -146.833 -164.499 -200.5s-128.833 -80.5 -187.5 -80.5c-58 0 -108 28.333 -150 85s-63 137 -63 241c0 130 24.667 252 74 366s117.333 205.333 204 274s181 103 283 103
c27.333 0 79.166 -6.33301 155.499 -19s128.833 -20 157.5 -22l-51 -256c-10.667 -57.333 -36.667 -189.666 -78 -396.999zM751.998 906.999l-57.999 13.002c-38 8 -72 12 -102 12c-54.667 0 -106.834 -28.167 -156.501 -84.5s-89.667 -131.833 -120 -226.5
s-45.5 -194.334 -45.5 -299.001c0 -68.667 12.333 -119.334 37 -152.001s55.334 -49 92.001 -49c61.333 0 142.666 64 243.999 192c64.667 276 101 474 109 594zM586.999 1313c0 -31.333 -9.99902 -58 -29.999 -80s-44 -33 -72 -33s-52.167 11 -72.5 33
s-30.5 48.667 -30.5 80c0 30.667 10.333 57 31 79s44.667 33 72 33s51.166 -11 71.499 -33s30.5 -48.333 30.5 -79zM964 1313c0 -31.333 -9.99902 -58 -29.999 -80s-44 -33 -72 -33s-52.167 10.833 -72.5 32.5s-30.5 48.5 -30.5 80.5c0 30.667 10.167 57 30.5 79
s44.5 33 72.5 33c27.333 0 51.166 -11 71.499 -33s30.5 -48.333 30.5 -79z" />
    <glyph glyph-name="aring" unicode="&#xe5;" horiz-adv-x="1038" 
d="M827 348c-9.33301 -73.333 -14.002 -124.334 -14.002 -153.001c0 -64.667 26 -97 78 -97c11.333 0 22.333 1.33301 33 4l16 4l14 -36l-32 -24c-21.333 -16 -50 -32.167 -86 -48.5s-68.333 -24.5 -97 -24.5c-29.333 0 -53.166 7.16699 -71.499 21.5s-30.5 32 -36.5 53
s-8.83301 44.833 -8.5 71.5s2.83301 51 7.5 73s10.334 42.667 17.001 62c-43.333 -80 -98.166 -146.833 -164.499 -200.5s-128.833 -80.5 -187.5 -80.5c-58 0 -108 28.333 -150 85s-63 137 -63 241c0 130 24.667 252 74 366s117.333 205.333 204 274s181 103 283 103
c27.333 0 79.166 -6.33301 155.499 -19s128.833 -20 157.5 -22l-51 -256c-10.667 -57.333 -36.667 -189.666 -78 -396.999zM751.998 906.999l-57.999 13.002c-38 8 -72 12 -102 12c-54.667 0 -106.834 -28.167 -156.501 -84.5s-89.667 -131.833 -120 -226.5
s-45.5 -194.334 -45.5 -299.001c0 -68.667 12.333 -119.334 37 -152.001s55.334 -49 92.001 -49c61.333 0 142.666 64 243.999 192c64.667 276 101 474 109 594zM746.999 1505c-9.33301 2.66699 -23.667 4.00098 -43 4.00098c-54 0 -99.167 -17 -135.5 -51
s-54.5 -80.333 -54.5 -139c0 -51.333 16.833 -90.5 50.5 -117.5s73.5 -40.5 119.5 -40.5c53.333 0 98.833 17.667 136.5 53s56.5 80 56.5 134c0 40.667 -12.333 75.167 -37 103.5s-55.667 46.166 -93 53.499zM675.998 1217c-22.667 4 -41.334 16 -56.001 36
s-22 45.333 -22 76c0 43.333 9.33301 75.333 28 96s40.667 31 66 31c28.667 0 52.167 -9.83301 70.5 -29.5s27.5 -47.5 27.5 -83.5c0 -44 -9.66699 -76.5 -29 -97.5s-41.666 -31.5 -66.999 -31.5c-2 0 -5 0.5 -9 1.5s-7 1.5 -9 1.5z" />
    <glyph glyph-name="ae" unicode="&#xe6;" horiz-adv-x="1521" 
d="M82 299c0 130 24.665 252.001 73.998 366.001s117.333 205.333 204 274s181 103 283 103c19.333 0 65.333 -5.66699 138 -17s127.667 -17 165 -17c26 0 63.5 5 112.5 15s92.167 15 129.5 15c88.667 0 155.5 -19 200.5 -57s67.5 -90 67.5 -156
c0 -70.667 -26.667 -133.334 -80 -188.001s-121.833 -95.667 -205.5 -123s-174.167 -41 -271.5 -41h-45v-33c0 -37.333 3.83301 -73.333 11.5 -108s19.667 -67.667 36 -99s39.5 -56.5 69.5 -75.5s65.333 -28.5 106 -28.5c56.667 0 115.167 16 175.5 48s113.833 76 160.5 132
c0 -58.667 -20.167 -114 -60.5 -166s-93.166 -93.333 -158.499 -124s-133.666 -46 -204.999 -46c-78 0 -145.333 25.667 -202 77s-93.667 122.666 -111 213.999c-47.333 -77.333 -107.833 -145.166 -181.5 -203.499s-140.167 -87.5 -199.5 -87.5c-58 0 -108 28.333 -150 85
s-63 137 -63 241zM398.998 121.001c33.333 0 75.5 23.1689 126.5 69.502s98.5 96.166 142.5 149.499v29c0 105.333 20.167 204.5 60.5 297.5s93.833 171.833 160.5 236.5h-4c-28 0 -70.833 5.5 -128.5 16.5s-107.834 16.5 -150.501 16.5c-54.667 0 -108 -28.5 -160 -85.5
s-94.333 -133.333 -127 -229s-49 -195.5 -49 -299.5c0 -68.667 12.333 -119.334 37 -152.001s55.334 -49 92.001 -49zM1159 924.003c-36 0 -70.999 -12.001 -104.999 -36.001s-63.167 -55 -87.5 -93s-45.166 -78.5 -62.499 -121.5s-29.333 -85.167 -36 -126.5
c33.333 2.66699 63.166 6 89.499 10s55.666 9.83301 87.999 17.5s60.5 18 84.5 31s46.5 28.667 67.5 47s37 41.333 48 69s16.5 58.834 16.5 93.501c0 30 -7.5 55.667 -22.5 77s-41.833 32 -80.5 32z" />
    <glyph glyph-name="ccedilla" unicode="&#xe7;" horiz-adv-x="944" 
d="M274 420c0 -84 19.6641 -153.502 58.9971 -208.502s98.333 -82.5 177 -82.5c56 0 112.333 15.833 169 47.5s109 75.834 157 132.501c2.66699 -77.333 -31 -147.666 -101 -210.999s-153.333 -102.666 -250 -117.999c-4 -6.66699 -7.33301 -13.5 -10 -20.5
s-4.33398 -12.5 -5.00098 -16.5l-2 -12c-0.666992 -4 -1 -6.33301 -1 -7v-2c0 -10.667 8.83301 -19.834 26.5 -27.501s36.834 -14.167 57.501 -19.5s39.834 -16.666 57.501 -33.999s26.5 -39.333 26.5 -66c0 -66 -30 -125.167 -90 -177.5s-123.667 -78.5 -191 -78.5
c-44 0 -78.5 7.66699 -103.5 23s-37.5 36.333 -37.5 63c0 23.333 6 44.333 18 63c11.333 -13.333 29.833 -23.833 55.5 -31.5s53.167 -11.5 82.5 -11.5c34 0 65.667 9.5 95 28.5s44 40.833 44 65.5c0 12 -5.33301 22.667 -16 32s-23.5 17.166 -38.5 23.499
s-30 13.166 -45 20.499s-27.833 16.833 -38.5 28.5s-16 25.5 -16 41.5c0 43.333 24 79.333 72 108h-14c-93.333 0 -171.666 36.333 -234.999 109s-95 169.667 -95 291c0 108.667 23 214 69 316s110.333 185.667 193 251s172 98 268 98c52 0 100.167 -5.5 144.5 -16.5
s81.5 -29.167 111.5 -54.5s45 -55.333 45 -90c0 -44 -19.5 -78.167 -58.5 -102.5s-78.833 -23.166 -119.5 3.50098c0 44.667 -10.5 80.167 -31.5 106.5s-59.5 39.5 -115.5 39.5c-57.333 0 -110.666 -26.167 -159.999 -78.5s-87.333 -117 -114 -194s-40 -154.167 -40 -231.5z
" />
    <glyph glyph-name="egrave" unicode="&#xe8;" horiz-adv-x="940" 
d="M406 -27c-94.667 0 -172.502 36.499 -233.502 109.499s-90.5 171.833 -88.5 296.5c2 89.333 18.5 175.333 49.5 258s70.833 152.834 119.5 210.501s103.834 103.834 165.501 138.501s123.5 52 185.5 52c89.333 0 156.666 -19.5 201.999 -58.5s67.333 -91.833 66 -158.5
c-1.33301 -70.667 -28.833 -132.834 -82.5 -186.501s-122 -94 -205 -121s-172.833 -40.5 -269.5 -40.5h-41c-2.66699 -21.333 -4 -39 -4 -53c-0.666992 -47.333 6.5 -92.5 21.5 -135.5s40.167 -79.667 75.5 -110s77.666 -45.5 126.999 -45.5c56 0 114.167 16 174.5 48
s113.833 76 160.5 132c2.66699 -58 -16.666 -113.333 -57.999 -166s-95.166 -94.167 -161.499 -124.5s-134.166 -45.5 -203.499 -45.5zM574.998 923.999c-36 0 -70.999 -11.9971 -104.999 -35.9971s-63.167 -55 -87.5 -93s-45 -78.5 -62 -121.5
s-28.833 -85.167 -35.5 -126.5c40.667 3.33301 76.667 7.5 108 12.5s65.666 13.667 102.999 26s68.333 27.666 93 45.999s45.5 43.166 62.5 74.499s25.833 67.666 26.5 108.999c1.33301 28.667 -6 54 -22 76s-43 33 -81 33zM523.999 1483h-119.001l54 -140
c48 -124 126.333 -186 235 -186c15.333 0 32.5 4.5 51.5 13.5s29.167 15.5 30.5 19.5c-32.667 10.667 -59.5 28.167 -80.5 52.5s-36.333 49.833 -46 76.5l-28 77.5c-9 25 -21.167 45.667 -36.5 62s-35.666 24.5 -60.999 24.5z" />
    <glyph glyph-name="eacute" unicode="&#xe9;" horiz-adv-x="940" 
d="M891 1483l122.999 -0.000976562l-107 -140c-96 -124 -200.333 -186 -313 -186c-14.667 0 -30 4.33301 -46 13s-24 15.334 -24 20.001c37.333 10.667 71.333 28.167 102 52.5s56 49.833 76 76.5l58 77.5c18.667 25 38.834 45.667 60.501 62s45.167 24.5 70.5 24.5z
M405.999 -27.001c-94.667 0 -172.502 36.499 -233.502 109.499s-90.5 171.833 -88.5 296.5c2 89.333 18.5 175.333 49.5 258s70.833 152.834 119.5 210.501s103.834 103.834 165.501 138.501s123.5 52 185.5 52c89.333 0 156.666 -19.5 201.999 -58.5
s67.333 -91.833 66 -158.5c-1.33301 -70.667 -28.833 -132.834 -82.5 -186.501s-122 -94 -205 -121s-172.833 -40.5 -269.5 -40.5h-41c-2.66699 -21.333 -4 -39 -4 -53c-0.666992 -47.333 6.5 -92.5 21.5 -135.5s40.167 -79.667 75.5 -110s77.666 -45.5 126.999 -45.5
c56 0 114.167 16 174.5 48s113.833 76 160.5 132c2.66699 -58 -16.666 -113.333 -57.999 -166s-95.166 -94.167 -161.499 -124.5s-134.166 -45.5 -203.499 -45.5zM574.997 923.998c-36 0 -70.999 -11.9971 -104.999 -35.9971s-63.167 -55 -87.5 -93s-45 -78.5 -62 -121.5
s-28.833 -85.167 -35.5 -126.5c40.667 3.33301 76.667 7.5 108 12.5s65.666 13.667 102.999 26s68.333 27.666 93 45.999s45.5 43.166 62.5 74.499s25.833 67.666 26.5 108.999c1.33301 28.667 -6 54 -22 76s-43 33 -81 33z" />
    <glyph glyph-name="ecircumflex" unicode="&#xea;" horiz-adv-x="940" 
d="M406 -27c-94.667 0 -172.502 36.499 -233.502 109.499s-90.5 171.833 -88.5 296.5c2 89.333 18.5 175.333 49.5 258s70.833 152.834 119.5 210.501s103.834 103.834 165.501 138.501s123.5 52 185.5 52c89.333 0 156.666 -19.5 201.999 -58.5s67.333 -91.833 66 -158.5
c-1.33301 -70.667 -28.833 -132.834 -82.5 -186.501s-122 -94 -205 -121s-172.833 -40.5 -269.5 -40.5h-41c-2.66699 -21.333 -4 -39 -4 -53c-0.666992 -47.333 6.5 -92.5 21.5 -135.5s40.167 -79.667 75.5 -110s77.666 -45.5 126.999 -45.5c56 0 114.167 16 174.5 48
s113.833 76 160.5 132c2.66699 -58 -16.666 -113.333 -57.999 -166s-95.166 -94.167 -161.499 -124.5s-134.166 -45.5 -203.499 -45.5zM574.998 923.999c-36 0 -70.999 -11.9971 -104.999 -35.9971s-63.167 -55 -87.5 -93s-45 -78.5 -62 -121.5
s-28.833 -85.167 -35.5 -126.5c40.667 3.33301 76.667 7.5 108 12.5s65.666 13.667 102.999 26s68.333 27.666 93 45.999s45.5 43.166 62.5 74.499s25.833 67.666 26.5 108.999c1.33301 28.667 -6 54 -22 76s-43 33 -81 33zM700.999 1483l16.001 -0.000976562
c16 0 31.667 -9.16699 47 -27.5s29.833 -41 43.5 -68l41 -82c13.667 -27.667 30 -52.667 49 -75s38.833 -35.833 59.5 -40.5c-2 -4 -12.5 -10.5 -31.5 -19.5s-35.833 -13.5 -50.5 -13.5c-60 0 -107.5 21.833 -142.5 65.5s-54.5 99.834 -58.5 168.501
c-8 -19.333 -14.833 -34.833 -20.5 -46.5s-17.5 -30.834 -35.5 -57.501s-36.5 -48.167 -55.5 -64.5s-44.5 -31.333 -76.5 -45s-66.333 -20.5 -103 -20.5c-14.667 0 -30 4.33301 -46 13s-24 15.334 -24 20.001c28 6 60.667 25 98 57s70.666 65.333 99.999 100
s58.833 66 88.5 94s52.5 42 68.5 42h33z" />
    <glyph glyph-name="edieresis" unicode="&#xeb;" horiz-adv-x="940" 
d="M406 -27c-94.667 0 -172.502 36.499 -233.502 109.499s-90.5 171.833 -88.5 296.5c2 89.333 18.5 175.333 49.5 258s70.833 152.834 119.5 210.501s103.834 103.834 165.501 138.501s123.5 52 185.5 52c89.333 0 156.666 -19.5 201.999 -58.5s67.333 -91.833 66 -158.5
c-1.33301 -70.667 -28.833 -132.834 -82.5 -186.501s-122 -94 -205 -121s-172.833 -40.5 -269.5 -40.5h-41c-2.66699 -21.333 -4 -39 -4 -53c-0.666992 -47.333 6.5 -92.5 21.5 -135.5s40.167 -79.667 75.5 -110s77.666 -45.5 126.999 -45.5c56 0 114.167 16 174.5 48
s113.833 76 160.5 132c2.66699 -58 -16.666 -113.333 -57.999 -166s-95.166 -94.167 -161.499 -124.5s-134.166 -45.5 -203.499 -45.5zM574.998 923.999c-36 0 -70.999 -11.9971 -104.999 -35.9971s-63.167 -55 -87.5 -93s-45 -78.5 -62 -121.5
s-28.833 -85.167 -35.5 -126.5c40.667 3.33301 76.667 7.5 108 12.5s65.666 13.667 102.999 26s68.333 27.666 93 45.999s45.5 43.166 62.5 74.499s25.833 67.666 26.5 108.999c1.33301 28.667 -6 54 -22 76s-43 33 -81 33zM554.999 1313
c0 -31.333 -9.99902 -58 -29.999 -80s-44 -33 -72 -33s-52.167 11 -72.5 33s-30.5 48.667 -30.5 80c0 30.667 10.333 57 31 79s44.667 33 72 33s51.166 -11 71.499 -33s30.5 -48.333 30.5 -79zM932 1313c0 -31.333 -9.99902 -58 -29.999 -80s-44 -33 -72 -33
s-52.167 10.833 -72.5 32.5s-30.5 48.5 -30.5 80.5c0 30.667 10.167 57 30.5 79s44.5 33 72.5 33c27.333 0 51.166 -11 71.499 -33s30.5 -48.333 30.5 -79z" />
    <glyph glyph-name="igrave" unicode="&#xec;" horiz-adv-x="542" 
d="M92 0l2.00098 7.99902c100 523.333 150 795.666 150 816.999c0.666992 24.667 -4.33301 43.167 -15 55.5s-24.334 18.5 -41.001 18.5c-6.66699 0 -12 -0.666992 -16 -2l-18 33c23.333 27.333 55.666 51.5 96.999 72.5s81.333 31.5 120 31.5c26 0 45.333 -9 58 -27
s18.334 -41 17.001 -69c0 -12.667 -3.16699 -33.667 -9.5 -63s-13.5 -60.166 -21.5 -92.499s-12.667 -51.5 -14 -57.5c-6 -31.333 -21.167 -120.166 -45.5 -266.499l-50.5 -304.5c-8 -42.667 -12 -81.667 -12 -117c0 -16.667 -0.666992 -29 -2 -37h-199zM219.001 1483
h-119.001l54 -140c48 -124 126.333 -186 235 -186c15.333 0 32.5 4.5 51.5 13.5s29.167 15.5 30.5 19.5c-32.667 10.667 -59.5 28.167 -80.5 52.5s-36.333 49.833 -46 76.5l-28 77.5c-9 25 -21.167 45.667 -36.5 62s-35.666 24.5 -60.999 24.5z" />
    <glyph glyph-name="iacute" unicode="&#xed;" horiz-adv-x="542" 
d="M592 1483l122.999 -0.000976562l-107 -140c-96 -124 -200.333 -186 -313 -186c-14.667 0 -30 4.33301 -46 13s-24 15.334 -24 20.001c37.333 10.667 71.333 28.167 102 52.5s56 49.833 76 76.5l58 77.5c18.667 25 38.834 45.667 60.501 62s45.167 24.5 70.5 24.5z
M91.999 -0.000976562l2.00098 7.99902c100 523.333 150 795.666 150 816.999c0.666992 24.667 -4.33301 43.167 -15 55.5s-24.334 18.5 -41.001 18.5c-6.66699 0 -12 -0.666992 -16 -2l-18 33c23.333 27.333 55.666 51.5 96.999 72.5s81.333 31.5 120 31.5
c26 0 45.333 -9 58 -27s18.334 -41 17.001 -69c0 -12.667 -3.16699 -33.667 -9.5 -63s-13.5 -60.166 -21.5 -92.499s-12.667 -51.5 -14 -57.5c-6 -31.333 -21.167 -120.166 -45.5 -266.499l-50.5 -304.5c-8 -42.667 -12 -81.667 -12 -117c0 -16.667 -0.666992 -29 -2 -37
h-199z" />
    <glyph glyph-name="icircumflex" unicode="&#xee;" horiz-adv-x="542" 
d="M92 0l2.00098 7.99902c100 523.333 150 795.666 150 816.999c0.666992 24.667 -4.33301 43.167 -15 55.5s-24.334 18.5 -41.001 18.5c-6.66699 0 -12 -0.666992 -16 -2l-18 33c23.333 27.333 55.666 51.5 96.999 72.5s81.333 31.5 120 31.5c26 0 45.333 -9 58 -27
s18.334 -41 17.001 -69c0 -12.667 -3.16699 -33.667 -9.5 -63s-13.5 -60.166 -21.5 -92.499s-12.667 -51.5 -14 -57.5c-6 -31.333 -21.167 -120.166 -45.5 -266.499l-50.5 -304.5c-8 -42.667 -12 -81.667 -12 -117c0 -16.667 -0.666992 -29 -2 -37h-199zM414.001 1483
l16.001 -0.000976562c16 0 31.667 -9.16699 47 -27.5s29.833 -41 43.5 -68l41 -82c13.667 -27.667 30 -52.667 49 -75s38.833 -35.833 59.5 -40.5c-2 -4 -12.5 -10.5 -31.5 -19.5s-35.833 -13.5 -50.5 -13.5c-60 0 -107.5 21.833 -142.5 65.5s-54.5 99.834 -58.5 168.501
c-8 -19.333 -14.833 -34.833 -20.5 -46.5s-17.5 -30.834 -35.5 -57.501s-36.5 -48.167 -55.5 -64.5s-44.5 -31.333 -76.5 -45s-66.333 -20.5 -103 -20.5c-14.667 0 -30 4.33301 -46 13s-24 15.334 -24 20.001c28 6 60.667 25 98 57s70.666 65.333 99.999 100
s58.833 66 88.5 94s52.5 42 68.5 42h33z" />
    <glyph glyph-name="idieresis" unicode="&#xef;" horiz-adv-x="542" 
d="M92 0l2.00098 7.99902c100 523.333 150 795.666 150 816.999c0.666992 24.667 -4.33301 43.167 -15 55.5s-24.334 18.5 -41.001 18.5c-6.66699 0 -12 -0.666992 -16 -2l-18 33c23.333 27.333 55.666 51.5 96.999 72.5s81.333 31.5 120 31.5c26 0 45.333 -9 58 -27
s18.334 -41 17.001 -69c0 -12.667 -3.16699 -33.667 -9.5 -63s-13.5 -60.166 -21.5 -92.499s-12.667 -51.5 -14 -57.5c-6 -31.333 -21.167 -120.166 -45.5 -266.499l-50.5 -304.5c-8 -42.667 -12 -81.667 -12 -117c0 -16.667 -0.666992 -29 -2 -37h-199zM284.001 1313
c0 -31.333 -9.99902 -58 -29.999 -80s-44 -33 -72 -33s-52.167 11 -72.5 33s-30.5 48.667 -30.5 80c0 30.667 10.333 57 31 79s44.667 33 72 33s51.166 -11 71.499 -33s30.5 -48.333 30.5 -79zM661.002 1313c0 -31.333 -9.99902 -58 -29.999 -80s-44 -33 -72 -33
s-52.167 10.833 -72.5 32.5s-30.5 48.5 -30.5 80.5c0 30.667 10.167 57 30.5 79s44.5 33 72.5 33c27.333 0 51.166 -11 71.499 -33s30.5 -48.333 30.5 -79z" />
    <glyph glyph-name="ntilde" unicode="&#xf1;" horiz-adv-x="1107" 
d="M403 770c20 28.667 44.668 57.668 74.001 87.001s62.666 58.333 99.999 87s78.333 52.167 123 70.5s87.667 27.5 129 27.5c50.667 0 93.667 -19.5 129 -58.5s50.666 -93.167 45.999 -162.5c-2 -24 -14.167 -92.167 -36.5 -204.5s-43.833 -228.833 -64.5 -349.5
s-31 -209.667 -31 -267h-194c0 8 4.66699 40.667 14 98c60.667 311.333 96.334 510.666 107.001 597.999c7.33301 62.667 4.66602 109.167 -8.00098 139.5s-38.667 45.5 -78 45.5c-56 0 -114.667 -20.167 -176 -60.5s-111.333 -86.5 -150 -138.5
c-3.33301 -21.333 -16.333 -94.5 -39 -219.5l-55 -308.5c-6 -42.667 -10 -81.667 -12 -117v-37h-199v8l147 770c6 28.667 4.33301 56 -5 82s-24.666 39 -45.999 39c-6.66699 0 -12 -0.666992 -16 -2l-19 33c22 26.667 54 50.667 96 72s82.333 32 121 32
c50.667 0 76 -32 76 -96c0 -42 -11 -98 -33 -168zM363.001 1241c53.333 34 96.333 51 129 51c24 0 67.833 -11.5 131.5 -34.5s122.167 -34.5 175.5 -34.5c61.333 0 117.666 13.667 168.999 41s88 68 110 122c-65.333 -36.667 -116.666 -55 -153.999 -55
c-27.333 0 -74.5 11.667 -141.5 35s-119.5 35 -157.5 35c-57.333 0 -110.333 -13.333 -159 -40s-83 -66.667 -103 -120z" />
    <glyph glyph-name="ograve" unicode="&#xf2;" horiz-adv-x="1030" 
d="M641 1038c-74.667 0 -145.832 -16.8311 -213.499 -50.498s-126.5 -79.834 -176.5 -138.501s-90 -129.667 -120 -213s-45.667 -172.333 -47 -267c-0.666992 -35.333 1 -69 5 -101s12.5 -66.667 25.5 -104s30.167 -69.5 51.5 -96.5s51.166 -49.5 89.499 -67.5
s82.833 -27 133.5 -27c78 0 151.667 18.833 221 56.5s128.166 87.667 176.499 150s86.833 134.166 115.5 215.499s43.334 165.333 44.001 252c2 122.667 -25.167 218.5 -81.5 287.5s-130.833 103.5 -223.5 103.5zM555.002 934.002c62.667 0 111 -29.666 145 -88.999
s50 -139 48 -239c-1.33301 -149.333 -31.5 -275.333 -90.5 -378s-125.833 -154 -200.5 -154c-58.667 0 -103.334 30.167 -134.001 90.5s-44.667 139.833 -42 238.5c0.666992 29.333 3.33398 63.5 8.00098 102.5s13.5 84.333 26.5 136s29 98.667 48 141
s45.167 78.166 78.5 107.499s71 44 113 44zM528.002 1483h-119.001l54 -140c48 -124 126.333 -186 235 -186c15.333 0 32.5 4.5 51.5 13.5s29.167 15.5 30.5 19.5c-32.667 10.667 -59.5 28.167 -80.5 52.5s-36.333 49.833 -46 76.5l-28 77.5c-9 25 -21.167 45.667 -36.5 62
s-35.666 24.5 -60.999 24.5z" />
    <glyph glyph-name="oacute" unicode="&#xf3;" horiz-adv-x="1030" 
d="M641 1038c-74.667 0 -145.832 -16.8311 -213.499 -50.498s-126.5 -79.834 -176.5 -138.501s-90 -129.667 -120 -213s-45.667 -172.333 -47 -267c-0.666992 -35.333 1 -69 5 -101s12.5 -66.667 25.5 -104s30.167 -69.5 51.5 -96.5s51.166 -49.5 89.499 -67.5
s82.833 -27 133.5 -27c78 0 151.667 18.833 221 56.5s128.166 87.667 176.499 150s86.833 134.166 115.5 215.499s43.334 165.333 44.001 252c2 122.667 -25.167 218.5 -81.5 287.5s-130.833 103.5 -223.5 103.5zM555.002 934.002c62.667 0 111 -29.666 145 -88.999
s50 -139 48 -239c-1.33301 -149.333 -31.5 -275.333 -90.5 -378s-125.833 -154 -200.5 -154c-58.667 0 -103.334 30.167 -134.001 90.5s-44.667 139.833 -42 238.5c0.666992 29.333 3.33398 63.5 8.00098 102.5s13.5 84.333 26.5 136s29 98.667 48 141
s45.167 78.166 78.5 107.499s71 44 113 44zM889.002 1483l123 -0.000976562l-106 -140c-96 -124 -200.667 -186 -314 -186c-14.667 0 -29.834 4.33301 -45.501 13s-23.5 15.334 -23.5 20.001c36.667 10.667 70.5 28.167 101.5 52.5s56.333 49.833 76 76.5l57.5 77.5
c18.667 25 38.834 45.667 60.501 62s45.167 24.5 70.5 24.5z" />
    <glyph glyph-name="ocircumflex" unicode="&#xf4;" horiz-adv-x="1030" 
d="M641 1038c-74.667 0 -145.832 -16.8311 -213.499 -50.498s-126.5 -79.834 -176.5 -138.501s-90 -129.667 -120 -213s-45.667 -172.333 -47 -267c-0.666992 -35.333 1 -69 5 -101s12.5 -66.667 25.5 -104s30.167 -69.5 51.5 -96.5s51.166 -49.5 89.499 -67.5
s82.833 -27 133.5 -27c78 0 151.667 18.833 221 56.5s128.166 87.667 176.499 150s86.833 134.166 115.5 215.499s43.334 165.333 44.001 252c2 122.667 -25.167 218.5 -81.5 287.5s-130.833 103.5 -223.5 103.5zM555.002 934.002c62.667 0 111 -29.666 145 -88.999
s50 -139 48 -239c-1.33301 -149.333 -31.5 -275.333 -90.5 -378s-125.833 -154 -200.5 -154c-58.667 0 -103.334 30.167 -134.001 90.5s-44.667 139.833 -42 238.5c0.666992 29.333 3.33398 63.5 8.00098 102.5s13.5 84.333 26.5 136s29 98.667 48 141
s45.167 78.166 78.5 107.499s71 44 113 44zM730.002 1483l16.001 -0.000976562c16 0 31.667 -9.16699 47 -27.5s29.833 -41 43.5 -68l41 -82c13.667 -27.667 30 -52.667 49 -75s38.833 -35.833 59.5 -40.5c-2 -4 -12.5 -10.5 -31.5 -19.5s-35.833 -13.5 -50.5 -13.5
c-60 0 -107.5 21.833 -142.5 65.5s-54.5 99.834 -58.5 168.501c-8 -19.333 -14.833 -34.833 -20.5 -46.5s-17.5 -30.834 -35.5 -57.501s-36.5 -48.167 -55.5 -64.5s-44.5 -31.333 -76.5 -45s-66.333 -20.5 -103 -20.5c-14.667 0 -30 4.33301 -46 13s-24 15.334 -24 20.001
c28 6 60.667 25 98 57s70.666 65.333 99.999 100s58.833 66 88.5 94s52.5 42 68.5 42h33z" />
    <glyph glyph-name="otilde" unicode="&#xf5;" horiz-adv-x="1030" 
d="M641 1038c-74.667 0 -145.832 -16.8311 -213.499 -50.498s-126.5 -79.834 -176.5 -138.501s-90 -129.667 -120 -213s-45.667 -172.333 -47 -267c-0.666992 -35.333 1 -69 5 -101s12.5 -66.667 25.5 -104s30.167 -69.5 51.5 -96.5s51.166 -49.5 89.499 -67.5
s82.833 -27 133.5 -27c78 0 151.667 18.833 221 56.5s128.166 87.667 176.499 150s86.833 134.166 115.5 215.499s43.334 165.333 44.001 252c2 122.667 -25.167 218.5 -81.5 287.5s-130.833 103.5 -223.5 103.5zM555.002 934.002c62.667 0 111 -29.666 145 -88.999
s50 -139 48 -239c-1.33301 -149.333 -31.5 -275.333 -90.5 -378s-125.833 -154 -200.5 -154c-58.667 0 -103.334 30.167 -134.001 90.5s-44.667 139.833 -42 238.5c0.666992 29.333 3.33398 63.5 8.00098 102.5s13.5 84.333 26.5 136s29 98.667 48 141
s45.167 78.166 78.5 107.499s71 44 113 44zM307.002 1241c53.333 34 96.333 51 129 51c24 0 67.833 -11.5 131.5 -34.5s122.167 -34.5 175.5 -34.5c61.333 0 117.666 13.667 168.999 41s88 68 110 122c-65.333 -36.667 -116.666 -55 -153.999 -55
c-27.333 0 -74.5 11.667 -141.5 35s-119.5 35 -157.5 35c-57.333 0 -110.333 -13.333 -159 -40s-83 -66.667 -103 -120z" />
    <glyph glyph-name="odieresis" unicode="&#xf6;" horiz-adv-x="1030" 
d="M641 1038c-74.667 0 -145.832 -16.8311 -213.499 -50.498s-126.5 -79.834 -176.5 -138.501s-90 -129.667 -120 -213s-45.667 -172.333 -47 -267c-0.666992 -35.333 1 -69 5 -101s12.5 -66.667 25.5 -104s30.167 -69.5 51.5 -96.5s51.166 -49.5 89.499 -67.5
s82.833 -27 133.5 -27c78 0 151.667 18.833 221 56.5s128.166 87.667 176.499 150s86.833 134.166 115.5 215.499s43.334 165.333 44.001 252c2 122.667 -25.167 218.5 -81.5 287.5s-130.833 103.5 -223.5 103.5zM555.002 934.002c62.667 0 111 -29.666 145 -88.999
s50 -139 48 -239c-1.33301 -149.333 -31.5 -275.333 -90.5 -378s-125.833 -154 -200.5 -154c-58.667 0 -103.334 30.167 -134.001 90.5s-44.667 139.833 -42 238.5c0.666992 29.333 3.33398 63.5 8.00098 102.5s13.5 84.333 26.5 136s29 98.667 48 141
s45.167 78.166 78.5 107.499s71 44 113 44zM565.002 1313c0 -31.333 -9.99902 -58 -29.999 -80s-44 -33 -72 -33s-52.167 11 -72.5 33s-30.5 48.667 -30.5 80c0 30.667 10.333 57 31 79s44.667 33 72 33s51.166 -11 71.499 -33s30.5 -48.333 30.5 -79zM942.003 1313
c0 -31.333 -9.99902 -58 -29.999 -80s-44 -33 -72 -33s-52.167 10.833 -72.5 32.5s-30.5 48.5 -30.5 80.5c0 30.667 10.167 57 30.5 79s44.5 33 72.5 33c27.333 0 51.166 -11 71.499 -33s30.5 -48.333 30.5 -79z" />
    <glyph glyph-name="divide" unicode="&#xf7;" horiz-adv-x="1001" 
d="M596 229c0 -32.667 -11.167 -60.167 -33.5 -82.5s-49.5 -33.5 -81.5 -33.5c-32.667 0 -60.167 11.167 -82.5 33.5s-33.5 49.833 -33.5 82.5c0 32 11.167 59.167 33.5 81.5s49.833 33.5 82.5 33.5c32 0 59.167 -11.167 81.5 -33.5s33.5 -49.5 33.5 -81.5zM596 819
c0 -32.667 -11.167 -60.334 -33.5 -83.001s-49.5 -34 -81.5 -34c-32.667 0 -60.167 11.333 -82.5 34s-33.5 50.334 -33.5 83.001c0 32 11.167 59.167 33.5 81.5s49.833 33.5 82.5 33.5c32 0 59.167 -11.167 81.5 -33.5s33.5 -49.5 33.5 -81.5zM180 461l-0.00195312 131
c0 -5.33301 114.667 -8 344 -8h102.5c32.333 0 60.833 0.333008 85.5 1s45.5 2.33398 62.5 5.00098s28.5 6 34.5 10c-3.33301 -20.667 -9.16602 -38.667 -17.499 -54s-18.333 -27.833 -30 -37.5s-25 -18 -40 -25s-31 -11.833 -48 -14.5s-34.833 -4.83398 -53.5 -6.50098
s-37.5 -2.16699 -56.5 -1.5s-38.167 0.666992 -57.5 0c-18 0 -68.5 0.333008 -151.5 1s-128.833 1 -137.5 1c-19.333 0 -31.666 -0.666992 -36.999 -2z" />
    <glyph glyph-name="oslash" unicode="&#xf8;" horiz-adv-x="1030" 
d="M1016 977c0 11.333 -4.83203 22.002 -14.499 32.002s-26.167 21.667 -49.5 35c-10 -10.667 -25.167 -28 -45.5 -52l-46.5 -54c-53.333 66.667 -126.333 100 -219 100c-74.667 0 -145.834 -16.833 -213.501 -50.5s-126.5 -79.834 -176.5 -138.501s-90 -129.667 -120 -213
s-45.667 -172.333 -47 -267c-2.66699 -70.667 5.66602 -135 24.999 -193c-26 -28 -62.333 -63.333 -109 -106l63 -68l87 88c52.667 -78 132.334 -117 239.001 -117c78 0 151.667 18.833 221 56.5s128.166 87.667 176.499 150s86.833 134.166 115.5 215.499
s43.334 165.333 44.001 252c0 85.333 -11.667 153.666 -35 204.999l34 30c10.667 9.33301 20.334 18.333 29.001 27s16.167 16.667 22.5 24s11.166 14.833 14.499 22.5s5 14.834 5 21.501zM457.001 74.002c-41.333 0 -75.667 14.832 -103 44.499s-47 71.5 -59 125.5l448 450
c3.33301 -17.333 5 -46.666 5 -87.999c-1.33301 -149.333 -31.5 -275.333 -90.5 -378s-125.833 -154 -200.5 -154zM555 934.001c78 0 133.332 -46.332 165.999 -138.999l-440 -449v57c0.666992 29.333 3.33398 63.5 8.00098 102.5s13.5 84.333 26.5 136s29 98.667 48 141
s45.167 78.166 78.5 107.499s71 44 113 44z" />
    <glyph glyph-name="ugrave" unicode="&#xf9;" horiz-adv-x="1128" 
d="M750 897l-19.001 33.001c22 27.333 53.833 51.5 95.5 72.5s82.167 31.5 121.5 31.5c50.667 0 76 -32 76 -96c0 -20 -3.33301 -48.167 -10 -84.5s-13 -64.166 -19 -83.499l-100 -539c-2.66699 -21.333 -4 -36.333 -4 -45c0 -31.333 7.83301 -53.833 23.5 -67.5
s34.5 -20.5 56.5 -20.5c16.667 0 31.667 2.66699 45 8l14 -36c-28.667 -25.333 -66 -47.833 -112 -67.5s-84.333 -29.5 -115 -29.5c-75.333 0 -113 40.333 -113 121c0 43.333 9.66699 92 29 146c-20 -28.667 -44.667 -57.834 -74 -87.501s-62.666 -58.834 -99.999 -87.501
s-78.333 -52.167 -123 -70.5s-87.667 -27.5 -129 -27.5c-47.333 0 -88.166 17.667 -122.499 53s-51.5 84 -51.5 146c0 26.667 15.5 118.5 46.5 275.5s50.833 269.167 59.5 336.5c1.33301 5.33301 2 14.333 2 27c0 26.667 -4.33301 49 -13 67s-22 27 -40 27
c-6.66699 0 -12 -0.666992 -16 -2l-19 33c22 27.333 53.833 51.5 95.5 72.5s82.167 31.5 121.5 31.5c50.667 0 76 -32 76 -96c0 -36 -8.66699 -92 -26 -168c-9.33301 -45.333 -24 -109.833 -44 -193.5s-34.5 -149.5 -43.5 -197.5s-13.5 -89 -13.5 -123
c0 -42 8.16699 -73.667 24.5 -95s43.166 -32 80.499 -32c55.333 0 114 20.167 176 60.5s111.667 86.5 149 138.5c2 12.667 8 46.167 18 100.5l32 176.5l32 181v19c0 62.667 -17 94 -51 94c-6.66699 0 -12 -0.666992 -16 -2zM507.999 1483h-119.001l54 -140
c48 -124 126.333 -186 235 -186c15.333 0 32.5 4.5 51.5 13.5s29.167 15.5 30.5 19.5c-32.667 10.667 -59.5 28.167 -80.5 52.5s-36.333 49.833 -46 76.5l-28 77.5c-9 25 -21.167 45.667 -36.5 62s-35.666 24.5 -60.999 24.5z" />
    <glyph glyph-name="uacute" unicode="&#xfa;" horiz-adv-x="1128" 
d="M750 897l-19.001 33.001c22 27.333 53.833 51.5 95.5 72.5s82.167 31.5 121.5 31.5c50.667 0 76 -32 76 -96c0 -20 -3.33301 -48.167 -10 -84.5s-13 -64.166 -19 -83.499l-100 -539c-2.66699 -21.333 -4 -36.333 -4 -45c0 -31.333 7.83301 -53.833 23.5 -67.5
s34.5 -20.5 56.5 -20.5c16.667 0 31.667 2.66699 45 8l14 -36c-28.667 -25.333 -66 -47.833 -112 -67.5s-84.333 -29.5 -115 -29.5c-75.333 0 -113 40.333 -113 121c0 43.333 9.66699 92 29 146c-20 -28.667 -44.667 -57.834 -74 -87.501s-62.666 -58.834 -99.999 -87.501
s-78.333 -52.167 -123 -70.5s-87.667 -27.5 -129 -27.5c-47.333 0 -88.166 17.667 -122.499 53s-51.5 84 -51.5 146c0 26.667 15.5 118.5 46.5 275.5s50.833 269.167 59.5 336.5c1.33301 5.33301 2 14.333 2 27c0 26.667 -4.33301 49 -13 67s-22 27 -40 27
c-6.66699 0 -12 -0.666992 -16 -2l-19 33c22 27.333 53.833 51.5 95.5 72.5s82.167 31.5 121.5 31.5c50.667 0 76 -32 76 -96c0 -36 -8.66699 -92 -26 -168c-9.33301 -45.333 -24 -109.833 -44 -193.5s-34.5 -149.5 -43.5 -197.5s-13.5 -89 -13.5 -123
c0 -42 8.16699 -73.667 24.5 -95s43.166 -32 80.499 -32c55.333 0 114 20.167 176 60.5s111.667 86.5 149 138.5c2 12.667 8 46.167 18 100.5l32 176.5l32 181v19c0 62.667 -17 94 -51 94c-6.66699 0 -12 -0.666992 -16 -2zM908.999 1483l123 -0.000976562l-106 -140
c-96 -124 -200.667 -186 -314 -186c-14.667 0 -29.834 4.33301 -45.501 13s-23.5 15.334 -23.5 20.001c36.667 10.667 70.5 28.167 101.5 52.5s56.333 49.833 76 76.5l57.5 77.5c18.667 25 38.834 45.667 60.501 62s45.167 24.5 70.5 24.5z" />
    <glyph glyph-name="ucircumflex" unicode="&#xfb;" horiz-adv-x="1128" 
d="M750 897l-19.001 33.001c22 27.333 53.833 51.5 95.5 72.5s82.167 31.5 121.5 31.5c50.667 0 76 -32 76 -96c0 -20 -3.33301 -48.167 -10 -84.5s-13 -64.166 -19 -83.499l-100 -539c-2.66699 -21.333 -4 -36.333 -4 -45c0 -31.333 7.83301 -53.833 23.5 -67.5
s34.5 -20.5 56.5 -20.5c16.667 0 31.667 2.66699 45 8l14 -36c-28.667 -25.333 -66 -47.833 -112 -67.5s-84.333 -29.5 -115 -29.5c-75.333 0 -113 40.333 -113 121c0 43.333 9.66699 92 29 146c-20 -28.667 -44.667 -57.834 -74 -87.501s-62.666 -58.834 -99.999 -87.501
s-78.333 -52.167 -123 -70.5s-87.667 -27.5 -129 -27.5c-47.333 0 -88.166 17.667 -122.499 53s-51.5 84 -51.5 146c0 26.667 15.5 118.5 46.5 275.5s50.833 269.167 59.5 336.5c1.33301 5.33301 2 14.333 2 27c0 26.667 -4.33301 49 -13 67s-22 27 -40 27
c-6.66699 0 -12 -0.666992 -16 -2l-19 33c22 27.333 53.833 51.5 95.5 72.5s82.167 31.5 121.5 31.5c50.667 0 76 -32 76 -96c0 -36 -8.66699 -92 -26 -168c-9.33301 -45.333 -24 -109.833 -44 -193.5s-34.5 -149.5 -43.5 -197.5s-13.5 -89 -13.5 -123
c0 -42 8.16699 -73.667 24.5 -95s43.166 -32 80.499 -32c55.333 0 114 20.167 176 60.5s111.667 86.5 149 138.5c2 12.667 8 46.167 18 100.5l32 176.5l32 181v19c0 62.667 -17 94 -51 94c-6.66699 0 -12 -0.666992 -16 -2zM712.999 1483l16.001 -0.000976562
c16 0 31.667 -9.16699 47 -27.5s29.833 -41 43.5 -68l41 -82c13.667 -27.667 30 -52.667 49 -75s38.833 -35.833 59.5 -40.5c-2 -4 -12.5 -10.5 -31.5 -19.5s-35.833 -13.5 -50.5 -13.5c-60 0 -107.5 21.833 -142.5 65.5s-54.5 99.834 -58.5 168.501
c-8 -19.333 -14.833 -34.833 -20.5 -46.5s-17.5 -30.834 -35.5 -57.501s-36.5 -48.167 -55.5 -64.5s-44.5 -31.333 -76.5 -45s-66.333 -20.5 -103 -20.5c-14.667 0 -30 4.33301 -46 13s-24 15.334 -24 20.001c28 6 60.667 25 98 57s70.666 65.333 99.999 100
s58.833 66 88.5 94s52.5 42 68.5 42h33z" />
    <glyph glyph-name="udieresis" unicode="&#xfc;" horiz-adv-x="1128" 
d="M750 897l-19.001 33.001c22 27.333 53.833 51.5 95.5 72.5s82.167 31.5 121.5 31.5c50.667 0 76 -32 76 -96c0 -20 -3.33301 -48.167 -10 -84.5s-13 -64.166 -19 -83.499l-100 -539c-2.66699 -21.333 -4 -36.333 -4 -45c0 -31.333 7.83301 -53.833 23.5 -67.5
s34.5 -20.5 56.5 -20.5c16.667 0 31.667 2.66699 45 8l14 -36c-28.667 -25.333 -66 -47.833 -112 -67.5s-84.333 -29.5 -115 -29.5c-75.333 0 -113 40.333 -113 121c0 43.333 9.66699 92 29 146c-20 -28.667 -44.667 -57.834 -74 -87.501s-62.666 -58.834 -99.999 -87.501
s-78.333 -52.167 -123 -70.5s-87.667 -27.5 -129 -27.5c-47.333 0 -88.166 17.667 -122.499 53s-51.5 84 -51.5 146c0 26.667 15.5 118.5 46.5 275.5s50.833 269.167 59.5 336.5c1.33301 5.33301 2 14.333 2 27c0 26.667 -4.33301 49 -13 67s-22 27 -40 27
c-6.66699 0 -12 -0.666992 -16 -2l-19 33c22 27.333 53.833 51.5 95.5 72.5s82.167 31.5 121.5 31.5c50.667 0 76 -32 76 -96c0 -36 -8.66699 -92 -26 -168c-9.33301 -45.333 -24 -109.833 -44 -193.5s-34.5 -149.5 -43.5 -197.5s-13.5 -89 -13.5 -123
c0 -42 8.16699 -73.667 24.5 -95s43.166 -32 80.499 -32c55.333 0 114 20.167 176 60.5s111.667 86.5 149 138.5c2 12.667 8 46.167 18 100.5l32 176.5l32 181v19c0 62.667 -17 94 -51 94c-6.66699 0 -12 -0.666992 -16 -2zM586.999 1313
c0 -31.333 -9.99902 -58 -29.999 -80s-44 -33 -72 -33s-52.167 11 -72.5 33s-30.5 48.667 -30.5 80c0 30.667 10.333 57 31 79s44.667 33 72 33s51.166 -11 71.499 -33s30.5 -48.333 30.5 -79zM964 1313c0 -31.333 -9.99902 -58 -29.999 -80s-44 -33 -72 -33
s-52.167 10.833 -72.5 32.5s-30.5 48.5 -30.5 80.5c0 30.667 10.167 57 30.5 79s44.5 33 72.5 33c27.333 0 51.166 -11 71.499 -33s30.5 -48.333 30.5 -79z" />
    <glyph glyph-name="ydieresis" unicode="&#xff;" horiz-adv-x="921" 
d="M465 168c80.667 128.667 152.665 257.165 215.998 385.498s95 224.5 95 288.5c0 32.667 -7.5 62.334 -22.5 89.001s-37.5 43.334 -67.5 50.001c18 30 52 45 102 45c82 0 123 -43 123 -129c0 -60 -17.167 -131.667 -51.5 -215s-70.833 -159 -109.5 -227l-119 -200.5
l-138.5 -218c-52.333 -80.333 -103.666 -153.5 -153.999 -219.5s-100.833 -127.5 -151.5 -184.5s-99.5 -101.5 -146.5 -133.5s-88.5 -48 -124.5 -48c-47.333 0 -85.166 12 -113.499 36s-42.5 55.667 -42.5 95c0 31.333 5 60.666 15 87.999c2.66699 -16.667 17 -30 43 -40
s54 -15 84 -15c122 0 266 119.333 432 358c-18.667 8 -33.334 21 -44.001 39s-16.5 35.333 -17.5 52s-3.16699 32.334 -6.5 47.001l-86 587c-5.33301 42.667 -12.666 78.667 -21.999 108s-19.5 50.333 -30.5 63s-20.667 21.167 -29 25.5s-16.5 6.5 -24.5 6.5l-13 -2l-20 35
c28 26.667 61 50 99 70s72.667 30 104 30c34 0 58.167 -9.5 72.5 -28.5s21.5 -51.167 21.5 -96.5c-2 -50.667 25.333 -250.667 82 -600c4 -33.333 19 -80.333 45 -141zM476.998 1313c0 -31.333 -9.99902 -58 -29.999 -80s-44 -33 -72 -33s-52.167 11 -72.5 33
s-30.5 48.667 -30.5 80c0 30.667 10.333 57 31 79s44.667 33 72 33s51.166 -11 71.499 -33s30.5 -48.333 30.5 -79zM853.999 1313c0 -31.333 -9.99902 -58 -29.999 -80s-44 -33 -72 -33s-52.167 10.833 -72.5 32.5s-30.5 48.5 -30.5 80.5c0 30.667 10.167 57 30.5 79
s44.5 33 72.5 33c27.333 0 51.166 -11 71.499 -33s30.5 -48.333 30.5 -79z" />
    <glyph glyph-name="dotlessi" unicode="&#x131;" horiz-adv-x="542" 
d="M92 0l2.00098 7.99902c100 523.333 150 795.666 150 816.999c0.666992 24.667 -4.33301 43.167 -15 55.5s-24.334 18.5 -41.001 18.5c-6.66699 0 -12 -0.666992 -16 -2l-18 33c23.333 27.333 55.666 51.5 96.999 72.5s81.333 31.5 120 31.5c26 0 45.333 -9 58 -27
s18.334 -41 17.001 -69c0 -12.667 -3.16699 -33.667 -9.5 -63s-13.5 -60.166 -21.5 -92.499s-12.667 -51.5 -14 -57.5c-6 -31.333 -21.167 -120.166 -45.5 -266.499l-50.5 -304.5c-8 -42.667 -12 -81.667 -12 -117c0 -16.667 -0.666992 -29 -2 -37h-199z" />
    <glyph glyph-name="Lslash" unicode="&#x141;" horiz-adv-x="1024" 
 />
    <glyph glyph-name="OE" unicode="&#x152;" horiz-adv-x="1683" 
d="M842 1352h441.999l346 6c17.333 -27.333 22.5 -68.833 15.5 -124.5s-18.167 -90.167 -33.5 -103.5h-39c0 31.333 -17.667 57.5 -53 78.5s-80.666 32.5 -135.999 34.5l-170 6l-15 -83c-10 -56 -19.333 -103.333 -28 -142l-61 -279h311c18.667 0 34.667 2.16699 48 6.5
s22 8.83301 26 13.5l6 7l-4 -41c-2.66699 -16 -7.5 -30.167 -14.5 -42.5s-14.167 -22.333 -21.5 -30s-17.333 -14.334 -30 -20.001s-23.334 -9.83398 -32.001 -12.501s-20.834 -4.66699 -36.501 -6s-26.834 -2 -33.501 -2h-33c-104.667 0 -175 -0.666992 -211 -2
c-46.667 -249.333 -74.667 -407.666 -84 -474.999c-2 -4 -2 -8 0 -12h379c18.667 0 34.5 2.16699 47.5 6.5s21.167 8.83301 24.5 13.5l6 7v-13c0 -8.66699 -1.33301 -18 -4 -28c-4 -22 -11.833 -40.667 -23.5 -56s-23.5 -26.833 -35.5 -34.5s-28 -13.334 -48 -17.001
s-35.667 -5.83398 -47 -6.50098s-27 -1 -47 -1h-657c-68.667 0 -133 11.333 -193 34s-112.667 55.334 -158 98.001s-81.166 97 -107.499 163s-39.5 139.667 -39.5 221c0 119.333 20.167 231.333 60.5 336s94.333 193.334 162 266.001s146.834 129.834 237.501 171.501
s185.334 62.5 284.001 62.5zM706.999 109h86.001l6 30l178 951c12.667 70.667 16.667 124.334 12 161.001h-192c-52 0 -105.667 -17 -161 -51s-106 -79.833 -152 -137.5s-83.833 -129.334 -113.5 -215.001s-44.5 -175.5 -44.5 -269.5c0 -138.667 35.167 -251.5 105.5 -338.5
s162.166 -130.5 275.499 -130.5z" />
    <glyph glyph-name="oe" unicode="&#x153;" horiz-adv-x="1572" 
d="M641 1038c100 0 177.666 -38.667 232.999 -116c15.333 -20 24.333 -42.667 27 -68c8 16 21 33 39 51c44 42 91.833 74.667 143.5 98s102.834 35 153.501 35c89.333 0 156.666 -19.5 201.999 -58.5s67.333 -91.833 66 -158.5
c-1.33301 -70.667 -28.833 -132.834 -82.5 -186.501s-122 -94 -205 -121s-172.833 -40.5 -269.5 -40.5h-41c-2.66699 -21.333 -4 -39 -4 -53c-0.666992 -47.333 6.5 -92.5 21.5 -135.5s40.167 -79.667 75.5 -110s77.333 -45.5 126 -45.5c56.667 0 115.167 16 175.5 48
s113.833 76 160.5 132c2.66699 -57.333 -16.5 -112.5 -57.5 -165.5s-93 -94.667 -156 -125s-126.167 -45.5 -189.5 -45.5c-60.667 0 -119.667 18.167 -177 54.5s-96 81.833 -116 136.5c-4.66699 -12 -20.334 -32 -47.001 -60c-97.333 -87.333 -207.333 -131 -330 -131
c-50.667 0 -95.167 9 -133.5 27s-68.166 40.5 -89.499 67.5s-38.5 59.167 -51.5 96.5s-21.5 72 -25.5 104s-5.66699 65.667 -5 101c1.33301 94.667 17 183.667 47 267s70 154.333 120 213s108.833 104.834 176.5 138.501s138.834 50.5 213.501 50.5zM554.999 934
c-42 0 -79.667 -14.668 -113 -44.001s-59.5 -65.166 -78.5 -107.499s-35 -89.333 -48 -141s-21.833 -97 -26.5 -136s-7.33398 -73.167 -8.00098 -102.5c-2.66699 -98.667 11.333 -178.167 42 -238.5s75.334 -90.5 134.001 -90.5c74.667 0 141.5 51.333 200.5 154
s89.167 228.667 90.5 378c2 100 -14 179.667 -48 239s-82.333 89 -145 89zM1208 923.999c-36 0 -70.999 -11.9971 -104.999 -35.9971s-63.167 -55 -87.5 -93s-45 -78.5 -62 -121.5s-28.833 -85.167 -35.5 -126.5c40.667 3.33301 76.667 7.5 108 12.5
s65.666 13.667 102.999 26s68.333 27.666 93 45.999s45.5 43.166 62.5 74.499s25.833 67.666 26.5 108.999c1.33301 28.667 -6 54 -22 76s-43 33 -81 33z" />
    <glyph glyph-name="Ydieresis" unicode="&#x178;" horiz-adv-x="1003" 
d="M459 1599c0 -31.333 -10.166 -57.833 -30.499 -79.5s-44.5 -32.5 -72.5 -32.5s-52 10.833 -72 32.5s-30 48.167 -30 79.5c0 30.667 10.167 57.167 30.5 79.5s44.166 33.5 71.499 33.5c28 0 52.167 -11.167 72.5 -33.5s30.5 -48.833 30.5 -79.5zM938.001 1599
c0 -31.333 -9.99902 -57.833 -29.999 -79.5s-44 -32.5 -72 -32.5s-52.167 10.833 -72.5 32.5s-30.5 48.167 -30.5 79.5c0 30.667 10.167 57.167 30.5 79.5s44.5 33.5 72.5 33.5c27.333 0 51.166 -11.167 71.499 -33.5s30.5 -48.833 30.5 -79.5zM440.002 0h-218.999l6 33
c41.333 201.333 64.666 318 69.999 350l43 233c-9.33301 12 -19.666 33.333 -30.999 64l-116 344c-10.667 28 -21.334 58 -32.001 90l-24 71.5c-5.33301 15.667 -11.5 32 -18.5 49s-13.333 29.5 -19 37.5s-12.334 15.667 -20.001 23s-17.167 13.333 -28.5 18l21 35
c43.333 18.667 90.333 28 141 28c42.667 0 74 -12.333 94 -37c16.667 -78 45 -181.167 85 -309.5s71.667 -220.166 95 -275.499l60 80l225 301c46.667 64 58.334 123.333 35.001 178l20 35c44.667 18.667 84.334 28 119.001 28c33.333 0 67 -9.33301 101 -28
c-5.33301 -24.667 -26.833 -67.834 -64.5 -129.501s-72.834 -112.167 -105.501 -151.5l-324 -405c-26 -130 -45.667 -233.333 -59 -310c-32.667 -164.667 -50.667 -282 -54 -352z" />
    <glyph glyph-name="florin" unicode="&#x192;" horiz-adv-x="989" 
d="M506 1126c-14 -41.333 -33.335 -71.334 -58.002 -90.001s-51 -29.334 -79 -32.001l-25 -62l8 -3c6 -2 13 -5.83301 21 -11.5s15.833 -13.167 23.5 -22.5s13.834 -22.666 18.501 -39.999s6.33398 -37.333 5.00098 -60c-84 -732.667 -218 -1138.33 -402 -1217
c-21.333 -9.33301 -43 -14 -65 -14c-40 0 -69.333 10.5 -88 31.5s-27 46.167 -25 75.5c0 4.66699 3.33301 15.334 10 32.001c-40.667 7.33301 -76.834 1.66602 -108.501 -17.001s-48.5 -43 -50.5 -73c-2 -41.333 18.167 -74.5 60.5 -99.5s92.5 -37.5 150.5 -37.5
c50.667 0 98.334 6.33301 143.001 19s84.334 30 119.001 52s67 49.833 97 83.5s56.333 68.834 79 105.501s43.834 78.667 63.501 126s36.667 93.333 51 138s28.166 94 41.499 148c46.667 186.667 86 429.667 118 729c4.66699 0 26.667 -0.333008 66 -1s64 -1 74 -1
c22.667 0 42.834 1.66699 60.501 5s36.167 9.66602 55.5 18.999s34.666 24.333 45.999 45s18 46.667 20 78l-4 -6c-3.33301 -4 -11.166 -8 -23.499 -12s-27.833 -6 -46.5 -6h-225c1.33301 2.66699 3.5 9.83398 6.5 21.501s5.5 20.167 7.5 25.5l31 162
c15.333 65.333 38.166 115.333 68.499 150s71.5 52 123.5 52c27.333 0 47.833 -8.16699 61.5 -24.5s19.834 -36.166 18.501 -59.499c16.667 -6.66699 31.667 -10 45 -10c28.667 0 55.5 10.5 80.5 31.5s38.5 45.5 40.5 73.5c2 34 -14.833 61.833 -50.5 83.5
s-76.834 32.5 -123.501 32.5c-36.667 0 -73.834 -6.66699 -111.501 -20s-76.834 -35 -117.501 -65s-79.667 -73.667 -117 -131s-68.666 -125.333 -93.999 -204z" />
    <glyph glyph-name="circumflex" unicode="&#x2c6;" horiz-adv-x="823" 
d="M449 1483l16.001 -0.000976562c16 0 31.667 -9.16699 47 -27.5s29.833 -41 43.5 -68l41 -82c13.667 -27.667 30 -52.667 49 -75s38.833 -35.833 59.5 -40.5c-2 -4 -12.5 -10.5 -31.5 -19.5s-35.833 -13.5 -50.5 -13.5c-60 0 -107.5 21.833 -142.5 65.5
s-54.5 99.834 -58.5 168.501c-8 -19.333 -14.833 -34.833 -20.5 -46.5s-17.5 -30.834 -35.5 -57.501s-36.5 -48.167 -55.5 -64.5s-44.5 -31.333 -76.5 -45s-66.333 -20.5 -103 -20.5c-14.667 0 -30 4.33301 -46 13s-24 15.334 -24 20.001c28 6 60.667 25 98 57
s70.666 65.333 99.999 100s58.833 66 88.5 94s52.5 42 68.5 42h33z" />
    <glyph glyph-name="caron" unicode="&#x2c7;" horiz-adv-x="823" 
 />
    <glyph glyph-name="breve" unicode="&#x2d8;" horiz-adv-x="823" 
d="M397 1247c26.667 0 54.334 9.50293 83.001 28.5029s55.167 43.667 79.5 74s45.666 59.666 63.999 87.999s33.833 55.833 46.5 82.5c5.33301 -24 8 -50 8 -78c0 -48 -9.16699 -91.333 -27.5 -130s-42.5 -69.834 -72.5 -93.501s-62.667 -41.834 -98 -54.501
s-71 -19 -107 -19c-58 0 -107 15.5 -147 46.5s-60 74.833 -60 131.5s21.667 121.667 65 195c2.66699 -26.667 7.5 -54.167 14.5 -82.5s16.833 -57.333 29.5 -87s29.667 -54 51 -73s45 -28.5 71 -28.5z" />
    <glyph glyph-name="dotaccent" unicode="&#x2d9;" horiz-adv-x="380" 
d="M307 1290c0 -30.667 -12.834 -57.333 -38.501 -80s-54.5 -34 -86.5 -34c-25.333 0 -46.666 8.5 -63.999 25.5s-26 38.5 -26 64.5c0 32 12.167 60 36.5 84s52.5 36 84.5 36c26 0 48.167 -9.5 66.5 -28.5s27.5 -41.5 27.5 -67.5z" />
    <glyph glyph-name="ring" unicode="&#x2da;" horiz-adv-x="1064" 
d="M575 1505c-9.33301 2.66699 -23.667 4.00098 -43 4.00098c-54 0 -99.167 -17 -135.5 -51s-54.5 -80.333 -54.5 -139c0 -51.333 16.833 -90.5 50.5 -117.5s73.5 -40.5 119.5 -40.5c53.333 0 98.833 17.667 136.5 53s56.5 80 56.5 134c0 40.667 -12.333 75.167 -37 103.5
s-55.667 46.166 -93 53.499zM503.999 1217c-22.667 4 -41.334 16 -56.001 36s-22 45.333 -22 76c0 43.333 9.33301 75.333 28 96s40.667 31 66 31c28.667 0 52.167 -9.83301 70.5 -29.5s27.5 -47.5 27.5 -83.5c0 -44 -9.66699 -76.5 -29 -97.5s-41.666 -31.5 -66.999 -31.5
c-2 0 -5 0.5 -9 1.5s-7 1.5 -9 1.5z" />
    <glyph glyph-name="ogonek" unicode="&#x2db;" horiz-adv-x="565" 
 />
    <glyph glyph-name="tilde" unicode="&#x2dc;" horiz-adv-x="778" 
d="M37 1241c53.333 34 96.333 51 129 51c24 0 67.833 -11.5 131.5 -34.5s122.167 -34.5 175.5 -34.5c61.333 0 117.666 13.667 168.999 41s88 68 110 122c-65.333 -36.667 -116.666 -55 -153.999 -55c-27.333 0 -74.5 11.667 -141.5 35s-119.5 35 -157.5 35
c-57.333 0 -110.333 -13.333 -159 -40s-83 -66.667 -103 -120z" />
    <glyph glyph-name="hungarumlaut" unicode="&#x2dd;" horiz-adv-x="1198" 
 />
    <glyph glyph-name="Delta" unicode="&#x394;" horiz-adv-x="1370" 
 />
    <glyph glyph-name="Omega" unicode="&#x3a9;" horiz-adv-x="753" 
 />
    <glyph glyph-name="mu" unicode="&#x3bc;" horiz-adv-x="1062" 
 />
    <glyph glyph-name="pi" unicode="&#x3c0;" horiz-adv-x="868" 
 />
    <glyph glyph-name="endash" unicode="&#x2013;" horiz-adv-x="925" 
d="M45 438l26.999 131.001c-1.33301 -5.33301 174 -8 526 -8h102.5c32.333 0 60.833 0.333008 85.5 1s45.667 2.33398 63 5.00098s29.333 6.33398 36 11.001c-7.33301 -20.667 -16.5 -38.834 -27.5 -54.501s-23.333 -28.334 -37 -38.001s-28.667 -17.834 -45 -24.501
s-33.333 -11.5 -51 -14.5s-36 -5.33301 -55 -7s-38 -2.16699 -57 -1.5s-38.167 0.666992 -57.5 0c-18 0 -99.167 0.333008 -243.5 1s-220.833 1 -229.5 1c-19.333 0 -31.666 -0.666992 -36.999 -2z" />
    <glyph glyph-name="emdash" unicode="&#x2014;" horiz-adv-x="1390" 
d="M39 438l26.9961 131.001c-2 -5.33301 330.333 -8 997 -8h102.5c32.333 0 60.833 0.333008 85.5 1s45.667 2.33398 63 5.00098s29.333 6.33398 36 11.001c-7.33301 -20.667 -16.666 -38.834 -27.999 -54.501s-23.666 -28.334 -36.999 -38.001
s-28.166 -17.834 -44.499 -24.501s-33.333 -11.5 -51 -14.5s-36 -5.33301 -55 -7s-38 -2.16699 -57 -1.5s-38.167 0.666992 -57.5 0c-18 0 -177.667 0.333008 -479 1s-456.333 1 -465 1c-19.333 0 -31.666 -0.666992 -36.999 -2z" />
    <glyph glyph-name="quoteleft" unicode="&#x2018;" horiz-adv-x="428" 
d="M426 1161c1.33301 0 2 -6.66602 2 -19.999c0 -32.667 -12.167 -58.334 -36.5 -77.001s-53.833 -28 -88.5 -28c-24.667 0 -46.834 10.667 -66.501 32s-29.5 48.333 -29.5 81c0 55.333 28.333 118 85 188s138.334 135 245.001 195l26 -49
c-70 -61.333 -118.167 -109.833 -144.5 -145.5s-39.5 -75.167 -39.5 -118.5c0 -38.667 15.667 -58 47 -58z" />
    <glyph glyph-name="quoteright" unicode="&#x2019;" horiz-adv-x="428" 
d="M270 1401c-1.33301 0 -2.00098 6.66602 -2.00098 19.999c0 32.667 12.167 58.334 36.5 77.001s53.833 28 88.5 28c24.667 0 46.834 -10.667 66.501 -32s29.5 -48.333 29.5 -81c0 -55.333 -28.333 -118 -85 -188s-138 -135 -244 -195l-27 49
c70 61.333 118.167 109.833 144.5 145.5s39.5 75.167 39.5 118.5c0 38.667 -15.667 58 -47 58z" />
    <glyph glyph-name="quotesinglbase" unicode="&#x201a;" horiz-adv-x="428" 
d="M90 68c-1.33301 0 -2.00098 6.66602 -2.00098 19.999c0 32.667 12.167 58.334 36.5 77.001s53.833 28 88.5 28c24.667 0 46.834 -10.833 66.501 -32.5s29.5 -48.5 29.5 -80.5c0 -55.333 -28.167 -118 -84.5 -188s-137.833 -135 -244.5 -195l-27 49
c70 61.333 118.167 109.833 144.5 145.5s39.5 75.167 39.5 118.5c0 38.667 -15.667 58 -47 58z" />
    <glyph glyph-name="quotedblleft" unicode="&#x201c;" horiz-adv-x="806" 
d="M426 1161c1.33301 0 2 -6.66602 2 -19.999c0 -32.667 -12.167 -58.334 -36.5 -77.001s-53.833 -28 -88.5 -28c-24.667 0 -46.834 10.667 -66.501 32s-29.5 48.333 -29.5 81c0 55.333 28.333 118 85 188s138.334 135 245.001 195l26 -49
c-70 -61.333 -118.167 -109.833 -144.5 -145.5s-39.5 -75.167 -39.5 -118.5c0 -38.667 15.667 -58 47 -58zM805 1161c1.33301 0 2.00098 -6.66602 2.00098 -19.999c0 -32.667 -12.167 -58.334 -36.5 -77.001s-53.833 -28 -88.5 -28c-24.667 0 -46.834 10.667 -66.501 32
s-29.5 48.333 -29.5 81c0 55.333 28.333 118 85 188s138 135 244 195l27 -49c-70 -61.333 -118.167 -109.833 -144.5 -145.5s-39.5 -75.167 -39.5 -118.5c0 -38.667 15.667 -58 47 -58z" />
    <glyph glyph-name="quotedblright" unicode="&#x201d;" horiz-adv-x="806" 
d="M649 1407c-1.33301 0 -2.00098 6.66602 -2.00098 19.999c0 32.667 12.167 58.334 36.5 77.001s53.833 28 88.5 28c24.667 0 46.834 -10.667 66.501 -32s29.5 -48.333 29.5 -81c0 -55.333 -28.333 -118 -85 -188s-138 -135 -244 -195l-27 49
c70 61.333 118.167 109.833 144.5 145.5s39.5 75.5 39.5 119.5c0 38 -15.667 57 -47 57zM269.999 1407c-1.33301 0 -2.00098 6.66602 -2.00098 19.999c0 32.667 12.167 58.334 36.5 77.001s53.833 28 88.5 28c24.667 0 46.834 -10.667 66.501 -32s29.5 -48.333 29.5 -81
c0 -55.333 -28.333 -118 -85 -188s-138 -135 -244 -195l-27 49c70 61.333 118.167 109.833 144.5 145.5s39.5 75.5 39.5 119.5c0 38 -15.667 57 -47 57z" />
    <glyph glyph-name="quotedblbase" unicode="&#x201e;" horiz-adv-x="788" 
d="M90 68c-1.33301 0 -2.00098 6.66602 -2.00098 19.999c0 32.667 12.167 58.334 36.5 77.001s53.833 28 88.5 28c24.667 0 46.834 -10.833 66.501 -32.5s29.5 -48.5 29.5 -80.5c0 -55.333 -28.167 -118 -84.5 -188s-137.833 -135 -244.5 -195l-27 49
c70 61.333 118.167 109.833 144.5 145.5s39.5 75.167 39.5 118.5c0 38.667 -15.667 58 -47 58zM450.999 67.999c-1.33301 0 -1.99902 6.66602 -1.99902 19.999c0 32.667 12 58.334 36 77.001s53.333 28 88 28c25.333 0 47.833 -10.833 67.5 -32.5s29.5 -48.5 29.5 -80.5
c0 -55.333 -28.333 -118 -85 -188s-138.334 -135 -245.001 -195l-27 49c70 61.333 118.333 109.833 145 145.5s40 75.167 40 118.5c0 38.667 -15.667 58 -47 58z" />
    <glyph glyph-name="dagger" unicode="&#x2020;" horiz-adv-x="997" 
d="M664 1006l42.999 0.00195312h102c32 0 60.333 0.333008 85 1s45.667 2.33398 63 5.00098s29.333 6 36 10c-7.33301 -20.667 -16.666 -38.834 -27.999 -54.501s-24 -28.334 -38 -38.001s-29.5 -17.834 -46.5 -24.501s-34.833 -11.334 -53.5 -14.001
s-38.5 -4.83398 -59.5 -6.50098s-42.5 -2.16699 -64.5 -1.5s-44.667 0.666992 -68 0c-38.667 -162 -75.667 -334 -111 -516c-18 -94 -38.5 -210.5 -61.5 -349.5s-36.5 -218.5 -40.5 -238.5c-10 -54 -23.667 -102.333 -41 -145s-33.166 -74 -47.499 -94
s-26.833 -35 -37.5 -45l-17 -15l-11 19c-6.66699 12.667 -13.334 34.834 -20.001 66.501s-10 66.5 -10 104.5c0 48.667 12.833 139.5 38.5 272.5s55.5 275.833 89.5 428.5s53.333 241.334 58 266.001c5.33301 27.333 13.5 71.833 24.5 133.5s17.833 99.167 20.5 112.5
c-50.667 1.33301 -108.667 2 -174 2c-36.667 0 -63.334 -0.666992 -80.001 -2l25 131c0 -5.33301 84 -8 252 -8c5.33301 36 11.833 87.333 19.5 154s13.834 118.334 18.501 155.001c32 6.66699 58 10 78 10c30 0 53.167 -5.5 69.5 -16.5s26.333 -26.167 30 -45.5
s4.16699 -42.333 1.5 -69s-8.66699 -55.834 -18 -87.501s-18.333 -65.167 -27 -100.5z" />
    <glyph glyph-name="daggerdbl" unicode="&#x2021;" horiz-adv-x="1017" 
d="M684 1006l126.496 0.0078125c37.667 0 70.334 0.333008 98.001 1s50.334 2.16699 68.001 4.5s30.167 5.83301 37.5 10.5c-7.33301 -20.667 -16.666 -38.834 -27.999 -54.501s-23.833 -28.334 -37.5 -38.001s-28.667 -17.834 -45 -24.501s-33.166 -11.334 -50.499 -14.001
s-35.5 -4.83398 -54.5 -6.50098s-38 -2.16699 -57 -1.5s-38.167 0.666992 -57.5 0h-29c-27.333 -110.667 -79.666 -364.667 -156.999 -762h123.5c37 0 69 0.333008 96 1s49.333 2.16699 67 4.5s29.834 5.83301 36.501 10.5c-7.33301 -20.667 -16.666 -38.667 -27.999 -54
s-23.833 -27.833 -37.5 -37.5s-28.834 -17.834 -45.501 -24.501s-34 -11.5 -52 -14.5s-37 -5.33301 -57 -7s-40.333 -2.16699 -61 -1.5s-41.667 0.666992 -63 0c-13.333 -102 -25 -175 -35 -219c-10 -54 -23.333 -102.333 -40 -145s-32.667 -74.167 -48 -94.5
s-27.833 -35.333 -37.5 -45s-15.5 -14.5 -17.5 -14.5c-4 0 -11.833 18.167 -23.5 54.5s-17.5 82.166 -17.5 137.499c0 51.333 5.33301 103.333 16 156l39 172c-174.667 0 -264.667 -0.666992 -270 -2l25 131c0 -5.33301 90.667 -8 272 -8l66 315
c44 210.667 71.667 359.667 83 447c-50 1.33301 -108 2 -174 2c-36.667 0 -63 -0.666992 -79 -2l24 131c0 -5.33301 84 -8 252 -8c5.33301 36.667 12.166 89 20.499 157l18.5 152c30 6.66699 56 10 78 10c29.333 0 52.333 -5.33301 69 -16s26.667 -25.667 30 -45
s3.66602 -42.333 0.999023 -69s-8.66699 -55.834 -18 -87.501s-18.333 -65.5 -27 -101.5z" />
    <glyph glyph-name="bullet" unicode="&#x2022;" horiz-adv-x="868" 
d="M432 758c69.333 0 129 -24.667 179 -74s75 -108.666 75 -177.999c0 -70 -24.833 -129.833 -74.5 -179.5s-109.5 -74.5 -179.5 -74.5c-70.667 0 -130.667 24.667 -180 74s-74 109.333 -74 180c0 69.333 24.667 128.666 74 177.999s109.333 74 180 74z" />
    <glyph glyph-name="ellipsis" unicode="&#x2026;" horiz-adv-x="1357" 
d="M377 84c0 -30.667 -10.667 -56.834 -32 -78.501s-47 -32.5 -77 -32.5c-30.667 0 -56.667 10.833 -78 32.5s-32 47.834 -32 78.501c0 29.333 10.667 54.833 32 76.5s47.333 32.5 78 32.5c30 0 55.667 -10.833 77 -32.5s32 -47.167 32 -76.5zM797 84
c0 -30.667 -10.667 -56.834 -32 -78.501s-47 -32.5 -77 -32.5c-30.667 0 -56.667 10.833 -78 32.5s-32 47.834 -32 78.501c0 29.333 10.667 54.833 32 76.5s47.333 32.5 78 32.5c30 0 55.667 -10.833 77 -32.5s32 -47.167 32 -76.5zM1206 84
c0 -30.667 -10.667 -56.834 -32 -78.501s-46.666 -32.5 -75.999 -32.5c-30.667 0 -56.834 10.833 -78.501 32.5s-32.5 47.834 -32.5 78.501c0 30 10.833 55.667 32.5 77s47.834 32 78.501 32c29.333 0 54.666 -10.833 75.999 -32.5s32 -47.167 32 -76.5z" />
    <glyph glyph-name="perthousand" unicode="&#x2030;" horiz-adv-x="2353" 
d="M1995 662c-119.333 0 -220.499 -43.168 -303.499 -129.501s-124.5 -193.5 -124.5 -321.5c0 -77.333 19.833 -135.666 59.5 -174.999s92.167 -59 157.5 -59c79.333 0 152.666 21 219.999 63s120.166 97.333 158.5 166c38.333 68.667 57.5 142 57.5 220
c0 76 -20.333 134.333 -61 175s-95.334 61 -164 61zM1849 58.999c-45.333 0 -79.5 16.5 -102.5 49.5s-34.5 78.833 -34.5 137.5c0 98 21 177.833 63 239.5s93.333 92.5 154 92.5c48 0 85 -16.5 111 -49.5s39 -78.833 39 -137.5c0 -96 -23.5 -175.333 -70.5 -238
s-100.167 -94 -159.5 -94zM391.001 -0.000976562l-145.003 0.000976562l711.5 1026c123.667 183.333 186.834 291.333 189.501 324c26.667 20 54 30 82 30c40.667 0 61 -13.667 61 -41c0 -21.333 -13.167 -51.833 -39.5 -91.5s-45.166 -65.834 -56.499 -78.501
c-1.33301 -2 -63.166 -89.333 -185.499 -262l-371 -532c-125 -182 -207.167 -307 -246.5 -375zM1247 662c-118.667 0 -219.667 -43.168 -303 -129.501s-125 -193.5 -125 -321.5c0 -77.333 19.833 -135.666 59.5 -174.999s92.167 -59 157.5 -59c79.333 0 152.833 21 220.5 63
s120.667 97.333 159 166s57.5 142 57.5 220c0 76 -20.5 134.333 -61.5 175s-95.833 61 -164.5 61zM1102 58.999c-45.333 0 -79.5 16.5 -102.5 49.5s-34.5 78.833 -34.5 137.5c0 98 21 177.833 63 239.5s93.333 92.5 154 92.5c47.333 0 84 -16.5 110 -49.5
s39 -78.833 39 -137.5c0 -96 -23.333 -175.333 -70 -238s-99.667 -94 -159 -94zM546.998 1378c-119.333 0 -220.497 -43.001 -303.497 -129.001s-124.5 -193 -124.5 -321c0 -77.333 19.833 -135.666 59.5 -174.999s92.167 -59 157.5 -59c79.333 0 152.666 21 219.999 63
s120.166 97.333 158.499 166s57.5 142 57.5 220c0 75.333 -20.333 133.333 -61 174s-95.334 61 -164.001 61zM401.001 775.998c-45.333 0 -79.5 16.501 -102.5 49.501s-34.5 78.833 -34.5 137.5c0 98 21 177.667 63 239s93.333 92 154 92c48 0 85 -16.333 111 -49
s39 -78.334 39 -137.001c0 -96 -23.5 -175.333 -70.5 -238s-100.167 -94 -159.5 -94z" />
    <glyph glyph-name="guilsinglleft" unicode="&#x2039;" horiz-adv-x="755" 
d="M80 506l47.002 41l332 319c82.667 80.667 153.667 121 213 121c31.333 0 55.666 -10.333 72.999 -31c-12.667 -4 -28.334 -13 -47.001 -27s-34 -27 -46 -39l-19 -18l-285 -303c-14 -14 -30.667 -28 -50 -42l-30 -21l22 -21c14 -14 24.667 -28.333 32 -43l170 -303l11 -17
c7.33301 -12 17.666 -25 30.999 -39s25.666 -23.333 36.999 -28c-29.333 -18.667 -58.666 -28 -87.999 -28c-59.333 0 -114.666 39.333 -165.999 118l-204 320z" />
    <glyph glyph-name="guilsinglright" unicode="&#x203a;" horiz-adv-x="755" 
d="M662 506l-12.999 14.001c-8.66699 9.33301 -16 18.333 -22 27l-205 319c-50 80.667 -105.333 121 -166 121c-32 0 -61.333 -10.333 -88 -31c11.333 -4 23.666 -13 36.999 -27s23.666 -27 30.999 -39l12 -18l170 -303c6.66699 -14 17.334 -28 32.001 -42l23 -21l-31 -21
c-20 -14 -37 -28.333 -51 -43l-285 -303l-42 -37c-28 -25.333 -50.667 -41 -68 -47c18.667 -18.667 43.334 -28 74.001 -28c55.333 -2.66699 125.666 36.666 210.999 117.999l331 320z" />
    <glyph glyph-name="fraction" unicode="&#x2044;" horiz-adv-x="1011" 
d="M125 0l-144.999 -0.000976562l712 1027c122.667 182.667 185.667 290.334 189 323.001c25.333 20 52.666 30 81.999 30c40.667 0 61 -13.667 61 -41c0 -21.333 -13.333 -52 -40 -92s-45.334 -66 -56.001 -78c-1.33301 -2 -63.166 -89.333 -185.499 -262l-371 -532
c-125 -182 -207.167 -307 -246.5 -375z" />
    <glyph glyph-name="Euro" unicode="&#x20ac;" horiz-adv-x="1200" 
d="M35 731l42.9951 130.999c28 -4 71.667 -6 131 -6c68 156.667 168.5 281.834 301.5 375.501s280.167 140.5 441.5 140.5c80 0 148.167 -14.667 204.5 -44s84.5 -59.666 84.5 -90.999c0 -38 -19 -70.667 -57 -98c-3.33301 26.667 -29.5 51.667 -78.5 75
s-116.5 35 -202.5 35c-115.333 0 -221.333 -37.5 -318 -112.5s-168 -169.167 -214 -282.5h385h102c32 0 60.167 0.333008 84.5 1s45.166 2.33398 62.499 5.00098s29 6 35 10c-7.33301 -20.667 -16.666 -38.667 -27.999 -54s-23.666 -27.833 -36.999 -37.5
s-28 -17.834 -44 -24.501s-32.667 -11.5 -50 -14.5s-35.5 -5.33301 -54.5 -7s-37.833 -2.16699 -56.5 -1.5s-37.667 0.666992 -57 0h-379c-13.333 -60 -21 -114.667 -23 -164h267h102.5c32.333 0 61.166 0.333008 86.499 1s46.833 2.33398 64.5 5.00098
s29.834 6.33398 36.501 11.001c-7.33301 -20.667 -16.666 -38.834 -27.999 -54.501s-24 -28.334 -38 -38.001s-29.167 -17.834 -45.5 -24.501s-33.333 -11.5 -51 -14.5s-36.167 -5.33301 -55.5 -7s-38.5 -2.16699 -57.5 -1.5s-38.167 0.666992 -57.5 0h-222
c22.667 -236 153.334 -354 392.001 -354c36 0 84.833 9.33301 146.5 28s117.167 49 166.5 91c-16 -79.333 -59 -138.833 -129 -178.5s-160.333 -59.5 -271 -59.5c-154.667 0 -273.667 43.833 -357 131.5s-126.666 202.167 -129.999 343.5h-111
c-17.333 0 -28.666 -0.666992 -33.999 -2l43 131c18.667 -2.66699 54 -4 106 -4c3.33301 42.667 13.666 96.667 30.999 162h-94c-19.333 0 -31.666 -0.666992 -36.999 -2z" />
    <glyph glyph-name="trademark" unicode="&#x2122;" horiz-adv-x="1642" 
d="M1499 686l-149.002 0.00292969c6 52 19.167 127.333 39.5 226s31.5 153.667 33.5 165c8.66699 37.333 13 68 13 92c0 28 -6 48.333 -18 61s-31.333 19 -58 19c-62.667 0 -121.334 -21.667 -176.001 -65c-54.667 -264.667 -82 -430.667 -82 -498h-150
c5.33301 38.667 12 79.667 20 123s17.667 91.833 29 145.5s19.666 94.5 24.999 122.5c6.66699 30.667 10 60.667 10 90s-5.66699 50.333 -17 63s-30 19 -56 19c-69.333 0 -133.666 -28 -192.999 -84c-1.33301 -8 -9.16602 -47.333 -23.499 -118
s-26.666 -138.834 -36.999 -204.501s-15.5 -117.834 -15.5 -156.501h-155l96 459c5.33301 21.333 8 42.333 8 63c0 24 -4.16699 43 -12.5 57s-16.5 22 -24.5 24l-12 3l8 41c48 24.667 93 37 135 37c44 0 66 -19 66 -57c0 -9.33301 -4 -29.333 -12 -60
c79.333 80.667 166 121 260 121c40.667 0 73.167 -11.333 97.5 -34s38.166 -51.667 41.499 -87c76.667 80.667 163.334 121 260.001 121c42.667 0 76.167 -13.167 100.5 -39.5s36.5 -58.833 36.5 -97.5c0 -12 -0.666992 -21.667 -2 -29l-16 -88l-27 -126.5
c-15.333 -71.667 -26.666 -130.334 -33.999 -176.001s-10.333 -83.167 -9 -112.5v-19zM366.998 1462l-37.002 -108h129c17.333 0 32.5 2.16699 45.5 6.5s21.5 8.83301 25.5 13.5l7 6c1.33301 -4 2 -9.33301 2 -16c0 -32 -12.5 -58.5 -37.5 -79.5s-56.833 -31.5 -95.5 -31.5
c-5.33301 0 -17.833 0.333008 -37.5 1s-33.834 1 -42.501 1h-15c-8 -42.667 -18.167 -92.667 -30.5 -150s-21.833 -104 -28.5 -140c-9.33301 -45.333 -14 -79 -14 -101c0 -44.667 23 -67 69 -67c25.333 0 52.833 5.16699 82.5 15.5s47.834 20.166 54.501 29.499
c0 -44 -18.5 -84 -55.5 -120s-84.5 -54 -142.5 -54c-101.333 0 -152 49.667 -152 149c0 36 13 105.333 39 208s39 171.334 39 206.001c0 7.33301 -1.16699 14 -3.5 20s-5.16602 11 -8.49902 15s-7.16602 7.66699 -11.499 11s-8.5 5.83301 -12.5 7.5
s-7.83301 3.16699 -11.5 4.5s-6.16699 2.33301 -7.5 3h-2l16 62c48 0 99.333 36 154 108h82z" />
    <glyph glyph-name="partialdiff" unicode="&#x2202;" horiz-adv-x="24" 
d="M25 1421v-1421h-25v1421h25z" />
    <glyph glyph-name="product" unicode="&#x220f;" horiz-adv-x="868" 
 />
    <glyph glyph-name="summation" unicode="&#x2211;" horiz-adv-x="970" 
 />
    <glyph glyph-name="radical" unicode="&#x221a;" horiz-adv-x="460" 
 />
    <glyph glyph-name="infinity" unicode="&#x221e;" horiz-adv-x="1267" 
 />
    <glyph glyph-name="integral" unicode="&#x222b;" horiz-adv-x="675" 
 />
    <glyph glyph-name="approxequal" unicode="&#x2248;" horiz-adv-x="1370" 
 />
    <glyph glyph-name="notequal" unicode="&#x2260;" horiz-adv-x="983" 
 />
    <glyph glyph-name="lessequal" unicode="&#x2264;" horiz-adv-x="460" 
 />
    <glyph glyph-name="greaterequal" unicode="&#x2265;" horiz-adv-x="460" 
 />
    <glyph glyph-name="lozenge" unicode="&#x25ca;" horiz-adv-x="974" 
 />
    <glyph glyph-name="apple" unicode="&#xf8ff;" horiz-adv-x="1415" 
d="M145 0v1008h1129v-1008h-1129zM500 399l-205 193v-469l823 4v465l-207 -193l-204 199zM473 774c0 30 -10.667 55.667 -32 77s-46.666 32 -75.999 32c-30.667 0 -56.834 -10.667 -78.501 -32s-32.5 -47 -32.5 -77c0 -30.667 10.833 -56.667 32.5 -78
s47.834 -32 78.501 -32c29.333 0 54.666 10.667 75.999 32s32 47.333 32 78zM821 774c0 30 -10.667 55.667 -32 77s-46.666 32 -75.999 32c-30.667 0 -56.834 -10.667 -78.501 -32s-32.5 -47 -32.5 -77c0 -30.667 10.833 -56.667 32.5 -78s47.834 -32 78.501 -32
c29.333 0 54.666 10.667 75.999 32s32 47.333 32 78zM1174 774c0 30 -10.833 55.667 -32.5 77s-47.167 32 -76.5 32c-30.667 0 -56.834 -10.667 -78.501 -32s-32.5 -47 -32.5 -77c0 -30.667 10.833 -56.667 32.5 -78s47.834 -32 78.501 -32c30 0 55.667 10.667 77 32
s32 47.333 32 78z" />
    <glyph glyph-name="st" unicode="&#xfb06;" horiz-adv-x="1675" 
 />
    <glyph glyph-name="nonmarkingreturn" horiz-adv-x="682" 
 />
    <glyph glyph-name="CR" horiz-adv-x="409" 
 />
    <glyph glyph-name="ct" horiz-adv-x="1775" 
 />
    <glyph glyph-name="fj" horiz-adv-x="1073" 
 />
    <glyph glyph-name="qu" horiz-adv-x="2119" 
 />
  </font>
</defs>
</svg>
